<svg xmlns="http://www.w3.org/2000/svg" width="432" height="225" viewBox="0 0 432 225">
  <g fill="none" fill-rule="evenodd">
    <path stroke="#000" stroke-linecap="square" stroke-width="6" d="M97 66L141 35M89 115L102 62"/>
    <path fill="#000" d="M117.518,164.972 C117.462,165.130667 117.284668,165.256666 116.986,165.35 L116.538,165.07 L116.104,164.58 L115.964,164.258 L115.922,163.992 L115.866,163.852 C115.744666,163.553332 115.684,163.282668 115.684,163.04 C115.684,162.984 115.698,162.914 115.726,162.83 L115.754,162.802 L115.782,162.536 L115.614,162.228 L115.67,162.06 L115.642,161.836 L115.656,161.64 C115.628,161.527999 115.614,161.43 115.614,161.346 L115.614,161.276 C115.614,161.107999 115.590667,160.940001 115.544,160.772 L115.544,160.38 L115.446,160.128 L115.418,159.932 L115.278,160.002 L114.83,160.562 L114.438,160.996 L114.284,161.276 L113.85,161.752 L113.374,162.074 L113.318,162.34 L113.038,162.438 L112.982,162.592 L112.646,162.746 L112.534,163.012 L112.282,163.096 L112.002,163.544 L111.834,163.642 C111.824667,163.688667 111.806,163.777333 111.778,163.908 C111.637999,163.982667 111.488667,164.02 111.33,164.02 L111.246,164.02 L111.106,163.754 L110.896,163.474 L110.924,163.32 L110.784,163.124 L110.854,163.026 L110.84,163.012 L110.77,162.788 L110.658,162.704 C110.480666,162.526666 110.340667,162.363334 110.238,162.214 L110.154,161.948 L110.014,161.794 L109.748,161.304 L109.468,160.996 L109.37,160.828 L109.104,160.548 L108.81,160.142 C108.791333,160.067333 108.744667,159.992667 108.67,159.918 C108.642,160.254002 108.581334,160.501333 108.488,160.66 L108.236,161.08 L108.306,161.388 L108.18,161.696 L107.9,162.564 L107.788,162.844 L107.76,163.026 L107.536,163.488 L107.34,163.796 L107.368,164.076 C107.312,164.225334 107.232667,164.388666 107.13,164.566 L107.214,164.902 C106.943332,165.172668 106.738001,165.308 106.598,165.308 C106.448666,165.308 106.336667,165.238001 106.262,165.098 C106.196666,165.023333 106.154667,164.939334 106.136,164.846 L106.136,164.79 C106.304001,164.09933 106.416,163.754 106.472,163.754 C106.481333,163.754 106.486,163.758667 106.486,163.768 L106.486,163.53 C106.486,163.287332 106.579332,163.105334 106.766,162.984 L106.766,162.9 L106.85,162.62 L106.836,162.522 C106.836,162.475333 106.878,162.344668 106.962,162.13 L107.018,162.074 L107.032,161.696 L107.172,161.458 L107.382,160.758 L107.312,160.324 L107.494,160.17 L107.494,160.128 L107.522,159.582 L107.564,159.344 C107.592,159.269333 107.606,159.204 107.606,159.148 L107.606,159.092 L107.368,158.644 L107.438,158.378 L107.55,158.35 L107.648,158.21 L107.634,158.098 L107.816,157.93 L107.942,157.986 L108.11,157.846 L108.306,157.874 L108.656,158.112 L108.656,158.21 L108.782,158.294 L108.838,158.616 L108.936,158.7 L109.02,158.966 L108.992,159.022 L109.118,159.12 C109.174,159.092 109.225333,159.078 109.272,159.078 C109.328,159.106 109.402666,159.166666 109.496,159.26 L109.524,159.456 L109.65,159.596 L109.748,159.89 L110.392,160.506 L110.504,160.856 L110.714,160.996 L110.938,161.556 L111.372,162.312 C111.381333,162.321333 111.409333,162.354 111.456,162.41 L111.484,162.452 L111.624,162.452 L111.736,162.214 L112.072,162.004 C112.286668,161.770666 112.394,161.644667 112.394,161.626 C112.394,161.616667 112.384667,161.612 112.366,161.612 L112.352,161.612 C112.398667,161.574666 112.459333,161.542 112.534,161.514 C112.552667,161.486 112.617999,161.444 112.73,161.388 C112.795334,161.247999 112.907333,161.140667 113.066,161.066 L113.122,160.982 L113.122,160.856 C113.346001,160.575999 113.527999,160.412667 113.668,160.366 C113.668,160.216666 113.812665,160.081334 114.102,159.96 L114.354,159.61 L114.438,159.372 L114.592,159.372 C114.704001,159.185332 114.783333,159.045334 114.83,158.952 L115.026,158.868 L115.124,158.882 L115.096,158.602 L114.97,158.322 L115.166,158.028 L115.278,157.678 C115.362,157.678 115.441333,157.673333 115.516,157.664 C115.590667,157.654667 115.623333,157.65 115.614,157.65 C115.67,157.65 115.800666,157.696666 116.006,157.79 L116.034,157.902 L116.188,158.028 L116.202,158.14 L116.342,158.252 L116.272,158.322 C116.412001,158.378 116.482,158.457333 116.482,158.56 C116.482,158.597334 116.472667,158.644 116.454,158.7 L116.454,158.924 L116.622,159.176 L116.538,159.246 L116.524,159.316 L116.552,159.33 L116.594,159.554 L116.79,159.708 L116.636,159.904 L116.566,160.212 L116.664,160.436 L116.636,160.758 L116.762,161.178 C116.818,161.364668 116.846,161.513999 116.846,161.626 C116.846,161.691334 116.804,161.779999 116.72,161.892 C116.785334,161.929334 116.818,161.985333 116.818,162.06 C116.818,162.125334 116.79,162.209333 116.734,162.312 L116.79,162.368 L116.748,163.152 L116.902,163.586 L116.902,164.048 C116.958,164.132 117.004666,164.225333 117.042,164.328 C117.060667,164.356 117.163332,164.467999 117.35,164.664 C117.452667,164.776001 117.508667,164.878666 117.518,164.972 Z M123.608,161.724 L123.524,161.976 C123.524,162.218668 123.51,162.409999 123.482,162.55 L123.398,162.69 L123.398,162.844 L123.328,162.942 L123.286,163.138 L123.132,163.292 L123.034,163.642 L122.922,163.684 L122.866,163.838 L122.698,163.936 L122.586,164.174 L122.418,164.258 L122.404,164.426 L122.138,164.524 C122.016666,164.692001 121.867334,164.799333 121.69,164.846 L121.634,164.86 C121.503333,165.056001 121.330668,165.154 121.116,165.154 C121.022666,165.21 120.915334,165.238 120.794,165.238 L120.654,165.336 L120.514,165.378 L120.332,165.518 L120.15,165.504 L119.954,165.56 L119.716,165.462 L119.114,165.42 L118.904,165.098 L118.596,164.776 L118.666,164.552 L118.456,164.076 L118.554,163.894 L118.484,163.558 L118.554,163.348 C118.535333,163.217333 118.526,163.124 118.526,163.068 C118.526,162.890666 118.572666,162.76 118.666,162.676 C118.675333,162.582666 118.735999,162.428668 118.848,162.214 L118.918,162.214 L118.89,162.116 L118.932,161.92 L118.932,161.71 C119.006667,161.626 119.048667,161.57 119.058,161.542 L119.016,161.346 L119.016,161.29 C119.081334,161.159333 119.114,161.024001 119.114,160.884 L119.408,160.478 L119.443,160.45 C119.466333,160.431333 119.487333,160.412667 119.506,160.394 L119.492,160.338 L119.548,160.338 L119.758,160.1 L119.772,159.778 L120.122,159.652 C120.252667,159.568 120.336666,159.428001 120.374,159.232 L120.556,159.232 C120.658667,159.176 120.752,159.148 120.836,159.148 C120.92,159.148 120.999333,159.166666 121.074,159.204 L121.228,159.218 L121.592,159.078 L121.788,159.26 L121.942,159.358 L122.054,159.358 L122.264,159.47 L122.376,159.47 C122.497334,159.582001 122.637333,159.735999 122.796,159.932 L122.824,160.002 L122.922,160.058 L123.216,160.436 L123.482,161.094 L123.482,161.234 L123.608,161.724 Z M122.684,162.06 L122.67,161.99 C122.604666,161.924666 122.567333,161.854667 122.558,161.78 L122.6,161.71 L122.474,161.444 L122.502,161.178 L122.446,161.108 C122.324666,161.014666 122.259333,160.94 122.25,160.884 C122.166,160.846666 122.124,160.753334 122.124,160.604 L122.04,160.59 L121.872,160.31 L121.746,160.212 L121.452,160.1 L121.34,160.072 C121.284,160.072 121.246667,160.053334 121.228,160.016 L120.948,160.324 L120.766,160.716 L120.472,160.87 L120.43,161.024 L120.29,161.094 L120.234,161.458 L120.066,161.542 C120.028666,161.672667 120.01,161.793999 120.01,161.906 L119.786,162.116 L119.856,162.158 C119.856,162.270001 119.814,162.368 119.73,162.452 C119.702,162.536 119.664667,162.629333 119.618,162.732 L119.618,162.844 L119.576,162.9 L119.59,163.068 L119.436,163.446 L119.464,163.516 L119.464,163.908 L119.408,164.104 L119.422,164.3 L119.548,164.482 L119.744,164.552 L119.814,164.58 L119.926,164.524 L120.29,164.552 L120.346,164.412 L120.402,164.412 C120.458,164.412 120.490667,164.426 120.5,164.454 L120.626,164.412 L120.738,164.454 L120.92,164.328 L120.948,164.286 L121.074,164.258 C121.139334,164.155333 121.293332,164.052667 121.536,163.95 L121.564,163.88 L121.844,163.684 L121.998,163.46 L122.222,163.348 L122.236,163.278 L122.306,163.124 L122.306,162.942 L122.474,162.802 L122.53,162.704 L122.6,162.62 C122.562666,162.507999 122.544,162.428667 122.544,162.382 C122.544,162.298 122.572,162.209334 122.628,162.116 L122.684,162.06 Z M131.196,163.992 L131.028,164.58 L130.916,164.748 C130.766666,164.972001 130.622001,165.084 130.482,165.084 C130.369999,165.084 130.220668,165.004667 130.034,164.846 L129.754,164.44 L129.628,164.188 L129.572,163.936 L129.446,163.516 L129.446,162.9 L129.404,162.368 L129.446,162.074 L129.418,161.99 L129.068,162.48 L129.026,162.48 L129.012,162.522 L128.774,162.9 L128.382,163.32 L128.088,163.726 L127.78,164.02 C127.696,164.169334 127.598001,164.299999 127.486,164.412 L127.206,164.608 L127.038,164.832 L126.73,164.93 L126.604,165.084 L126.296,165.14 L126.044,165.294 L126.002,165.28 L125.974,165.35 L125.54,165.294 L125.022,164.93 C124.881999,164.771333 124.793334,164.598668 124.756,164.412 C124.774667,164.402667 124.793333,164.386333 124.812,164.363 C124.830667,164.339667 124.844667,164.323333 124.854,164.314 C124.844667,164.304667 124.793334,164.281334 124.7,164.244 L124.574,163.964 L124.644,163.866 L124.574,163.698 L124.644,163.502 L124.616,163.25 L124.714,162.844 L124.714,162.41 L124.812,162.284 L124.812,161.99 L124.91,161.808 L124.938,161.598 L124.966,161.57 L124.966,161.388 L125.106,161.164 L125.134,160.968 L125.218,160.828 L125.26,160.744 L125.316,160.408 L125.414,160.114 L125.484,160.044 L125.512,159.862 L125.694,159.666 C125.712667,159.619333 125.754666,159.521334 125.82,159.372 L126.17,159.218 L126.394,158.98 L127.038,158.798 C127.140667,158.798 127.22,158.793333 127.276,158.784 L127.374,158.84 L127.402,158.728 L127.724,158.7 L127.836,158.742 L127.934,158.728 L128.018,158.798 L128.284,158.812 L128.34,158.77 L128.41,158.826 L128.55,158.84 L128.55,158.938 L128.606,158.98 L128.886,159.036 L129.096,159.274 L129.376,159.484 L129.446,159.624 L129.46,159.638 L129.516,159.442 L129.6,159.26 L129.572,158.938 L129.628,158.35 L129.544,158.126 L129.656,157.958 L129.6,157.804 L129.642,157.412 L129.6,157.076 L129.474,156.978 L129.67,156.754 L129.67,156.6 C129.67,156.441333 129.609334,156.268668 129.488,156.082 L129.572,156.082 L129.726,155.858 C129.866001,155.83 129.991999,155.816 130.104,155.816 C130.234667,155.816 130.342,155.844 130.426,155.9 C130.575334,155.946667 130.65,156.170665 130.65,156.572 L130.58,156.572 L130.566,156.628 L130.692,156.74 L130.608,156.964 L130.734,157.23 L130.664,157.314 C130.692,157.379334 130.706,157.444666 130.706,157.51 C130.706,157.575334 130.692,157.645333 130.664,157.72 L130.734,157.804 C130.752667,157.841334 130.762,157.902 130.762,157.986 C130.762,158.088667 130.738667,158.182 130.692,158.266 C130.645333,158.854003 130.603334,159.217999 130.566,159.358 C130.575333,159.386 130.58,159.428 130.58,159.484 C130.58,159.558667 130.566,159.638 130.538,159.722 L130.538,159.806 C130.538,159.918001 130.519334,160.043999 130.482,160.184 L130.44,160.604 L130.37,160.716 L130.412,160.842 L130.342,161.052 L130.412,161.234 L130.3,161.668 L130.37,161.99 L130.328,162.172 L130.356,162.452 C130.384,162.517334 130.398,162.578 130.398,162.634 C130.398,162.680667 130.393333,162.718 130.384,162.746 L130.468,162.83 L130.356,163.11 L130.468,163.404 L130.426,163.488 L130.468,163.572 L130.426,163.656 L130.468,163.698 L130.594,163.81 L130.832,163.838 L131.196,163.992 Z M129.11,160.576 L129.054,160.548 C128.988666,160.510666 128.930334,160.45 128.879,160.366 C128.827666,160.282 128.778667,160.198 128.732,160.114 C128.638666,160.086 128.559334,160.025334 128.494,159.932 L128.41,159.932 L128.158,159.778 L127.836,159.708 L127.528,159.75 L127.206,159.834 L127.108,159.75 L126.996,159.792 L126.996,159.848 L126.87,159.876 C126.786,160.025334 126.655334,160.155999 126.478,160.268 L126.366,160.506 L126.254,160.59 L126.156,160.814 L126.114,161.276 L125.988,161.388 L125.988,161.64 L125.848,161.738 L125.876,162.074 L125.638,162.536 L125.596,162.76 L125.568,163.124 L125.652,163.278 L125.554,163.432 L125.638,163.53 L125.498,163.782 L125.568,163.908 L125.624,164.076 L125.708,164.132 L125.806,164.132 L125.932,164.02 L126.044,164.034 L126.282,163.936 L126.31,163.852 L126.576,163.754 L126.604,163.67 L126.772,163.572 L126.772,163.544 L127.122,163.18 L127.29,163.11 L127.374,162.928 L127.556,162.9 L127.78,162.648 L127.738,162.62 L127.836,162.522 L127.976,162.228 L128.102,162.102 L128.172,161.794 L128.396,161.724 L128.55,161.5 L128.606,161.458 L128.606,161.206 L128.816,161.108 L129.11,160.576 Z M140.408,164.188 C140.408,164.300001 140.324001,164.435333 140.156,164.594 L140.044,164.636 L139.946,164.762 L139.694,164.832 C139.647333,164.897334 139.600667,164.93 139.554,164.93 C139.544667,164.93 139.535333,164.925333 139.526,164.916 L139.484,164.916 C139.278666,165.018667 139.031335,165.07 138.742,165.07 L138.63,165.07 L138.28,165 L138.042,164.888 L137.51,164.44 L137.398,164.062 L137.174,163.88 C137.202,163.842666 137.216,163.782 137.216,163.698 C137.216,163.642 137.178667,163.548667 137.104,163.418 L137.146,163.082 L137.146,163.026 C137.146,162.913999 137.113334,162.769334 137.048,162.592 L137.132,162.172 L136.95,162.536 L136.74,162.564 L136.712,162.858 C136.637333,162.895334 136.548667,162.914 136.446,162.914 L136.292,163.25 L136.11,163.46 C136.035333,163.544 135.97,163.590667 135.914,163.6 L135.872,163.628 L135.368,164.146 L135.312,164.146 L135.046,164.454 L134.794,164.58 L134.654,164.762 L134.332,164.86 L133.87,165.042 L133.59,164.902 C133.403332,164.902 133.272667,164.818001 133.198,164.65 L133.072,164.58 C133.072,164.552 133.076667,164.514667 133.086,164.468 L133.086,164.37 L132.862,164.174 L132.918,164.09 L132.75,163.698 L132.806,163.642 L132.778,163.614 L132.778,163.53 C132.768667,163.502 132.764,163.478667 132.764,163.46 C132.764,163.357333 132.778,163.259334 132.806,163.166 L132.82,162.802 L132.764,162.508 C132.810667,162.433333 132.834,162.368 132.834,162.312 C132.834,162.246666 132.806,162.186 132.75,162.13 L132.904,162.018 L132.904,161.85 L132.848,161.388 L133.002,160.492 C133.002,160.342666 132.96,160.123335 132.876,159.834 C132.904,159.535332 133.099998,159.372 133.464,159.344 L133.576,159.386 L133.772,159.414 L134.024,159.694 L133.94,160.058 L133.912,160.66 L133.954,161.122 L133.87,161.29 L133.912,161.402 L133.842,161.626 L133.842,161.766 L133.814,161.808 C133.823333,161.836 133.828,161.878 133.828,161.934 C133.828,162.055334 133.809334,162.181333 133.772,162.312 L133.842,162.41 L133.786,162.62 L133.814,162.788 L133.814,162.984 C133.860667,163.04 133.884,163.11 133.884,163.194 C133.884,163.268667 133.865334,163.343333 133.828,163.418 L133.828,163.474 C133.874667,163.632667 133.898,163.735333 133.898,163.782 L134.024,163.908 C134.08,163.870666 134.145333,163.824 134.22,163.768 C134.248,163.674666 134.313333,163.614 134.416,163.586 L134.416,163.446 C134.472,163.446 134.560666,163.432 134.682,163.404 L134.71,163.278 L134.948,163.18 L134.99,163.138 C135.055334,163.072666 135.162666,163.012 135.312,162.956 L135.312,162.9 L135.578,162.704 C135.643334,162.526666 135.759999,162.41 135.928,162.354 C136.030667,162.251333 136.100666,162.190667 136.138,162.172 L136.32,161.934 L136.32,161.892 L136.376,161.864 L136.502,161.808 L136.572,161.612 L136.866,161.486 L136.922,161.472 L137.02,161.374 L137.02,161.248 L137.104,161.22 C137.132,161.070666 137.206666,160.958667 137.328,160.884 L137.538,160.408 L137.608,160.156 L137.636,160.1 L137.692,160.1 L137.79,160.03 L137.706,160.002 C137.808667,159.833999 137.888,159.656668 137.944,159.47 L138.35,159.456 L138.672,159.722 L138.812,159.946 L138.658,160.548 L138.448,160.828 L138.28,161.374 L138.14,161.458 L138.14,161.668 L138.056,161.822 L138.098,162.074 L137.986,162.172 L138.042,162.62 L138.07,163.25 L138.14,163.25 L138.14,163.614 L138.336,163.852 L138.518,163.95 L138.532,164.02 C138.597334,164.029333 138.676666,164.052666 138.77,164.09 L139.12,164.118 L139.33,164.062 L139.708,163.88 C139.782667,163.842666 139.875999,163.824 139.988,163.824 C140.268001,163.824 140.408,163.945332 140.408,164.188 Z M145.14,163.474 C145.14,163.576667 145.102667,163.660666 145.028,163.726 C144.953333,163.838001 144.832001,163.954666 144.664,164.076 L144.524,164.174 L144.398,164.342 L144.272,164.398 L144.076,164.524 L143.936,164.538 L143.88,164.594 C143.693332,164.65 143.548667,164.743333 143.446,164.874 C143.380666,164.920667 143.32,164.944 143.264,164.944 C143.226666,164.944 143.194,164.939333 143.166,164.93 C143.007333,165.023334 142.802001,165.07 142.55,165.07 C142.335332,165.07 142.195334,165.051334 142.13,165.014 L141.878,164.874 L141.794,164.734 L141.794,164.692 C141.794,164.570666 141.742667,164.472667 141.64,164.398 L141.584,164.118 L141.472,163.992 L141.402,163.474 L141.388,163.166 L141.402,162.942 L141.43,162.858 C141.402,162.802 141.388,162.741334 141.388,162.676 C141.434667,162.283998 141.458,162.036667 141.458,161.934 L141.332,161.682 L141.458,161.472 L141.5,161.122 L141.472,160.884 L141.556,160.674 L141.472,160.394 L141.598,160.198 L141.612,160.072 L141.612,159.582 L141.654,159.484 L141.64,158.896 L141.682,158.294 L141.626,158.182 L141.612,157.762 L141.654,157.384 L141.612,157.244 L141.696,156.404 C142.088002,156.310666 142.260667,156.264 142.214,156.264 C142.363334,156.264 142.484666,156.343333 142.578,156.502 L142.606,156.614 L142.816,156.824 L142.704,157.118 L142.732,157.174 C142.713333,157.351334 142.69,157.468 142.662,157.524 L142.69,157.818 L142.76,158.084 L142.662,158.378 C142.662,158.536667 142.638667,158.681333 142.592,158.812 C142.592,158.858667 142.582667,158.933333 142.564,159.036 L142.55,159.12 L142.676,159.274 L142.62,159.428 C142.638667,159.502667 142.648,159.554 142.648,159.582 C142.648,159.638 142.629334,159.712666 142.592,159.806 L142.62,159.932 L142.536,160.38 L142.536,160.674 L142.438,160.968 L142.494,161.234 L142.438,161.85 L142.48,161.92 L142.41,162.242 L142.382,162.634 C142.363333,162.69 142.354,162.722667 142.354,162.732 C142.354,162.890667 142.349333,163.021333 142.34,163.124 L142.41,163.32 L142.382,163.53 L142.466,163.712 L142.452,163.782 C142.508,163.828667 142.559333,163.903333 142.606,164.006 L142.732,164.006 L142.914,164.062 L142.998,163.95 L143.124,163.936 C143.18,163.917333 143.222,163.908 143.25,163.908 L143.292,163.908 C143.385334,163.889333 143.46,163.842667 143.516,163.768 L143.6,163.726 C143.665334,163.623333 143.772666,163.553334 143.922,163.516 C143.968667,163.478666 144.057333,163.404001 144.188,163.292 C144.188,163.161333 144.267333,163.063334 144.426,162.998 C144.566001,162.998 144.659333,162.974667 144.706,162.928 C144.892668,162.956 145.011666,163.005 145.063,163.075 C145.114334,163.145 145.14,163.277999 145.14,163.474 Z M150.236,163.852 C150.236,163.964001 150.152001,164.103999 149.984,164.272 C149.937333,164.421334 149.867334,164.542666 149.774,164.636 L149.69,164.65 L149.536,164.916 L149.284,164.958 L149.018,165.126 L148.878,165.378 L148.724,165.35 C148.621333,165.396667 148.537334,165.424667 148.472,165.434 L148.388,165.56 C148.36,165.550667 148.318,165.546 148.262,165.546 C148.140666,165.546 148.024001,165.629999 147.912,165.798 L147.716,165.63 C147.678666,165.639333 147.622667,165.644 147.548,165.644 C147.426666,165.644 147.324,165.625334 147.24,165.588 L147.002,165.588 L146.89,165.518 C146.535332,165.462 146.311334,165.326668 146.218,165.112 L146.218,165.07 L146.05,164.986 L145.966,164.748 L145.798,164.636 L145.798,164.426 L145.63,163.81 L145.658,163.306 L145.714,163.082 L145.714,162.788 L145.784,162.564 L145.77,162.466 L145.868,162.298 L145.84,162.326 C145.84,162.242 145.863333,162.153334 145.91,162.06 L145.91,161.99 L145.868,161.654 C145.868,161.495333 145.937999,161.355334 146.078,161.234 C146.087333,161.215333 146.092,161.187334 146.092,161.15 C146.092,161.112666 146.075667,161.035667 146.043,160.919 C146.010333,160.802333 145.994,160.720667 145.994,160.674 C145.994,160.561999 146.022,160.445334 146.078,160.324 C146.152667,160.436001 146.259999,160.492 146.4,160.492 L146.442,160.492 C146.460667,160.454666 146.502666,160.412667 146.568,160.366 C146.642667,160.132666 146.745333,159.936667 146.876,159.778 L146.932,159.722 C146.932,159.684666 146.96,159.577334 147.016,159.4 L147.128,159.4 L147.156,159.33 L147.268,159.302 C147.314667,159.227333 147.345,159.183 147.359,159.169 C147.373,159.155 147.473332,159.096667 147.66,158.994 C147.697334,158.928666 147.753333,158.868 147.828,158.812 C147.865334,158.793333 147.912,158.774667 147.968,158.756 L148.024,158.672 C148.276001,158.588 148.434666,158.546 148.5,158.546 C148.574667,158.546 148.644666,158.564666 148.71,158.602 L148.78,158.588 L148.878,158.644 C148.990001,158.728 149.101999,158.798 149.214,158.854 L149.452,159.036 L149.452,159.092 C149.666668,159.260001 149.774,159.497998 149.774,159.806 L149.732,159.946 L149.774,160.408 L149.648,160.492 L149.508,160.856 L149.242,161.15 L149.228,161.374 C148.929332,161.588668 148.654001,161.761333 148.402,161.892 C148.318,162.022667 148.187334,162.088 148.01,162.088 L147.968,162.088 L147.702,162.256 L147.478,162.256 L147.142,162.396 L146.89,162.27 L146.862,162.27 C146.843333,162.344667 146.824667,162.456666 146.806,162.606 L146.694,162.69 L146.68,162.858 L146.596,163.096 C146.624,163.320001 146.638,163.464666 146.638,163.53 L146.582,163.572 C146.582,163.693334 146.577333,163.782 146.568,163.838 C146.568,163.847333 146.563333,163.861333 146.554,163.88 L146.554,163.922 C146.554,163.996667 146.591333,164.057333 146.666,164.104 C146.694,164.216001 146.740666,164.286 146.806,164.314 L146.904,164.398 L147.212,164.482 L147.212,164.524 L147.324,164.552 L147.8,164.58 L148.08,164.538 L148.22,164.44 L148.304,164.412 L148.444,164.202 L148.514,164.188 L148.864,164.076 C148.901334,164.010666 148.962,163.954667 149.046,163.908 L149.088,163.838 C149.274668,163.800666 149.382,163.702667 149.41,163.544 C149.540667,163.413333 149.708666,163.348 149.914,163.348 L149.97,163.348 C150.147334,163.553334 150.236,163.721333 150.236,163.852 Z M148.85,159.82 C148.85,159.792 148.836,159.736 148.808,159.652 L148.738,159.638 L148.71,159.652 L148.654,159.652 C148.635333,159.661333 148.616667,159.666 148.598,159.666 C148.588667,159.666 148.574667,159.661333 148.556,159.652 L148.514,159.652 L148.374,159.75 L148.248,159.764 L148.178,159.792 L147.94,160.1 L147.786,160.212 L147.562,160.604 L147.436,160.688 C147.408,160.846667 147.342667,160.981999 147.24,161.094 L147.184,161.192 C147.286667,161.126666 147.403333,161.094 147.534,161.094 L147.632,161.052 L147.674,160.926 L147.87,160.94 L147.982,160.772 L148.066,160.772 L148.22,160.828 L148.29,160.618 L148.388,160.618 L148.388,160.464 L148.57,160.422 L148.612,160.38 L148.64,160.254 L148.822,159.988 C148.840667,159.941333 148.85,159.885334 148.85,159.82 Z M162.738,162.2 L162.738,162.242 C162.728667,162.260667 162.724,162.274667 162.724,162.284 L162.668,162.424 L162.626,162.634 L162.346,163.012 L162.248,163.222 L161.954,163.348 L161.856,163.474 L161.464,163.586 L161.212,163.726 L161.086,163.726 L161.002,163.852 L160.638,163.852 C160.525999,163.992001 160.353334,164.062 160.12,164.062 C160.082666,164.024666 160.059333,164.006 160.05,164.006 C160.031333,164.006 159.970667,164.038666 159.868,164.104 L159.63,164.076 L159.532,164.118 L159.266,164.09 L159.336,164.132 C159.111999,164.188 158.948667,164.216 158.846,164.216 C158.799333,164.216 158.766667,164.211333 158.748,164.202 C158.477332,164.286 158.258001,164.328 158.09,164.328 C158.080667,164.328 158.057334,164.323333 158.02,164.314 L157.95,164.314 L157.74,164.37 L157.558,164.3 L157.46,164.342 L157.278,164.524 L157.026,164.468 C156.998,164.458667 156.946667,164.44 156.872,164.412 L156.844,164.426 L156.676,164.468 L156.648,164.748 L156.564,164.972 L156.13,165.476 L155.948,165.308 L155.654,165.308 L155.724,164.818 L155.724,164.65 L155.626,164.58 C155.588666,164.598667 155.523334,164.636 155.43,164.692 L155.052,164.692 L154.786,164.51 L154.674,164.188 L154.87,164.006 C155.028667,163.856666 155.247999,163.749334 155.528,163.684 L155.514,163.656 C155.495333,163.6 155.486,163.553334 155.486,163.516 C155.486,163.450666 155.504666,163.385334 155.542,163.32 L155.5,162.676 L155.57,162.508 L155.57,162.214 L155.64,162.06 L155.472,161.78 L155.668,161.388 L155.598,160.548 L155.626,160.226 L155.626,160.016 L155.5,159.708 L155.5,159.274 L155.416,159.078 L155.332,159.036 L155.024,159.176 L154.492,159.218 C154.323999,159.218 154.202667,159.059335 154.128,158.742 L154.03,158.308 C154.263334,158.111999 154.477999,158.014 154.674,158.014 L154.702,158.014 C154.972668,157.939333 155.215332,157.902 155.43,157.902 C155.458,157.902 155.5,157.913667 155.556,157.937 C155.612,157.960333 155.663333,157.972 155.71,157.972 C155.700667,157.972 155.817332,157.944 156.06,157.888 L156.116,158.042 L156.312,158 L156.438,158.042 L156.62,158 L157.166,158.126 L157.348,158.238 L157.754,158.168 L157.908,158.406 L157.992,158.42 L158.23,158.574 L158.37,158.588 L158.538,158.658 L158.594,158.658 C158.743334,158.658 158.873999,158.7 158.986,158.784 C159.256668,158.858667 159.466666,158.979999 159.616,159.148 C159.690667,159.166667 159.756,159.19 159.812,159.218 C159.933334,159.311334 160.059333,159.362667 160.19,159.372 L160.582,159.652 L160.96,159.974 L160.918,160.016 L161.24,159.988 L161.38,160.086 L161.422,160.296 C161.674001,160.501334 161.921332,160.753332 162.164,161.052 C162.173333,161.08 162.182667,161.112666 162.192,161.15 L162.416,161.276 L162.416,161.626 L162.542,161.752 C162.542,161.826667 162.546667,161.873333 162.556,161.892 L162.598,161.92 C162.691334,162.032001 162.738,162.125333 162.738,162.2 Z M161.646,162.298 L161.604,162.032 L161.17,161.486 L161.03,161.486 L160.876,161.108 C160.670666,161.014666 160.530667,160.94 160.456,160.884 L160.414,160.716 L160.344,160.66 L159.924,160.534 L159.798,160.31 L158.804,159.764 L158.734,159.764 C158.706,159.773333 158.682667,159.778 158.664,159.778 C158.523999,159.778 158.398001,159.736 158.286,159.652 L158.244,159.54 L157.978,159.54 L157.908,159.484 L157.726,159.442 C157.698,159.451333 157.660667,159.456 157.614,159.456 C157.53,159.456 157.478667,159.437334 157.46,159.4 L157.446,159.358 L157.278,159.246 L157.026,159.232 C156.932666,159.138666 156.834667,159.092 156.732,159.092 L156.634,159.316 L156.564,159.316 L156.718,159.652 L156.634,159.764 C156.708667,159.941334 156.746,160.053333 156.746,160.1 L156.746,160.17 C156.746,160.235334 156.736667,160.291333 156.718,160.338 L156.844,160.702 L156.718,160.744 L156.732,160.828 L156.732,161.29 C156.732,161.308667 156.713334,161.411332 156.676,161.598 L156.774,161.682 L156.62,162.102 L156.662,162.41 L156.536,162.676 L156.662,162.872 L156.634,163.152 L156.704,163.32 L156.62,163.516 L156.634,163.572 L156.774,163.558 L157.25,163.488 C157.362001,163.450666 157.483333,163.432 157.614,163.432 C157.754001,163.432 157.875333,163.450666 157.978,163.488 C158.164668,163.488 158.374665,163.422667 158.608,163.292 C159.056002,163.264 159.228667,163.25 159.126,163.25 C159.163334,163.25 159.205333,163.254667 159.252,163.264 C159.298667,163.273333 159.331333,163.278 159.35,163.278 C159.452667,163.278 159.522666,163.254667 159.56,163.208 L159.784,163.152 C159.924001,163.058666 160.054666,163.012 160.176,163.012 C160.222667,163.012 160.278666,163.026 160.344,163.054 C160.418667,163.026 160.474666,163.012 160.512,163.012 L160.666,162.802 L160.89,162.858 L160.988,162.816 L161.184,162.676 L161.268,162.676 L161.632,162.41 L161.646,162.298 Z M168.128,163.852 C168.128,163.964001 168.044001,164.103999 167.876,164.272 C167.829333,164.421334 167.759334,164.542666 167.666,164.636 L167.582,164.65 L167.428,164.916 L167.176,164.958 L166.91,165.126 L166.77,165.378 L166.616,165.35 C166.513333,165.396667 166.429334,165.424667 166.364,165.434 L166.28,165.56 C166.252,165.550667 166.21,165.546 166.154,165.546 C166.032666,165.546 165.916001,165.629999 165.804,165.798 L165.608,165.63 C165.570666,165.639333 165.514667,165.644 165.44,165.644 C165.318666,165.644 165.216,165.625334 165.132,165.588 L164.894,165.588 L164.782,165.518 C164.427332,165.462 164.203334,165.326668 164.11,165.112 L164.11,165.07 L163.942,164.986 L163.858,164.748 L163.69,164.636 L163.69,164.426 L163.522,163.81 L163.55,163.306 L163.606,163.082 L163.606,162.788 L163.676,162.564 L163.662,162.466 L163.76,162.298 L163.732,162.326 C163.732,162.242 163.755333,162.153334 163.802,162.06 L163.802,161.99 L163.76,161.654 C163.76,161.495333 163.829999,161.355334 163.97,161.234 C163.979333,161.215333 163.984,161.187334 163.984,161.15 C163.984,161.112666 163.967667,161.035667 163.935,160.919 C163.902333,160.802333 163.886,160.720667 163.886,160.674 C163.886,160.561999 163.914,160.445334 163.97,160.324 C164.044667,160.436001 164.151999,160.492 164.292,160.492 L164.334,160.492 C164.352667,160.454666 164.394666,160.412667 164.46,160.366 C164.534667,160.132666 164.637333,159.936667 164.768,159.778 L164.824,159.722 C164.824,159.684666 164.852,159.577334 164.908,159.4 L165.02,159.4 L165.048,159.33 L165.16,159.302 C165.206667,159.227333 165.237,159.183 165.251,159.169 C165.265,159.155 165.365332,159.096667 165.552,158.994 C165.589334,158.928666 165.645333,158.868 165.72,158.812 C165.757334,158.793333 165.804,158.774667 165.86,158.756 L165.916,158.672 C166.168001,158.588 166.326666,158.546 166.392,158.546 C166.466667,158.546 166.536666,158.564666 166.602,158.602 L166.672,158.588 L166.77,158.644 C166.882001,158.728 166.993999,158.798 167.106,158.854 L167.344,159.036 L167.344,159.092 C167.558668,159.260001 167.666,159.497998 167.666,159.806 L167.624,159.946 L167.666,160.408 L167.54,160.492 L167.4,160.856 L167.134,161.15 L167.12,161.374 C166.821332,161.588668 166.546001,161.761333 166.294,161.892 C166.21,162.022667 166.079334,162.088 165.902,162.088 L165.86,162.088 L165.594,162.256 L165.37,162.256 L165.034,162.396 L164.782,162.27 L164.754,162.27 C164.735333,162.344667 164.716667,162.456666 164.698,162.606 L164.586,162.69 L164.572,162.858 L164.488,163.096 C164.516,163.320001 164.53,163.464666 164.53,163.53 L164.474,163.572 C164.474,163.693334 164.469333,163.782 164.46,163.838 C164.46,163.847333 164.455333,163.861333 164.446,163.88 L164.446,163.922 C164.446,163.996667 164.483333,164.057333 164.558,164.104 C164.586,164.216001 164.632666,164.286 164.698,164.314 L164.796,164.398 L165.104,164.482 L165.104,164.524 L165.216,164.552 L165.692,164.58 L165.972,164.538 L166.112,164.44 L166.196,164.412 L166.336,164.202 L166.406,164.188 L166.756,164.076 C166.793334,164.010666 166.854,163.954667 166.938,163.908 L166.98,163.838 C167.166668,163.800666 167.274,163.702667 167.302,163.544 C167.432667,163.413333 167.600666,163.348 167.806,163.348 L167.862,163.348 C168.039334,163.553334 168.128,163.721333 168.128,163.852 Z M166.742,159.82 C166.742,159.792 166.728,159.736 166.7,159.652 L166.63,159.638 L166.602,159.652 L166.546,159.652 C166.527333,159.661333 166.508667,159.666 166.49,159.666 C166.480667,159.666 166.466667,159.661333 166.448,159.652 L166.406,159.652 L166.266,159.75 L166.14,159.764 L166.07,159.792 L165.832,160.1 L165.678,160.212 L165.454,160.604 L165.328,160.688 C165.3,160.846667 165.234667,160.981999 165.132,161.094 L165.076,161.192 C165.178667,161.126666 165.295333,161.094 165.426,161.094 L165.524,161.052 L165.566,160.926 L165.762,160.94 L165.874,160.772 L165.958,160.772 L166.112,160.828 L166.182,160.618 L166.28,160.618 L166.28,160.464 L166.462,160.422 L166.504,160.38 L166.532,160.254 L166.714,159.988 C166.732667,159.941333 166.742,159.885334 166.742,159.82 Z M174.414,162.928 L174.246,163.348 L174.358,163.628 L174.302,163.712 L174.246,163.936 L174.134,164.132 L174.078,164.16 L174.05,164.426 L173.798,164.454 C173.667333,164.575334 173.532001,164.673333 173.392,164.748 L173.308,164.734 L173.098,164.804 L172.972,164.818 L172.706,164.916 L172.398,164.776 L172.356,164.748 L172.118,164.762 L172.174,164.79 L171.782,164.734 L171.432,164.818 L171.292,164.692 L170.998,164.72 L170.886,164.636 C170.876667,164.636 170.839334,164.640667 170.774,164.65 L170.774,164.734 C170.774,164.818 170.76,164.902 170.732,164.986 L170.774,165.252 L170.662,165.392 C170.680667,165.597334 170.69,165.751333 170.69,165.854 L170.648,166.204 L170.704,166.736 L170.592,166.876 L170.648,167.086 L170.606,167.226 L170.69,167.268 L170.69,167.478 C170.708667,167.534 170.718,167.576 170.718,167.604 C170.718,167.688 170.666667,167.758 170.564,167.814 L170.62,168.01 L170.55,168.122 L170.522,168.682 C170.494,169.335337 170.349335,169.662 170.088,169.662 C170.032,169.662 169.868668,169.624667 169.598,169.55 L169.64,169.13 L169.556,168.514 L169.696,168.262 L169.71,167.954 L169.654,167.534 L169.766,167.352 L169.64,167.03 L169.738,166.862 L169.654,166.582 L169.766,166.33 C169.747333,166.274 169.712334,166.222667 169.661,166.176 C169.609666,166.129333 169.584,166.096667 169.584,166.078 C169.584,166.05 169.616666,166.022 169.682,165.994 C169.672667,165.966 169.668,165.919334 169.668,165.854 C169.668,165.732666 169.696,165.574001 169.752,165.378 L169.668,165.238 L169.71,165.056 L169.612,164.93 L169.738,164.776 L169.682,164.37 L169.766,163.796 L169.668,163.614 L169.822,163.348 L169.654,163.194 L169.752,162.928 L169.654,162.858 L169.668,162.62 L169.752,162.326 L169.752,162.27 L169.766,162.214 L169.766,162.06 L169.78,162.004 L169.71,161.78 L169.78,161.542 L169.71,161.36 L169.766,161.15 L169.71,161.094 L169.752,160.814 L169.71,160.66 L169.738,160.52 L169.696,160.422 L169.192,160.646 L169.192,160.562 L169.094,160.576 L168.94,160.716 L168.814,160.716 L168.646,160.94 L168.506,160.884 L168.436,161.024 C167.978664,160.753332 167.75,160.538667 167.75,160.38 C167.75,160.267999 167.792,160.174667 167.876,160.1 L167.862,159.89 C168.123335,159.740666 168.370665,159.661333 168.604,159.652 L168.702,159.554 L169.15,159.372 L169.248,159.274 L169.64,159.302 L169.71,159.274 L169.836,158.784 L170.172,158.854 L170.396,159.218 L170.522,159.092 L170.774,159.274 C170.895334,159.274 171.011999,159.297333 171.124,159.344 L171.194,159.47 L171.292,159.428 L171.404,159.512 C171.469334,159.512 171.520666,159.516667 171.558,159.526 L171.544,159.61 L171.852,159.512 L172.006,159.68 L172.272,159.764 L172.454,159.988 L172.79,160.198 L172.804,160.226 L173.07,160.31 L173.07,160.394 C173.144667,160.45 173.200666,160.524666 173.238,160.618 L173.35,160.688 L173.434,160.842 L173.602,160.842 L173.602,161.122 L173.7,161.22 L173.728,161.318 L173.868,161.346 C173.886667,161.560668 173.947333,161.742666 174.05,161.892 L174.05,161.99 L174.19,162.13 L174.162,162.354 L174.274,162.606 L174.316,162.9 L174.414,162.928 Z M173.364,163.138 L173.35,163.068 L173.364,163.012 L173.28,162.76 L173.336,162.634 L173.28,162.522 L173.266,162.382 L173.154,162.158 L173.098,162.004 L172.888,161.64 L172.72,161.5 L172.622,161.262 L172.496,161.206 L172.272,160.912 L172.048,160.94 L171.88,160.716 L171.74,160.744 L171.642,160.562 L171.586,160.548 L171.39,160.548 L171.25,160.618 L171.138,160.506 L170.998,160.534 L170.942,160.436 L170.69,160.394 L170.704,160.562 L170.676,160.828 L170.732,160.982 L170.928,161.164 L170.774,161.5 L170.788,161.71 L170.718,162.13 C170.746,162.307334 170.802,162.456666 170.886,162.578 L170.83,162.732 C170.839333,162.741333 170.844,162.750667 170.844,162.76 C170.844,162.788 170.806667,162.83 170.732,162.886 L170.83,163.012 L170.76,163.18 L170.732,163.362 L170.774,163.558 L170.76,163.74 L171.054,163.74 C171.091334,163.721333 171.142666,163.712 171.208,163.712 C171.292,163.712 171.366666,163.74 171.432,163.796 C171.441333,163.796 171.46,163.791333 171.488,163.782 L171.53,163.782 C171.558,163.782 171.609333,163.791333 171.684,163.81 C171.74,163.782 171.791333,163.768 171.838,163.768 C171.912667,163.768 171.982666,163.786666 172.048,163.824 L172.174,163.824 L172.286,163.852 L172.566,163.768 L172.79,163.908 C172.874,163.936 172.906667,163.95 172.888,163.95 L173.154,163.684 L173.182,163.488 L173.252,163.46 L173.21,163.348 L173.308,163.236 L173.364,163.138 Z M179.958,163.852 C179.958,163.964001 179.874001,164.103999 179.706,164.272 C179.659333,164.421334 179.589334,164.542666 179.496,164.636 L179.412,164.65 L179.258,164.916 L179.006,164.958 L178.74,165.126 L178.6,165.378 L178.446,165.35 C178.343333,165.396667 178.259334,165.424667 178.194,165.434 L178.11,165.56 C178.082,165.550667 178.04,165.546 177.984,165.546 C177.862666,165.546 177.746001,165.629999 177.634,165.798 L177.438,165.63 C177.400666,165.639333 177.344667,165.644 177.27,165.644 C177.148666,165.644 177.046,165.625334 176.962,165.588 L176.724,165.588 L176.612,165.518 C176.257332,165.462 176.033334,165.326668 175.94,165.112 L175.94,165.07 L175.772,164.986 L175.688,164.748 L175.52,164.636 L175.52,164.426 L175.352,163.81 L175.38,163.306 L175.436,163.082 L175.436,162.788 L175.506,162.564 L175.492,162.466 L175.59,162.298 L175.562,162.326 C175.562,162.242 175.585333,162.153334 175.632,162.06 L175.632,161.99 L175.59,161.654 C175.59,161.495333 175.659999,161.355334 175.8,161.234 C175.809333,161.215333 175.814,161.187334 175.814,161.15 C175.814,161.112666 175.797667,161.035667 175.765,160.919 C175.732333,160.802333 175.716,160.720667 175.716,160.674 C175.716,160.561999 175.744,160.445334 175.8,160.324 C175.874667,160.436001 175.981999,160.492 176.122,160.492 L176.164,160.492 C176.182667,160.454666 176.224666,160.412667 176.29,160.366 C176.364667,160.132666 176.467333,159.936667 176.598,159.778 L176.654,159.722 C176.654,159.684666 176.682,159.577334 176.738,159.4 L176.85,159.4 L176.878,159.33 L176.99,159.302 C177.036667,159.227333 177.067,159.183 177.081,159.169 C177.095,159.155 177.195332,159.096667 177.382,158.994 C177.419334,158.928666 177.475333,158.868 177.55,158.812 C177.587334,158.793333 177.634,158.774667 177.69,158.756 L177.746,158.672 C177.998001,158.588 178.156666,158.546 178.222,158.546 C178.296667,158.546 178.366666,158.564666 178.432,158.602 L178.502,158.588 L178.6,158.644 C178.712001,158.728 178.823999,158.798 178.936,158.854 L179.174,159.036 L179.174,159.092 C179.388668,159.260001 179.496,159.497998 179.496,159.806 L179.454,159.946 L179.496,160.408 L179.37,160.492 L179.23,160.856 L178.964,161.15 L178.95,161.374 C178.651332,161.588668 178.376001,161.761333 178.124,161.892 C178.04,162.022667 177.909334,162.088 177.732,162.088 L177.69,162.088 L177.424,162.256 L177.2,162.256 L176.864,162.396 L176.612,162.27 L176.584,162.27 C176.565333,162.344667 176.546667,162.456666 176.528,162.606 L176.416,162.69 L176.402,162.858 L176.318,163.096 C176.346,163.320001 176.36,163.464666 176.36,163.53 L176.304,163.572 C176.304,163.693334 176.299333,163.782 176.29,163.838 C176.29,163.847333 176.285333,163.861333 176.276,163.88 L176.276,163.922 C176.276,163.996667 176.313333,164.057333 176.388,164.104 C176.416,164.216001 176.462666,164.286 176.528,164.314 L176.626,164.398 L176.934,164.482 L176.934,164.524 L177.046,164.552 L177.522,164.58 L177.802,164.538 L177.942,164.44 L178.026,164.412 L178.166,164.202 L178.236,164.188 L178.586,164.076 C178.623334,164.010666 178.684,163.954667 178.768,163.908 L178.81,163.838 C178.996668,163.800666 179.104,163.702667 179.132,163.544 C179.262667,163.413333 179.430666,163.348 179.636,163.348 L179.692,163.348 C179.869334,163.553334 179.958,163.721333 179.958,163.852 Z M178.572,159.82 C178.572,159.792 178.558,159.736 178.53,159.652 L178.46,159.638 L178.432,159.652 L178.376,159.652 C178.357333,159.661333 178.338667,159.666 178.32,159.666 C178.310667,159.666 178.296667,159.661333 178.278,159.652 L178.236,159.652 L178.096,159.75 L177.97,159.764 L177.9,159.792 L177.662,160.1 L177.508,160.212 L177.284,160.604 L177.158,160.688 C177.13,160.846667 177.064667,160.981999 176.962,161.094 L176.906,161.192 C177.008667,161.126666 177.125333,161.094 177.256,161.094 L177.354,161.052 L177.396,160.926 L177.592,160.94 L177.704,160.772 L177.788,160.772 L177.942,160.828 L178.012,160.618 L178.11,160.618 L178.11,160.464 L178.292,160.422 L178.334,160.38 L178.362,160.254 L178.544,159.988 C178.562667,159.941333 178.572,159.885334 178.572,159.82 Z M183.475649,161.827575 L183.766,161.5 C183.730684,161.542379 183.633902,161.651569 183.47565,161.827574 L183.475649,161.827575 Z M183.22,162.116 L183.475649,161.827575 C183.427925,161.880653 183.374609,161.93981 183.315702,162.005043 C183.311826,162.009335 183.307925,162.013655 183.304,162.018 L183.304,162.046 L183.332,161.948 L183.514,161.738 L183.64,161.5 L183.64,161.36 L183.85,161.29 L183.878,161.108 L183.934,161.052 L183.948,160.982 L183.948,160.884 L184.144,160.688 L184.144,160.618 C184.134667,160.59 184.13,160.571333 184.13,160.562 C184.13,160.393999 184.223332,160.300667 184.41,160.282 C184.494,160.113999 184.619999,160.016 184.788,159.988 L184.872,159.862 L184.9,159.834 C184.984,159.712666 185.109999,159.628667 185.278,159.582 L185.404,159.428 L185.74,159.428 L185.908,159.624 L186.062,159.708 L186.076,159.75 L186.174,159.778 L186.202,160.072 L186.44,160.212 L186.342,160.52 L186.496,160.856 L186.496,161.248 L186.608,161.78 L186.636,162.284 L186.762,162.578 L186.846,162.942 C186.902,162.998 186.944,163.077333 186.972,163.18 L187.224,163.25 L187.224,163.53 L187.364,163.684 L187.364,163.726 L187.42,163.74 L187.476,163.824 L187.532,163.754 C187.513333,163.754 187.536666,163.758667 187.602,163.768 C187.704667,163.768 187.811999,163.674668 187.924,163.488 L188.092,163.446 L188.134,163.376 C188.162,163.301333 188.218,163.245334 188.302,163.208 L188.4,163.222 L188.456,163.166 L188.47,163.096 L188.512,163.04 C188.605334,162.974666 188.666,162.876667 188.694,162.746 L188.848,162.578 L188.876,162.452 L188.974,162.228 L189.24,162.13 L189.618,162.256 L189.744,162.662 C189.744,162.671333 189.748667,162.680667 189.758,162.69 L189.758,162.732 C189.758,162.806667 189.697334,162.904666 189.576,163.026 L189.422,163.264 L189.366,163.544 L189.24,163.586 L189.212,163.67 C189.062666,163.716667 188.955334,163.833332 188.89,164.02 C188.787333,164.150667 188.675334,164.244 188.554,164.3 C188.507333,164.346667 188.465334,164.379333 188.428,164.398 L188.358,164.524 L188.232,164.552 L187.868,164.748 L187.392,164.804 L187.266,164.776 L187.056,164.818 L186.972,164.72 C186.841333,164.654666 186.748,164.589334 186.692,164.524 C186.579999,164.496 186.496,164.407334 186.44,164.258 C186.281333,164.071332 186.202,163.922001 186.202,163.81 L186.202,163.768 L186.104,163.6 L186.076,163.572 L185.992,163.32 L185.866,163.054 L185.894,162.732 L185.754,162.55 L185.544,161.346 C185.516,161.187333 185.502,161.052001 185.502,160.94 L185.474,160.87 L185.404,160.772 L185.278,160.94 L184.774,161.472 L184.592,161.766 L184.494,161.962 L184.34,162.186 L184.228,162.298 L184.242,162.368 L184.046,162.802 L183.934,162.942 L183.794,162.97 L183.668,163.096 C183.668,163.282668 183.579334,163.404 183.402,163.46 L183.374,163.488 C183.29,163.693334 183.196667,163.819333 183.094,163.866 L182.968,164.062 C182.762666,164.248668 182.627334,164.365333 182.562,164.412 C182.534,164.505334 182.482667,164.584666 182.408,164.65 C182.389333,164.678 182.356667,164.715333 182.31,164.762 C182.282,164.920667 182.151334,165.032666 181.918,165.098 L181.764,165.14 C181.577332,165.130667 181.423334,165.023334 181.302,164.818 L181.092,164.468 L181.162,164.132 L181.134,163.95 L181.162,163.922 L181.176,163.74 L181.022,163.404 L181.134,163.236 L181.078,163.054 L181.176,162.858 L181.204,162.536 L181.148,162.48 L181.26,162.284 L181.218,162.186 L181.204,161.962 L181.26,161.542 C181.241333,161.448666 181.232,161.388 181.232,161.36 C181.232,161.341333 181.236667,161.322667 181.246,161.304 L181.246,161.248 L181.176,161.136 L181.218,160.688 L181.204,160.534 L181.246,160.31 L181.19,159.932 L181.442,159.512 C181.731335,159.558667 181.931999,159.621666 182.044,159.701 C182.156001,159.780334 182.212,159.922666 182.212,160.128 L182.212,160.254 L182.31,160.422 L182.268,160.716 L182.324,161.276 L182.226,161.542 L182.268,161.836 L182.268,162.074 L182.156,162.228 L182.24,162.48 L182.156,162.634 L182.142,162.788 L182.226,162.942 L182.114,163.236 L182.072,163.362 L182.072,163.488 L182.142,163.628 L182.38,163.39 C182.38,163.249999 182.426666,163.156667 182.52,163.11 C182.529333,163.016666 182.566666,162.946667 182.632,162.9 L182.59,162.858 L182.772,162.69 L182.814,162.634 L182.814,162.508 L183.038,162.34 L183.094,162.2 L183.22,162.116 Z M196.744,163.992 L196.576,164.58 L196.464,164.748 C196.314666,164.972001 196.170001,165.084 196.03,165.084 C195.917999,165.084 195.768668,165.004667 195.582,164.846 L195.302,164.44 L195.176,164.188 L195.12,163.936 L194.994,163.516 L194.994,162.9 L194.952,162.368 L194.994,162.074 L194.966,161.99 L194.616,162.48 L194.574,162.48 L194.56,162.522 L194.322,162.9 L193.93,163.32 L193.636,163.726 L193.328,164.02 C193.244,164.169334 193.146001,164.299999 193.034,164.412 L192.754,164.608 L192.586,164.832 L192.278,164.93 L192.152,165.084 L191.844,165.14 L191.592,165.294 L191.55,165.28 L191.522,165.35 L191.088,165.294 L190.57,164.93 C190.429999,164.771333 190.341334,164.598668 190.304,164.412 C190.322667,164.402667 190.341333,164.386333 190.36,164.363 C190.378667,164.339667 190.392667,164.323333 190.402,164.314 C190.392667,164.304667 190.341334,164.281334 190.248,164.244 L190.122,163.964 L190.192,163.866 L190.122,163.698 L190.192,163.502 L190.164,163.25 L190.262,162.844 L190.262,162.41 L190.36,162.284 L190.36,161.99 L190.458,161.808 L190.486,161.598 L190.514,161.57 L190.514,161.388 L190.654,161.164 L190.682,160.968 L190.766,160.828 L190.808,160.744 L190.864,160.408 L190.962,160.114 L191.032,160.044 L191.06,159.862 L191.242,159.666 C191.260667,159.619333 191.302666,159.521334 191.368,159.372 L191.718,159.218 L191.942,158.98 L192.586,158.798 C192.688667,158.798 192.768,158.793333 192.824,158.784 L192.922,158.84 L192.95,158.728 L193.272,158.7 L193.384,158.742 L193.482,158.728 L193.566,158.798 L193.832,158.812 L193.888,158.77 L193.958,158.826 L194.098,158.84 L194.098,158.938 L194.154,158.98 L194.434,159.036 L194.644,159.274 L194.924,159.484 L194.994,159.624 L195.008,159.638 L195.064,159.442 L195.148,159.26 L195.12,158.938 L195.176,158.35 L195.092,158.126 L195.204,157.958 L195.148,157.804 L195.19,157.412 L195.148,157.076 L195.022,156.978 L195.218,156.754 L195.218,156.6 C195.218,156.441333 195.157334,156.268668 195.036,156.082 L195.12,156.082 L195.274,155.858 C195.414001,155.83 195.539999,155.816 195.652,155.816 C195.782667,155.816 195.89,155.844 195.974,155.9 C196.123334,155.946667 196.198,156.170665 196.198,156.572 L196.128,156.572 L196.114,156.628 L196.24,156.74 L196.156,156.964 L196.282,157.23 L196.212,157.314 C196.24,157.379334 196.254,157.444666 196.254,157.51 C196.254,157.575334 196.24,157.645333 196.212,157.72 L196.282,157.804 C196.300667,157.841334 196.31,157.902 196.31,157.986 C196.31,158.088667 196.286667,158.182 196.24,158.266 C196.193333,158.854003 196.151334,159.217999 196.114,159.358 C196.123333,159.386 196.128,159.428 196.128,159.484 C196.128,159.558667 196.114,159.638 196.086,159.722 L196.086,159.806 C196.086,159.918001 196.067334,160.043999 196.03,160.184 L195.988,160.604 L195.918,160.716 L195.96,160.842 L195.89,161.052 L195.96,161.234 L195.848,161.668 L195.918,161.99 L195.876,162.172 L195.904,162.452 C195.932,162.517334 195.946,162.578 195.946,162.634 C195.946,162.680667 195.941333,162.718 195.932,162.746 L196.016,162.83 L195.904,163.11 L196.016,163.404 L195.974,163.488 L196.016,163.572 L195.974,163.656 L196.016,163.698 L196.142,163.81 L196.38,163.838 L196.744,163.992 Z M194.658,160.576 L194.602,160.548 C194.536666,160.510666 194.478334,160.45 194.427,160.366 C194.375666,160.282 194.326667,160.198 194.28,160.114 C194.186666,160.086 194.107334,160.025334 194.042,159.932 L193.958,159.932 L193.706,159.778 L193.384,159.708 L193.076,159.75 L192.754,159.834 L192.656,159.75 L192.544,159.792 L192.544,159.848 L192.418,159.876 C192.334,160.025334 192.203334,160.155999 192.026,160.268 L191.914,160.506 L191.802,160.59 L191.704,160.814 L191.662,161.276 L191.536,161.388 L191.536,161.64 L191.396,161.738 L191.424,162.074 L191.186,162.536 L191.144,162.76 L191.116,163.124 L191.2,163.278 L191.102,163.432 L191.186,163.53 L191.046,163.782 L191.116,163.908 L191.172,164.076 L191.256,164.132 L191.354,164.132 L191.48,164.02 L191.592,164.034 L191.83,163.936 L191.858,163.852 L192.124,163.754 L192.152,163.67 L192.32,163.572 L192.32,163.544 L192.67,163.18 L192.838,163.11 L192.922,162.928 L193.104,162.9 L193.328,162.648 L193.286,162.62 L193.384,162.522 L193.524,162.228 L193.65,162.102 L193.72,161.794 L193.944,161.724 L194.098,161.5 L194.154,161.458 L194.154,161.206 L194.364,161.108 L194.658,160.576 Z M202.554,163.852 C202.554,163.964001 202.470001,164.103999 202.302,164.272 C202.255333,164.421334 202.185334,164.542666 202.092,164.636 L202.008,164.65 L201.854,164.916 L201.602,164.958 L201.336,165.126 L201.196,165.378 L201.042,165.35 C200.939333,165.396667 200.855334,165.424667 200.79,165.434 L200.706,165.56 C200.678,165.550667 200.636,165.546 200.58,165.546 C200.458666,165.546 200.342001,165.629999 200.23,165.798 L200.034,165.63 C199.996666,165.639333 199.940667,165.644 199.866,165.644 C199.744666,165.644 199.642,165.625334 199.558,165.588 L199.32,165.588 L199.208,165.518 C198.853332,165.462 198.629334,165.326668 198.536,165.112 L198.536,165.07 L198.368,164.986 L198.284,164.748 L198.116,164.636 L198.116,164.426 L197.948,163.81 L197.976,163.306 L198.032,163.082 L198.032,162.788 L198.102,162.564 L198.088,162.466 L198.186,162.298 L198.158,162.326 C198.158,162.242 198.181333,162.153334 198.228,162.06 L198.228,161.99 L198.186,161.654 C198.186,161.495333 198.255999,161.355334 198.396,161.234 C198.405333,161.215333 198.41,161.187334 198.41,161.15 C198.41,161.112666 198.393667,161.035667 198.361,160.919 C198.328333,160.802333 198.312,160.720667 198.312,160.674 C198.312,160.561999 198.34,160.445334 198.396,160.324 C198.470667,160.436001 198.577999,160.492 198.718,160.492 L198.76,160.492 C198.778667,160.454666 198.820666,160.412667 198.886,160.366 C198.960667,160.132666 199.063333,159.936667 199.194,159.778 L199.25,159.722 C199.25,159.684666 199.278,159.577334 199.334,159.4 L199.446,159.4 L199.474,159.33 L199.586,159.302 C199.632667,159.227333 199.663,159.183 199.677,159.169 C199.691,159.155 199.791332,159.096667 199.978,158.994 C200.015334,158.928666 200.071333,158.868 200.146,158.812 C200.183334,158.793333 200.23,158.774667 200.286,158.756 L200.342,158.672 C200.594001,158.588 200.752666,158.546 200.818,158.546 C200.892667,158.546 200.962666,158.564666 201.028,158.602 L201.098,158.588 L201.196,158.644 C201.308001,158.728 201.419999,158.798 201.532,158.854 L201.77,159.036 L201.77,159.092 C201.984668,159.260001 202.092,159.497998 202.092,159.806 L202.05,159.946 L202.092,160.408 L201.966,160.492 L201.826,160.856 L201.56,161.15 L201.546,161.374 C201.247332,161.588668 200.972001,161.761333 200.72,161.892 C200.636,162.022667 200.505334,162.088 200.328,162.088 L200.286,162.088 L200.02,162.256 L199.796,162.256 L199.46,162.396 L199.208,162.27 L199.18,162.27 C199.161333,162.344667 199.142667,162.456666 199.124,162.606 L199.012,162.69 L198.998,162.858 L198.914,163.096 C198.942,163.320001 198.956,163.464666 198.956,163.53 L198.9,163.572 C198.9,163.693334 198.895333,163.782 198.886,163.838 C198.886,163.847333 198.881333,163.861333 198.872,163.88 L198.872,163.922 C198.872,163.996667 198.909333,164.057333 198.984,164.104 C199.012,164.216001 199.058666,164.286 199.124,164.314 L199.222,164.398 L199.53,164.482 L199.53,164.524 L199.642,164.552 L200.118,164.58 L200.398,164.538 L200.538,164.44 L200.622,164.412 L200.762,164.202 L200.832,164.188 L201.182,164.076 C201.219334,164.010666 201.28,163.954667 201.364,163.908 L201.406,163.838 C201.592668,163.800666 201.7,163.702667 201.728,163.544 C201.858667,163.413333 202.026666,163.348 202.232,163.348 L202.288,163.348 C202.465334,163.553334 202.554,163.721333 202.554,163.852 Z M201.168,159.82 C201.168,159.792 201.154,159.736 201.126,159.652 L201.056,159.638 L201.028,159.652 L200.972,159.652 C200.953333,159.661333 200.934667,159.666 200.916,159.666 C200.906667,159.666 200.892667,159.661333 200.874,159.652 L200.832,159.652 L200.692,159.75 L200.566,159.764 L200.496,159.792 L200.258,160.1 L200.104,160.212 L199.88,160.604 L199.754,160.688 C199.726,160.846667 199.660667,160.981999 199.558,161.094 L199.502,161.192 C199.604667,161.126666 199.721333,161.094 199.852,161.094 L199.95,161.052 L199.992,160.926 L200.188,160.94 L200.3,160.772 L200.384,160.772 L200.538,160.828 L200.608,160.618 L200.706,160.618 L200.706,160.464 L200.888,160.422 L200.93,160.38 L200.958,160.254 L201.14,159.988 C201.158667,159.941333 201.168,159.885334 201.168,159.82 Z M205.816,162.116 L206.071649,161.827575 C206.023925,161.880653 205.970609,161.93981 205.911702,162.005043 C205.907826,162.009335 205.903925,162.013655 205.9,162.018 L205.9,162.046 L205.928,161.948 L206.11,161.738 L206.236,161.5 L206.236,161.36 L206.446,161.29 L206.474,161.108 L206.53,161.052 L206.544,160.982 L206.544,160.884 L206.74,160.688 L206.74,160.618 C206.730667,160.59 206.726,160.571333 206.726,160.562 C206.726,160.393999 206.819332,160.300667 207.006,160.282 C207.09,160.113999 207.215999,160.016 207.384,159.988 L207.468,159.862 L207.496,159.834 C207.58,159.712666 207.705999,159.628667 207.874,159.582 L208,159.428 L208.336,159.428 L208.504,159.624 L208.658,159.708 L208.672,159.75 L208.77,159.778 L208.798,160.072 L209.036,160.212 L208.938,160.52 L209.092,160.856 L209.092,161.248 L209.204,161.78 L209.232,162.284 L209.358,162.578 L209.442,162.942 C209.498,162.998 209.54,163.077333 209.568,163.18 L209.82,163.25 L209.82,163.53 L209.96,163.684 L209.96,163.726 L210.016,163.74 L210.072,163.824 L210.128,163.754 C210.109333,163.754 210.132666,163.758667 210.198,163.768 C210.300667,163.768 210.407999,163.674668 210.52,163.488 L210.688,163.446 L210.73,163.376 C210.758,163.301333 210.814,163.245334 210.898,163.208 L210.996,163.222 L211.052,163.166 L211.066,163.096 L211.108,163.04 C211.201334,162.974666 211.262,162.876667 211.29,162.746 L211.444,162.578 L211.472,162.452 L211.57,162.228 L211.836,162.13 L212.214,162.256 L212.34,162.662 C212.34,162.671333 212.344667,162.680667 212.354,162.69 L212.354,162.732 C212.354,162.806667 212.293334,162.904666 212.172,163.026 L212.018,163.264 L211.962,163.544 L211.836,163.586 L211.808,163.67 C211.658666,163.716667 211.551334,163.833332 211.486,164.02 C211.383333,164.150667 211.271334,164.244 211.15,164.3 C211.103333,164.346667 211.061334,164.379333 211.024,164.398 L210.954,164.524 L210.828,164.552 L210.464,164.748 L209.988,164.804 L209.862,164.776 L209.652,164.818 L209.568,164.72 C209.437333,164.654666 209.344,164.589334 209.288,164.524 C209.175999,164.496 209.092,164.407334 209.036,164.258 C208.877333,164.071332 208.798,163.922001 208.798,163.81 L208.798,163.768 L208.7,163.6 L208.672,163.572 L208.588,163.32 L208.462,163.054 L208.49,162.732 L208.35,162.55 L208.14,161.346 C208.112,161.187333 208.098,161.052001 208.098,160.94 L208.07,160.87 L208,160.772 L207.874,160.94 L207.37,161.472 L207.188,161.766 L207.09,161.962 L206.936,162.186 L206.824,162.298 L206.838,162.368 L206.642,162.802 L206.53,162.942 L206.39,162.97 L206.264,163.096 C206.264,163.282668 206.175334,163.404 205.998,163.46 L205.97,163.488 C205.886,163.693334 205.792667,163.819333 205.69,163.866 L205.564,164.062 C205.358666,164.248668 205.223334,164.365333 205.158,164.412 C205.13,164.505334 205.078667,164.584666 205.004,164.65 C204.985333,164.678 204.952667,164.715333 204.906,164.762 C204.878,164.920667 204.747334,165.032666 204.514,165.098 L204.36,165.14 C204.173332,165.130667 204.019334,165.023334 203.898,164.818 L203.688,164.468 L203.758,164.132 L203.73,163.95 L203.758,163.922 L203.772,163.74 L203.618,163.404 L203.73,163.236 L203.674,163.054 L203.772,162.858 L203.8,162.536 L203.744,162.48 L203.856,162.284 L203.814,162.186 L203.8,161.962 L203.856,161.542 C203.837333,161.448666 203.828,161.388 203.828,161.36 C203.828,161.341333 203.832667,161.322667 203.842,161.304 L203.842,161.248 L203.772,161.136 L203.814,160.688 L203.8,160.534 L203.842,160.31 L203.786,159.932 L204.038,159.512 C204.327335,159.558667 204.527999,159.621666 204.64,159.701 C204.752001,159.780334 204.808,159.922666 204.808,160.128 L204.808,160.254 L204.906,160.422 L204.864,160.716 L204.92,161.276 L204.822,161.542 L204.864,161.836 L204.864,162.074 L204.752,162.228 L204.836,162.48 L204.752,162.634 L204.738,162.788 L204.822,162.942 L204.71,163.236 L204.668,163.362 L204.668,163.488 L204.738,163.628 L204.976,163.39 C204.976,163.249999 205.022666,163.156667 205.116,163.11 C205.125333,163.016666 205.162666,162.946667 205.228,162.9 L205.186,162.858 L205.368,162.69 L205.41,162.634 L205.41,162.508 L205.634,162.34 L205.69,162.2 L205.816,162.116 Z M217.996,162.816 L217.73,163.068 L217.716,163.152 C217.688,163.320001 217.608667,163.455333 217.478,163.558 C217.253999,163.978002 216.941335,164.285999 216.54,164.482 L216.33,164.65 L216.148,164.678 L215.924,164.846 L215.77,164.86 L215.42,165.084 L215.196,165.056 L214.944,165.168 L214.748,165.112 L214.65,165.196 L214.384,165.154 L214.118,165.196 L214.02,165.112 L213.74,165.056 L213.334,164.748 L213.11,164.468 C212.969999,164.290666 212.9,164.141334 212.9,164.02 L212.9,163.978 L212.76,163.768 L212.76,163.586 C212.732,163.473999 212.718,163.371334 212.718,163.278 L212.718,163.18 L212.648,162.942 L212.718,162.774 L212.662,162.662 L212.83,162.396 L212.788,162.172 L212.9,161.808 L212.956,161.724 L213.012,161.388 L212.984,161.332 L213.152,161.15 L213.18,161.01 L213.292,160.688 L213.474,160.296 L213.726,160.072 L213.782,159.946 L213.866,159.792 L213.894,159.652 L214.118,159.386 C214.174,159.367333 214.239333,159.348667 214.314,159.33 C214.351334,159.152666 214.584665,159.05 215.014,159.022 C215.378002,159.096667 215.611333,159.194666 215.714,159.316 C215.816667,159.334667 215.896,159.376666 215.952,159.442 L216.246,159.456 L216.442,159.708 C216.488667,159.801334 216.521333,159.894666 216.54,159.988 L216.652,160.1 L216.61,160.31 C216.619333,160.375334 216.624,160.477999 216.624,160.618 L216.694,160.674 L216.694,160.884 L216.75,161.318 C216.553999,161.514001 216.330001,161.626 216.078,161.654 C215.947333,161.411332 215.784001,161.229334 215.588,161.108 L215.56,160.646 L215.476,160.492 L215.476,160.38 L215.336,160.212 L215.266,160.156 L215.14,160.198 L214.958,160.198 C214.836666,160.226 214.720001,160.314666 214.608,160.464 C214.495999,160.613334 214.384001,160.771999 214.272,160.94 L214.258,161.08 L214.174,161.15 L214.174,161.402 L213.992,161.598 L213.768,162.214 L213.782,162.382 L213.67,162.634 L213.712,162.942 L213.628,162.984 L213.6,163.376 L213.614,163.446 L213.782,163.614 L213.852,163.908 L214.048,163.964 L214.062,164.076 L214.3,164.118 L214.482,164.16 C214.547334,164.122666 214.626666,164.104 214.72,164.104 L214.818,164.104 C214.930001,164.057333 215.032666,164.034 215.126,164.034 C215.191334,164.006 215.275333,163.978 215.378,163.95 C215.490001,163.800666 215.648666,163.726 215.854,163.726 L215.938,163.726 C215.984667,163.726 216.017333,163.702667 216.036,163.656 C216.138667,163.497333 216.301999,163.394667 216.526,163.348 C216.787335,163.114666 216.936666,162.928001 216.974,162.788 C217.104667,162.713333 217.188666,162.596667 217.226,162.438 L217.31,162.382 L217.352,162.06 C217.781335,162.125334 217.996,162.339998 217.996,162.704 L217.996,162.816 Z M226.158,162.354 C226.13,162.456667 226.088,162.573333 226.032,162.704 L226.046,162.788 L226.144,163.292 L226.046,163.824 L226.088,164.076 L226.004,164.258 L226.06,164.874 L226.004,164.972 L226.004,165.378 L225.99,165.7 L226.032,165.84 L226.004,166.722 L226.116,166.974 L226.032,167.086 L226.074,167.324 L226.004,167.394 L226.074,167.632 L225.948,167.772 L225.948,167.87 L225.892,167.996 C225.864,168.154667 225.761334,168.383332 225.584,168.682 L225.486,169.032 C225.411333,169.069334 225.364667,169.097333 225.346,169.116 L225.304,169.158 L225.178,169.326 L225.038,169.536 L224.8,169.662 C224.687999,169.867334 224.557334,169.984 224.408,170.012 C224.361333,170.058667 224.328667,170.086667 224.31,170.096 L224.268,170.138 L224.072,170.222 L223.96,170.334 L223.82,170.334 L223.75,170.446 L223.498,170.39 L223.232,170.558 L222.98,170.502 L222.518,170.572 L222.42,170.558 L222.35,170.586 L221.888,170.502 L221.678,170.502 L221.594,170.418 L221.034,170.236 L220.558,170.166 L220.488,170.04 L220.236,170.012 L220.152,169.774 L219.984,169.732 L219.872,169.522 L219.606,169.424 L219.382,169.102 L218.976,168.85 L219.004,168.584 C218.985333,168.574667 218.943334,168.392668 218.878,168.038 C218.878,167.888666 218.910666,167.706668 218.976,167.492 L218.976,167.366 L219.116,167.296 L219.2,167.058 L219.256,167.086 L219.396,166.862 L219.648,166.666 L219.844,166.61 L220.222,166.302 L220.586,166.33 C220.679334,166.236666 220.800666,166.19 220.95,166.19 C221.164668,166.292667 221.272,166.418666 221.272,166.568 C221.272,166.661334 221.23,166.754666 221.146,166.848 L220.95,166.946 L220.74,167.1 L220.53,167.156 L220.404,167.394 L220.194,167.394 L220.11,167.534 L219.928,167.688 L219.942,167.898 L219.83,168.094 L219.886,168.234 L219.984,168.458 L220.292,168.654 L220.362,168.864 L220.74,169.158 L220.95,169.172 L221.202,169.368 L221.454,169.368 L221.608,169.522 L221.804,169.508 L221.916,169.592 L222.588,169.564 L223.022,169.424 L223.288,169.438 L223.582,169.27 C223.656667,169.242 223.722,169.228 223.778,169.228 C223.796667,169.218667 223.829333,169.2 223.876,169.172 L223.946,169.06 L224.086,169.102 L224.142,169.046 L224.142,168.934 C224.151333,168.878 224.211999,168.831334 224.324,168.794 C224.361334,168.700666 224.435999,168.621334 224.548,168.556 C224.576,168.509333 224.599333,168.406667 224.618,168.248 L224.814,168.136 L224.856,168.038 C224.893334,167.963333 224.930666,167.884 224.968,167.8 L224.982,167.758 L225.024,167.212 L225.08,167.17 L225.08,166.946 L225.024,166.736 L225.108,166.568 C225.089333,166.381332 225.08,166.255334 225.08,166.19 C225.08,166.106 225.084667,166.010334 225.094,165.903 C225.103333,165.795666 225.108,165.732667 225.108,165.714 L225.108,165 L225.01,164.818 L225.108,164.524 L225.08,164.244 L225.08,163.53 L225.038,163.348 L225.094,163.25 L225.094,163.068 C225.094,163.002666 225.098667,162.960667 225.108,162.942 L224.996,162.62 L224.996,162.13 L224.842,162.382 L224.674,162.508 L224.506,162.676 L224.394,162.718 L224.352,162.886 L224.226,162.956 L224.212,162.998 L224.016,163.166 L223.75,163.488 L223.372,163.88 L223.232,163.922 L223.19,163.992 L222.77,164.3 L222.644,164.3 L222.504,164.44 L222.448,164.58 L222.14,164.678 L222.084,164.776 L221.874,164.804 L221.58,165 L221.342,165.056 L221.23,165.14 L221.076,165.168 L221.034,165.196 C220.912666,165.326667 220.721335,165.392 220.46,165.392 C220.179999,165.392 219.960667,165.303334 219.802,165.126 L219.494,164.664 L219.48,164.398 L219.312,163.894 L219.312,163.474 L219.256,163.306 L219.34,163.166 L219.27,162.858 L219.368,162.774 L219.382,162.634 L219.466,162.466 L219.438,162.172 L219.494,162.06 L219.494,161.962 C219.494,161.765999 219.526666,161.537335 219.592,161.276 L219.55,160.898 L219.592,160.548 L219.466,160.044 L219.494,159.946 L219.438,159.862 L219.606,159.414 C219.643334,159.264666 219.662,159.115334 219.662,158.966 C219.774001,158.91 219.885999,158.882 219.998,158.882 C220.082,158.882 220.166,158.896 220.25,158.924 L220.376,159.204 L220.614,159.372 C220.586,159.512001 220.562667,159.624 220.544,159.708 L220.67,159.918 L220.614,160.058 L220.796,160.212 L220.628,160.52 L220.712,160.884 L220.614,161.038 L220.628,161.066 L220.544,161.668 L220.544,162.214 L220.46,162.298 L220.404,162.788 L220.278,162.942 C220.278,162.988667 220.282667,163.049333 220.292,163.124 L220.292,163.264 L220.39,163.516 L220.292,163.698 L220.32,163.922 L220.292,163.978 L220.32,164.146 L220.446,164.258 L220.544,164.23 L220.558,164.314 L220.656,164.174 L221.062,164.174 C221.118,164.118 221.188,164.071334 221.272,164.034 C221.486668,163.884666 221.677999,163.800667 221.846,163.782 L221.86,163.6 C222.121335,163.459999 222.452665,163.278001 222.854,163.054 L222.91,162.942 C222.882,162.960667 222.858667,162.974667 222.84,162.984 C222.868,162.965333 222.933333,162.923334 223.036,162.858 L223.092,162.676 L223.19,162.522 L223.386,162.452 L223.498,162.284 L223.568,162.298 L223.652,162.242 L223.82,162.06 L223.89,162.046 L223.904,162.004 L224.156,161.738 L224.31,161.486 C224.412667,161.458 224.501333,161.392667 224.576,161.29 L224.772,160.884 L224.744,160.45 L224.884,160.394 L224.884,160.352 L224.8,160.1 L224.814,160.044 C224.748666,159.941333 224.716,159.862 224.716,159.806 C224.716,159.703333 224.771999,159.577334 224.884,159.428 L224.884,159.47 L224.94,159.33 L224.954,159.274 L224.954,159.316 C225.028667,159.129332 225.215332,159.031333 225.514,159.022 L225.962,159.456 L226.004,159.82 L226.144,160.058 L226.06,160.282 L226.074,160.38 L226.074,160.45 C226.055333,160.478 226.032,160.52 226.004,160.576 L226.046,160.66 L226.046,160.884 L225.99,161.108 L226.046,161.416 L226.046,161.64 L226.088,161.738 L226.06,162.004 L226.158,162.354 Z M240.97,162.494 L240.452,163.18 L240.718,163.544 L240.494,163.684 L240.452,164.048 L240.368,164.258 C240.368,164.416667 240.344667,164.542666 240.298,164.636 L240.452,164.776 L240.368,165.112 L240.438,165.406 L240.396,165.518 L240.55,165.672 L240.368,165.868 L240.438,166.134 L240.34,166.358 C240.405334,166.535334 240.438,166.684666 240.438,166.806 L240.438,166.862 L240.606,167.156 C240.587333,167.492002 240.442668,167.66 240.172,167.66 C240.050666,167.66 239.892001,167.543335 239.696,167.31 L239.64,166.988 C239.509333,166.829333 239.439333,166.708 239.43,166.624 L239.276,166.274 L239.276,166.092 L239.206,165.98 L239.206,165.924 L239.052,165.868 L239.08,165.826 C239.08,165.685999 239.098666,165.578667 239.136,165.504 L239.136,165.378 C239.136,165.312666 239.145333,165.242667 239.164,165.168 L239.122,165.028 L238.982,164.972 C239.140667,164.869333 239.22,164.771334 239.22,164.678 C239.22,164.659333 239.213,164.626667 239.199,164.58 C239.185,164.533333 239.178,164.500667 239.178,164.482 L239.122,164.02 L239.192,163.852 C238.893332,163.945334 238.632001,163.992 238.408,163.992 C238.398667,163.992 238.38,163.987333 238.352,163.978 L238.282,163.978 C238.263333,163.978 238.226,163.987333 238.17,164.006 L237.96,164.202 L237.414,164.3 L237.148,164.44 L236.826,164.44 L236.588,164.552 L236.294,164.538 L236.07,164.664 L235.93,164.636 C235.817999,164.682667 235.659334,164.72 235.454,164.748 C235.304666,164.766667 235.206667,164.804 235.16,164.86 C235.066666,164.832 234.996667,164.785334 234.95,164.72 C234.922,164.729333 234.875334,164.734 234.81,164.734 L234.502,164.888 L234.292,164.734 C234.161333,164.734 233.974668,164.706 233.732,164.65 L233.62,164.72 L233.368,164.608 L232.976,164.608 L232.766,164.426 L232.444,164.3 L231.814,163.684 L231.73,163.278 L231.534,163.012 L231.618,162.802 C231.618,162.783333 231.622667,162.755334 231.632,162.718 L231.632,162.634 L231.478,162.424 L231.674,162.088 L231.744,162.074 L232.08,161.514 L232.08,161.388 L232.164,161.36 L232.206,161.318 L232.29,161.36 C232.392667,161.350667 232.448667,161.248001 232.458,161.052 L232.556,161.094 C232.602667,161.019333 232.686666,160.930667 232.808,160.828 L232.766,160.772 L232.808,160.674 L232.976,160.548 L233.004,160.534 L233.172,160.24 L233.27,160.31 L233.396,160.31 L233.564,160.03 L233.914,159.96 L234.04,159.834 C234.021333,159.815333 234.012,159.796667 234.012,159.778 L234.04,159.666 L234.194,159.638 L234.278,159.568 L234.334,159.638 L234.432,159.554 L234.474,159.428 L234.768,159.4 L235.006,159.19 L235.272,159.148 L235.37,159.05 L235.51,159.092 L235.594,158.952 L235.706,159.05 L235.72,158.966 C235.72,158.872666 235.780666,158.812 235.902,158.784 C236.023334,158.653333 236.167999,158.588 236.336,158.588 L236.588,158.588 L236.63,158.56 L236.868,158.35 L237.008,158.378 L237.246,158.252 L237.344,158.252 C237.465334,158.205333 237.563333,158.182 237.638,158.182 L237.89,158.042 L238.03,158.084 L238.128,158.084 L238.198,157.958 L238.534,157.986 L238.632,157.972 L238.702,157.818 L239.136,158 L239.388,158 L239.682,158.21 C239.850001,158.275334 240.022666,158.363999 240.2,158.476 C240.190667,158.924002 239.89667,159.185333 239.318,159.26 L238.954,159.078 L238.842,159.12 L238.604,159.036 L238.464,159.12 L238.198,159.05 L237.75,159.274 L237.554,159.162 L237.33,159.232 C237.246,159.250667 237.185334,159.283333 237.148,159.33 C236.979999,159.470001 236.807334,159.54 236.63,159.54 L236.532,159.54 C236.139998,159.773335 235.818001,159.922666 235.566,159.988 L235.51,160.128 L235.342,160.128 L235.23,160.296 L235.006,160.324 C234.856666,160.454667 234.693334,160.562 234.516,160.646 L234.264,160.758 L233.886,161.094 L233.676,161.248 L233.438,161.542 L233.074,161.836 L233.074,162.102 L232.962,162.2 L232.738,162.718 L232.738,162.9 C232.896667,163.058667 232.99,163.226666 233.018,163.404 L233.06,163.446 L233.382,163.6 L233.718,163.684 L234.166,163.67 L234.726,163.782 L234.824,163.768 L234.936,163.782 L235.706,163.726 L235.748,163.712 C235.841334,163.684 236.027999,163.646667 236.308,163.6 L236.546,163.516 L237.134,163.474 L238.058,163.264 C238.216667,163.161333 238.403332,163.100667 238.618,163.082 L238.814,163.096 C238.972667,163.18 239.056667,163.264 239.066,163.348 L239.206,163.04 L239.066,163.166 L239.066,162.914 L239.206,162.886 L239.374,162.662 C239.346,162.634 239.313334,162.582667 239.276,162.508 C239.276,162.461333 239.283,162.412334 239.297,162.361 C239.311,162.309666 239.318,162.279333 239.318,162.27 C239.318,162.167333 239.266667,161.999335 239.164,161.766 C239.322667,161.672666 239.490666,161.626 239.668,161.626 C239.836001,161.626 239.989999,161.658666 240.13,161.724 L240.256,161.85 C240.405334,161.915334 240.522,161.994666 240.606,162.088 L240.97,162.494 Z M247.466,159.792 L247.354,160.254 L246.836,160.324 L246.556,160.506 L246.374,160.422 L246.178,160.534 L245.968,160.618 L245.828,160.716 L245.828,160.772 L245.534,160.912 L245.338,161.164 L245.24,161.164 C245.090666,161.322667 244.983334,161.420666 244.918,161.458 L244.722,161.78 L244.652,161.808 C244.624,161.882667 244.591334,161.994666 244.554,162.144 L244.358,162.214 L244.274,162.382 L244.162,162.522 L244.134,162.732 L244.022,162.774 L244.022,162.984 L243.98,163.026 C244.008,163.072667 244.040666,163.124 244.078,163.18 L243.868,163.264 L243.84,163.446 L243.7,163.684 L243.784,163.866 L243.602,164.118 C243.620667,164.211334 243.63,164.276666 243.63,164.314 L243.63,164.37 C243.620667,164.398 243.616,164.421333 243.616,164.44 L243.644,164.566 L243.882,164.818 L243.7,165.14 L243.532,165.266 L243.14,165.462 L242.622,165.252 L242.622,164.93 L242.566,164.804 L242.608,164.594 C242.589333,164.444666 242.58,164.332667 242.58,164.258 C242.58,164.23 242.584667,164.192667 242.594,164.146 L242.594,164.048 L242.58,163.908 C242.514666,163.842666 242.482,163.768 242.482,163.684 C242.482,163.609333 242.514666,163.525334 242.58,163.432 C242.58,163.385333 242.570667,163.245335 242.552,163.012 L242.594,162.97 L242.552,162.788 L242.58,162.62 L242.552,162.522 L242.594,162.2 L242.51,162.06 L242.566,161.906 L242.51,161.724 C242.519333,161.668 242.524,161.593334 242.524,161.5 C242.524,161.359999 242.505334,161.266667 242.468,161.22 L242.524,161.136 L242.468,160.884 L242.342,160.702 L242.412,160.478 L242.356,160.394 L242.3,160.058 L242.3,159.946 C242.253333,159.89 242.23,159.82 242.23,159.736 C242.23,159.549332 242.435331,159.390667 242.846,159.26 L243.196,159.33 L243.266,159.596 L243.406,159.778 L243.364,160.156 C243.392,160.342668 243.424666,160.547999 243.462,160.772 L243.504,160.996 C243.513333,161.014667 243.522667,161.066 243.532,161.15 C243.532,161.206 243.508667,161.266666 243.462,161.332 L243.504,161.612 L243.476,161.92 L243.42,162.06 L243.462,162.116 L243.49,162.256 C243.546,162.190666 243.578667,162.120667 243.588,162.046 L243.644,161.836 C243.672,161.78 243.714,161.738 243.77,161.71 L243.826,161.5 L244.022,161.388 L244.05,161.22 L244.204,161.052 L244.316,160.842 C244.437334,160.711333 244.553999,160.627334 244.666,160.59 L244.694,160.548 L244.82,160.352 L244.96,160.324 L245.002,160.282 L245.058,160.198 L245.212,160.114 L245.296,160.016 L245.38,160.03 L245.492,159.974 L245.548,159.89 L245.716,159.806 L245.954,159.652 L246.29,159.54 C246.420667,159.521333 246.490667,159.512 246.5,159.512 L246.5,159.526 C246.490667,159.526 246.486,159.530667 246.486,159.54 L246.5,159.54 C246.537334,159.54 246.593333,159.521334 246.668,159.484 C246.714667,159.446666 246.78,159.428 246.864,159.428 C246.901334,159.428 246.966666,159.437333 247.06,159.456 C247.302668,159.465333 247.438,159.577332 247.466,159.792 Z M253.192,159.33 L253.052,159.512 L253.164,159.848 L252.982,160.058 L252.912,160.352 L252.87,160.422 L252.898,160.492 C252.898,160.622667 252.865334,160.720666 252.8,160.786 L252.772,160.828 L252.772,160.884 C252.8,160.949334 252.814,161.01 252.814,161.066 C252.814,161.112667 252.809333,161.145333 252.8,161.164 L252.814,161.22 L252.758,161.374 L252.8,161.542 L252.688,161.654 L252.73,161.85 L252.814,161.948 L252.688,162.06 L252.688,162.284 L252.59,162.508 L252.66,162.732 L252.576,162.844 L252.716,162.942 L252.52,163.264 L252.506,163.306 L252.646,163.334 L252.548,163.656 L252.548,163.712 C252.548,163.777334 252.543333,163.828666 252.534,163.866 L252.548,163.908 L252.772,163.936 L252.954,164.216 L252.856,164.426 L253.01,164.412 C253.066,164.524001 253.098667,164.622 253.108,164.706 L252.898,164.916 C252.832666,164.981334 252.739334,165.046666 252.618,165.112 L252.38,165.238 L252.31,165.168 L252.17,165.252 L251.736,164.748 L251.736,164.51 C251.68,164.323332 251.652,164.150667 251.652,163.992 L251.652,163.908 L251.568,163.082 L251.68,162.494 L251.596,162.158 L251.358,162.55 L251.232,162.914 L251.12,162.97 L250.924,163.278 L250.574,163.6 L250.476,163.768 L250.168,164.034 L250.098,164.216 L249.65,164.496 L249.174,165.028 L248.908,165.084 L248.726,165.224 C248.492666,165.214667 248.315334,165.126001 248.194,164.958 C247.773998,164.752666 247.554667,164.458669 247.536,164.076 L247.606,164.034 L247.592,163.95 L247.578,163.782 L247.494,163.6 L247.578,163.404 L247.606,163.11 L247.704,162.648 L247.704,162.592 C247.694667,162.573333 247.69,162.554667 247.69,162.536 C247.69,162.498666 247.699333,162.452 247.718,162.396 C247.708667,162.377333 247.704,162.34 247.704,162.284 C247.704,162.218666 247.732,162.111334 247.788,161.962 L247.886,161.92 C247.83,161.873333 247.802,161.822 247.802,161.766 C247.802,161.728666 247.806667,161.700667 247.816,161.682 C247.806667,161.654 247.802,161.621334 247.802,161.584 C247.802,161.471999 247.857999,161.388 247.97,161.332 C247.998,161.238666 248.049333,161.145334 248.124,161.052 L248.054,160.94 L248.222,160.73 L248.222,160.674 C248.222,160.496666 248.282666,160.333334 248.404,160.184 L248.39,159.932 L248.446,159.876 L248.446,159.834 C248.436667,159.815333 248.432,159.801333 248.432,159.792 C248.432,159.736 248.450666,159.689334 248.488,159.652 L248.488,159.568 C248.525334,159.474666 248.623333,159.334668 248.782,159.148 C248.940667,158.961332 249.057333,158.798001 249.132,158.658 L249.202,158.728 L249.356,158.658 L249.426,158.63 L249.888,158.42 L250.966,158.476 L250.966,158.574 L251.302,158.644 C251.516668,158.644 251.656666,158.713999 251.722,158.854 C251.722,158.826 251.726667,158.793334 251.736,158.756 L251.736,158.7 L252.03,158.966 L252.296,159.022 L252.8,158.896 L252.982,159.246 L253.192,159.33 Z M251.862,160.058 L251.806,159.96 L251.694,159.932 L251.26,159.582 L250.98,159.54 L250.756,159.54 L250.728,159.512 L250.616,159.554 L250.49,159.484 L250.126,159.484 L250.168,159.54 L249.846,159.652 L249.79,159.722 L249.748,159.736 C249.579999,159.876001 249.463334,159.992666 249.398,160.086 L249.3,160.422 L249.244,160.548 L249.384,160.744 L249.146,160.926 L249.174,160.982 C249.071333,161.159334 249.02,161.331999 249.02,161.5 L248.908,161.64 L248.908,161.892 L248.796,162.018 L248.768,162.144 L248.726,162.172 L248.726,162.368 L248.684,162.438 C248.684,162.550001 248.674667,162.638666 248.656,162.704 L248.684,162.774 L248.558,163.04 L248.614,163.124 L248.516,163.264 L248.614,163.53 L248.46,163.726 L248.488,163.992 L248.488,164.034 L248.544,164.062 L248.614,164.048 C248.660667,164.001333 248.707333,163.959334 248.754,163.922 L248.726,163.81 L248.922,163.782 L248.964,163.684 L249.79,163.012 L249.874,162.984 L249.972,162.746 C250.028,162.727333 250.107333,162.69 250.21,162.634 L250.294,162.41 L250.406,162.41 L250.364,162.172 L250.56,162.144 C250.578667,162.106666 250.609,162.06 250.651,162.004 C250.693,161.948 250.737333,161.896667 250.784,161.85 L251.498,160.898 L251.61,160.688 L251.596,160.632 L251.694,160.478 L251.722,160.324 L251.848,160.212 L251.862,160.058 Z M260.248,162.928 L260.08,163.348 L260.192,163.628 L260.136,163.712 L260.08,163.936 L259.968,164.132 L259.912,164.16 L259.884,164.426 L259.632,164.454 C259.501333,164.575334 259.366001,164.673333 259.226,164.748 L259.142,164.734 L258.932,164.804 L258.806,164.818 L258.54,164.916 L258.232,164.776 L258.19,164.748 L257.952,164.762 L258.008,164.79 L257.616,164.734 L257.266,164.818 L257.126,164.692 L256.832,164.72 L256.72,164.636 C256.710667,164.636 256.673334,164.640667 256.608,164.65 L256.608,164.734 C256.608,164.818 256.594,164.902 256.566,164.986 L256.608,165.252 L256.496,165.392 C256.514667,165.597334 256.524,165.751333 256.524,165.854 L256.482,166.204 L256.538,166.736 L256.426,166.876 L256.482,167.086 L256.44,167.226 L256.524,167.268 L256.524,167.478 C256.542667,167.534 256.552,167.576 256.552,167.604 C256.552,167.688 256.500667,167.758 256.398,167.814 L256.454,168.01 L256.384,168.122 L256.356,168.682 C256.328,169.335337 256.183335,169.662 255.922,169.662 C255.866,169.662 255.702668,169.624667 255.432,169.55 L255.474,169.13 L255.39,168.514 L255.53,168.262 L255.544,167.954 L255.488,167.534 L255.6,167.352 L255.474,167.03 L255.572,166.862 L255.488,166.582 L255.6,166.33 C255.581333,166.274 255.546334,166.222667 255.495,166.176 C255.443666,166.129333 255.418,166.096667 255.418,166.078 C255.418,166.05 255.450666,166.022 255.516,165.994 C255.506667,165.966 255.502,165.919334 255.502,165.854 C255.502,165.732666 255.53,165.574001 255.586,165.378 L255.502,165.238 L255.544,165.056 L255.446,164.93 L255.572,164.776 L255.516,164.37 L255.6,163.796 L255.502,163.614 L255.656,163.348 L255.488,163.194 L255.586,162.928 L255.488,162.858 L255.502,162.62 L255.586,162.326 L255.586,162.27 L255.6,162.214 L255.6,162.06 L255.614,162.004 L255.544,161.78 L255.614,161.542 L255.544,161.36 L255.6,161.15 L255.544,161.094 L255.586,160.814 L255.544,160.66 L255.572,160.52 L255.53,160.422 L255.026,160.646 L255.026,160.562 L254.928,160.576 L254.774,160.716 L254.648,160.716 L254.48,160.94 L254.34,160.884 L254.27,161.024 C253.812664,160.753332 253.584,160.538667 253.584,160.38 C253.584,160.267999 253.626,160.174667 253.71,160.1 L253.696,159.89 C253.957335,159.740666 254.204666,159.661333 254.438,159.652 L254.536,159.554 L254.984,159.372 L255.082,159.274 L255.474,159.302 L255.544,159.274 L255.67,158.784 L256.006,158.854 L256.23,159.218 L256.356,159.092 L256.608,159.274 C256.729334,159.274 256.845999,159.297333 256.958,159.344 L257.028,159.47 L257.126,159.428 L257.238,159.512 C257.303334,159.512 257.354666,159.516667 257.392,159.526 L257.378,159.61 L257.686,159.512 L257.84,159.68 L258.106,159.764 L258.288,159.988 L258.624,160.198 L258.638,160.226 L258.904,160.31 L258.904,160.394 C258.978667,160.45 259.034666,160.524666 259.072,160.618 L259.184,160.688 L259.268,160.842 L259.436,160.842 L259.436,161.122 L259.534,161.22 L259.562,161.318 L259.702,161.346 C259.720667,161.560668 259.781333,161.742666 259.884,161.892 L259.884,161.99 L260.024,162.13 L259.996,162.354 L260.108,162.606 L260.15,162.9 L260.248,162.928 Z M259.198,163.138 L259.184,163.068 L259.198,163.012 L259.114,162.76 L259.17,162.634 L259.114,162.522 L259.1,162.382 L258.988,162.158 L258.932,162.004 L258.722,161.64 L258.554,161.5 L258.456,161.262 L258.33,161.206 L258.106,160.912 L257.882,160.94 L257.714,160.716 L257.574,160.744 L257.476,160.562 L257.42,160.548 L257.224,160.548 L257.084,160.618 L256.972,160.506 L256.832,160.534 L256.776,160.436 L256.524,160.394 L256.538,160.562 L256.51,160.828 L256.566,160.982 L256.762,161.164 L256.608,161.5 L256.622,161.71 L256.552,162.13 C256.58,162.307334 256.636,162.456666 256.72,162.578 L256.664,162.732 C256.673333,162.741333 256.678,162.750667 256.678,162.76 C256.678,162.788 256.640667,162.83 256.566,162.886 L256.664,163.012 L256.594,163.18 L256.566,163.362 L256.608,163.558 L256.594,163.74 L256.888,163.74 C256.925334,163.721333 256.976666,163.712 257.042,163.712 C257.126,163.712 257.200666,163.74 257.266,163.796 C257.275333,163.796 257.294,163.791333 257.322,163.782 L257.364,163.782 C257.392,163.782 257.443333,163.791333 257.518,163.81 C257.574,163.782 257.625333,163.768 257.672,163.768 C257.746667,163.768 257.816666,163.786666 257.882,163.824 L258.008,163.824 L258.12,163.852 L258.4,163.768 L258.624,163.908 C258.708,163.936 258.740667,163.95 258.722,163.95 L258.988,163.684 L259.016,163.488 L259.086,163.46 L259.044,163.348 L259.142,163.236 L259.198,163.138 Z M267.318,164.86 C267.318,165.233335 267.117335,165.42 266.716,165.42 C266.519999,165.42 266.375334,165.340667 266.282,165.182 C266.188666,165.051333 266.109334,164.804002 266.044,164.44 L266.044,164.244 C266.072,164.197333 266.086,164.150667 266.086,164.104 C266.086,164.085333 266.081333,164.062 266.072,164.034 L265.876,163.74 L266.016,163.474 L265.96,163.18 L266.016,163.012 L266.016,162.83 L266.044,162.662 L265.988,162.41 L266.044,162.284 L266.044,161.822 L266.058,161.22 L265.96,160.758 L266.016,160.59 L265.918,160.24 L265.806,160.338 L265.498,160.464 L265.078,160.996 L264.91,160.982 L264.658,161.388 L264.616,161.556 L264.462,161.626 L264.308,161.864 L264.238,162.018 L264.084,162.508 L263.832,162.816 L263.776,163.012 L263.636,163.124 L263.58,163.46 L263.3,163.712 L263.258,164.23 L263.132,164.23 L263.09,164.314 L262.838,164.748 L262.6,165 L262.39,165.28 L262.166,165.21 L261.984,165.21 L261.816,164.986 L261.662,164.482 L261.634,163.74 L261.592,163.502 L261.634,163.222 L261.606,162.564 L261.718,162.536 L261.788,161.57 L261.844,161.388 L261.802,161.094 L261.872,161.052 L261.928,160.604 L261.984,160.45 L261.928,160.254 L261.97,160.184 L261.942,160.142 L261.984,159.75 L261.872,159.652 L261.97,159.456 L261.956,159.05 L261.802,158.644 L261.914,158.518 L261.816,158.14 L261.816,157.916 L261.774,157.818 L261.704,157.37 L261.634,157.16 L261.424,156.754 L261.578,156.558 L261.718,156.32 L261.844,156.32 C262.049334,156.32 262.203333,156.394666 262.306,156.544 L262.502,156.698 L262.586,156.95 L262.796,157.132 L262.754,157.328 L262.852,157.622 L262.838,157.65 L262.866,157.678 L262.852,158.14 L262.866,158.756 L262.964,159.148 L262.894,159.316 L262.922,159.554 L262.852,159.75 L262.894,160.086 L262.824,160.366 L262.852,160.422 L262.824,161.276 L262.866,161.472 L262.782,161.57 L262.74,162.032 L262.684,162.242 L262.74,162.62 L262.684,162.732 L262.67,163.012 C262.772667,162.984 262.824,162.928 262.824,162.844 L262.936,162.732 L263.034,162.55 L263.062,162.284 L263.216,162.06 L263.3,161.78 L263.51,161.556 L263.566,161.29 L263.706,161.276 L263.706,161.15 L263.72,160.982 L263.888,160.884 L263.888,160.772 L264.028,160.744 L264.056,160.52 L264.042,160.408 L264.294,160.296 L264.364,160.24 L264.336,160.1 L264.462,160.058 L264.56,159.82 L264.728,159.82 L264.882,159.722 C264.882,159.656666 264.886667,159.61 264.896,159.582 L265.05,159.512 C265.218001,159.371999 265.376666,159.288 265.526,159.26 L265.526,159.232 C265.768668,159.110666 265.936666,159.05 266.03,159.05 C266.170001,159.05 266.295999,159.115333 266.408,159.246 C266.510667,159.283334 266.576,159.353333 266.604,159.456 L266.73,159.54 L266.772,159.736 L266.982,160.058 L266.982,161.178 L266.968,161.668 L267.024,161.794 L267.024,162.83 L266.982,163.012 L266.982,163.292 L267.024,163.6 L266.968,163.866 C267.005334,164.006001 267.028667,164.122666 267.038,164.216 L267.192,164.37 L267.192,164.482 L267.248,164.524 C267.294667,164.682667 267.318,164.794666 267.318,164.86 Z"/>
    <circle cx="97.5" cy="67.5" r="25.5" fill="#E5E8FF" stroke="#000" stroke-width="6"/>
    <circle cx="137.5" cy="37.5" r="10.5" fill="#FFC6C6" stroke="#000" stroke-width="6"/>
    <circle cx="89.5" cy="116.5" r="10.5" fill="#F4FFCD" stroke="#000" stroke-width="6"/>
    <path fill="#000" d="M123.321,65.746 L123.876,65.746 C131.757,67.078 136.197,73.183 138.75,80.842 C143.079,77.623 147.852,75.514 153.069,75.514 C164.613,75.514 169.164,85.282 170.163,89.056 C175.158,82.951 181.818,77.512 189.144,77.512 C193.14,77.512 196.692,78.844 199.467,81.73 C205.017,87.502 206.349,96.604 206.349,104.707 C206.349,119.47 202.02,136.009 196.137,144.556 C195.693,145.222 194.805,145.555 194.028,145.555 C192.696,145.555 191.697,144.556 191.697,143.113 C191.697,142.558 191.808,142.114 192.03,141.67 C197.358,134.122 201.354,118.471 201.354,104.707 C201.354,94.717 198.801,82.063 188.922,82.063 C181.041,82.063 173.604,92.386 171.939,94.717 C173.049,98.269 173.715,103.486 173.715,109.147 C173.715,126.796 168.498,146.11 158.508,146.11 C156.732,146.11 155.178,145.444 153.957,144.445 C152.181,142.558 151.293,139.45 151.293,134.677 C151.293,123.355 157.62,105.706 166.611,93.718 C165.723,89.722 164.058,86.503 161.727,83.95 C159.396,81.619 156.399,80.176 152.736,80.176 C148.296,80.176 143.967,82.396 140.082,86.059 C141.414,91.72 141.858,99.268 141.858,105.706 C141.858,126.685 134.754,146.554 123.321,146.554 C117.66,146.554 113.22,141.781 113.22,132.124 C113.22,118.582 121.989,95.827 134.643,84.505 C132.423,76.18 128.538,71.629 122.877,70.519 C121.767,70.297 120.768,69.409 120.768,68.188 C120.768,66.745 121.989,65.746 123.321,65.746 Z M136.863,105.706 C136.863,99.49 136.419,94.273 135.864,89.5 C125.763,101.266 118.104,119.803 118.104,132.124 C118.104,133.567 118.215,142.003 123.432,142.003 C130.647,142.003 136.863,124.798 136.863,105.706 Z M168.72,110.257 C168.72,106.594 168.609,103.264 168.054,99.601 C160.95,111.589 156.177,125.575 156.177,134.677 C156.177,136.231 156.399,141.67 158.619,141.67 C163.281,141.67 168.498,127.906 168.72,110.257 Z M233.211,106.594 C221.001,106.594 213.009,122.689 213.009,134.233 C213.009,142.558 217.56,145.888 222,145.888 C229.992,145.888 233.544,138.451 233.544,136.564 C233.544,135.232 232.656,134.122 231.213,134.122 C230.325,134.122 229.437,134.677 229.104,135.565 C227.994,138.562 225.774,141.226 222.777,141.226 C219.891,141.226 218.004,138.34 218.004,134.233 C218.004,124.132 224.331,111.256 232.767,111.256 C235.653,111.256 238.539,113.254 238.539,118.582 C238.539,122.467 237.762,126.796 237.096,130.903 C236.541,134.899 235.875,138.007 235.875,140.338 C235.875,142.558 236.541,145.666 238.983,145.666 C240.315,145.666 241.536,144.556 241.536,143.335 C241.536,142.78 241.314,142.447 241.092,142.003 C240.981,141.67 240.87,141.226 240.87,140.56 C240.87,138.34 241.536,134.566 241.98,131.68 C242.757,127.462 243.423,122.578 243.423,118.36 C243.423,110.701 239.538,106.594 233.211,106.594 Z M264.402,145.888 C257.52,145.888 252.081,139.228 252.081,128.572 C252.081,118.249 257.853,107.038 267.066,107.038 C271.728,107.038 275.28,110.368 275.28,112.477 C275.28,113.809 274.17,114.919 272.838,114.919 C272.061,114.919 271.173,114.475 270.729,113.698 C270.174,112.81 268.731,112.033 267.066,112.033 C261.294,112.033 256.965,120.358 256.965,128.572 C256.965,136.12 259.962,141.337 264.513,141.337 C273.837,141.337 278.277,122.245 278.499,102.043 C269.175,99.601 261.96,92.719 261.96,84.727 C261.96,79.843 265.29,74.626 270.951,74.626 C273.171,74.626 275.502,75.514 277.389,77.401 C283.161,82.951 283.605,95.827 283.494,98.158 C284.715,98.38 286.158,98.602 287.601,98.713 C288.933,98.935 289.71,99.601 289.71,100.933 C289.71,102.154 288.489,103.264 287.712,103.264 C286.38,103.264 284.937,103.153 283.383,102.82 C283.161,117.028 280.608,134.566 273.06,142.114 C270.618,144.556 267.732,145.888 264.402,145.888 Z M270.729,79.288 C268.176,79.288 266.955,82.396 266.955,84.616 C266.955,90.166 271.95,95.383 278.61,97.159 C278.61,83.839 273.615,79.288 270.729,79.288 Z M307.026,111.7 C299.478,111.7 293.928,122.689 293.928,131.791 C293.928,135.454 294.816,138.34 296.592,140.005 C298.146,141.559 300.477,142.114 302.808,142.003 C302.031,140.56 301.698,138.451 301.698,136.786 C301.698,131.68 304.917,126.241 310.134,126.241 C314.13,126.241 316.461,129.571 316.461,133.678 C316.461,137.785 314.019,142.114 309.135,144.778 C310.023,145.999 311.022,147.109 311.91,147.886 C315.351,150.994 317.793,155.323 317.793,159.874 C317.793,172.195 306.249,179.632 294.816,179.632 C284.715,179.632 277.833,174.859 277.833,166.312 C277.833,159.43 283.161,154.102 289.821,154.102 C293.817,154.102 296.703,156.211 296.703,158.986 C296.703,160.318 295.704,161.206 294.483,161.206 C293.928,161.206 292.929,160.984 292.596,160.429 C291.819,159.208 290.487,158.764 289.599,158.764 C285.825,158.764 282.828,161.983 282.828,166.312 C282.828,171.973 287.601,175.081 294.816,175.081 C302.697,175.081 312.798,169.975 312.798,159.874 C312.798,156.544 311.244,153.88 308.58,151.105 C306.693,149.218 305.694,147.886 304.584,146.11 C304.14,146.221 303.585,146.332 303.141,146.332 C302.586,146.443 302.031,146.443 301.587,146.443 C294.15,146.443 288.933,141.004 288.933,131.791 C288.933,120.136 296.37,107.149 307.026,107.149 C314.574,107.149 318.459,113.143 318.459,121.912 C318.459,123.355 317.349,124.465 315.906,124.465 C314.574,124.465 313.686,123.355 313.686,121.912 C313.686,118.471 312.243,111.7 307.026,111.7 Z M306.36,136.897 C306.36,138.118 306.582,139.672 307.137,141.004 C310.023,139.561 311.799,136.231 311.799,133.678 C311.799,132.457 311.355,130.903 309.912,130.903 C308.136,130.903 306.36,133.789 306.36,136.897 Z M336.996,124.132 C335.553,124.243 334.554,125.353 334.554,126.574 C334.554,128.017 335.664,128.905 336.996,128.905 C343.545,128.905 352.758,124.576 352.758,115.807 C352.758,111.367 350.094,107.26 343.434,107.26 C334.665,107.26 324.897,117.028 324.897,131.014 C324.897,140.449 330.336,146.11 338.772,146.11 C345.543,146.11 350.871,141.67 350.871,139.561 C350.871,138.118 349.983,137.008 348.651,137.008 C347.874,137.008 347.319,137.341 346.875,137.896 C344.988,140.227 341.991,141.559 339.105,141.559 C331.113,141.559 329.892,134.788 329.892,131.014 C329.892,119.137 337.773,112.033 343.323,112.033 C346.209,112.033 347.763,113.587 347.763,115.807 C347.763,120.802 342.213,124.021 336.996,124.132 Z"/>
  </g>
</svg>
