<svg xmlns="http://www.w3.org/2000/svg" width="279" height="329" viewBox="0 0 279 329">
  <defs>
    <linearGradient id="logo-a" x1="32.157%" x2="70.686%" y1="46.417%" y2="49.75%">
      <stop offset="0%" stop-color="#91C5AA"/>
      <stop offset="100%" stop-color="#3965AF"/>
    </linearGradient>
    <linearGradient id="logo-b" x1="53.539%" x2="53.539%" y1="68.101%" y2="19.969%">
      <stop offset="0%" stop-color="#803FA5"/>
      <stop offset="100%" stop-color="#4B114A"/>
    </linearGradient>
  </defs>
  <g fill="none" fill-rule="evenodd">
    <polygon fill="#C4BAFF" points="139.44 72.403 182.716 233.942 96.164 233.942"/>
    <polygon fill="#6750E5" fill-opacity=".498" points="132 28 230.188 234.004 96 234.004" transform="matrix(-1 0 0 1 326.188 0)"/>
    <polygon fill="#6750E5" fill-opacity=".498" points="86.416 28 182.875 234.004 45 234.004"/>
    <path fill="url(#logo-a)" d="M83.8082104,283.816406 L60.5699291,283.816406 L54.5230541,297 L45.6988354,297 L72.5582104,239.308594 L98.4683666,297 L89.5035229,297 L83.8082104,283.816406 Z M80.4683666,276.117188 L72.4175854,257.660156 L63.9800854,276.117188 L80.4683666,276.117188 Z M99.5535192,297 L99.5535192,242.71875 L110.944144,242.71875 C116.405109,242.71875 120.717566,243.257807 123.881644,244.335938 C127.280099,245.39063 130.362099,247.183581 133.127738,249.714844 C138.729329,254.824244 141.530082,261.539021 141.530082,269.859375 C141.530082,278.203167 138.612142,284.953099 132.776175,290.109375 C129.846473,292.687513 126.776192,294.480464 123.565238,295.488281 C120.565223,296.496099 116.311359,297 110.803519,297 L99.5535192,297 Z M107.744925,289.300781 L111.436332,289.300781 C115.116038,289.300781 118.174601,288.914066 120.612113,288.140625 C123.049625,287.320308 125.252728,286.01954 127.221488,284.238281 C131.252758,280.558575 133.268363,275.765655 133.268363,269.859375 C133.268363,263.90622 131.276195,259.078144 127.2918,255.375 C123.705845,252.070296 118.420742,250.417969 111.436332,250.417969 L107.744925,250.417969 L107.744925,289.300781 Z M174.044922,268.734375 L196.474609,268.734375 L196.474609,270.527344 C196.474609,274.605489 195.994145,278.214828 195.033203,281.355469 C194.095698,284.261733 192.513683,286.980456 190.287109,289.511719 C185.248022,295.183622 178.83793,298.019531 171.056641,298.019531 C163.462853,298.019531 156.959011,295.277371 151.544922,289.792969 C146.130832,284.285129 143.423828,277.67582 143.423828,269.964844 C143.423828,262.089804 146.177707,255.410184 151.685547,249.925781 C157.193387,244.417941 163.896445,241.664062 171.794922,241.664062 C176.037131,241.664062 179.998028,242.531241 183.677734,244.265625 C187.193377,246.000009 190.650374,248.812481 194.048828,252.703125 L188.212891,258.292969 C183.759743,252.363252 178.334016,249.398438 171.935547,249.398438 C166.193331,249.398438 161.376973,251.378886 157.486328,255.339844 C153.595684,259.230488 151.650391,264.105439 151.650391,269.964844 C151.650391,276.011749 153.818338,280.992168 158.154297,284.90625 C162.209005,288.539081 166.603492,290.355469 171.337891,290.355469 C175.369161,290.355469 178.990218,288.996107 182.201172,286.277344 C185.412125,283.535143 187.205076,280.253925 187.580078,276.433594 L174.044922,276.433594 L174.044922,268.734375 Z M231.028512,250.417969 L209.266793,250.417969 L209.266793,263.460938 L230.3957,263.460938 L230.3957,271.160156 L209.266793,271.160156 L209.266793,289.300781 L231.028512,289.300781 L231.028512,297 L201.075387,297 L201.075387,242.71875 L231.028512,242.71875 L231.028512,250.417969 Z"/>
    <polygon fill="url(#logo-b)" points="64.312 220 93.193 72.48 140.293 179.121 189.081 72.48 215.03 220 193.791 220 180.55 137.176 139.938 226.31 100.481 137.087 85.729 220"/>
    <g stroke="#A28BCA" stroke-linecap="square" stroke-opacity=".356" stroke-width="2" transform="translate(80 93)">
      <path d="M-2.5 112.5L15.5 15.5M59 106L16 13M61 105L105 13M121.5 114.5L105 15"/>
    </g>
    <g fill="#DCC6FF" transform="translate(77 92)">
      <ellipse cx="19" cy="16" rx="3" ry="3"/>
      <circle cx="63" cy="110" r="3"/>
      <ellipse cx="108" cy="16" rx="3" ry="3"/>
      <circle cx="125" cy="116" r="3"/>
      <circle cy="116" r="3"/>
    </g>
  </g>
</svg>
