<svg xmlns="http://www.w3.org/2000/svg" width="432" height="225" viewBox="0 0 432 225">
  <g fill="none" fill-rule="evenodd">
    <path fill="#8C88A6" d="M132.05542,71.5388184 C135.212003,73.9907469 137.729351,77.7800518 138.75,80.842 C143.079,77.623 147.852,75.514 153.069,75.514 C164.613,75.514 169.164,85.282 170.163,89.056 C175.158,82.951 181.818,77.512 189.144,77.512 C193.14,77.512 196.692,78.844 199.467,81.73 C205.017,87.502 206.349,96.604 206.349,104.707 C206.349,119.47 202.02,136.009 196.137,144.556 C195.693,145.222 194.805,145.555 194.028,145.555 C192.696,145.555 191.697,144.556 191.697,143.113 C191.697,142.558 191.808,142.114 192.03,141.67 C197.358,134.122 201.354,118.471 201.354,104.707 C201.354,94.717 198.801,82.063 188.922,82.063 C181.041,82.063 173.604,92.386 171.939,94.717 C173.049,98.269 173.715,103.486 173.715,109.147 C173.715,126.796 168.498,146.11 158.508,146.11 C156.732,146.11 155.178,145.444 153.957,144.445 C152.181,142.558 151.293,139.45 151.293,134.677 C151.293,123.355 157.62,105.706 166.611,93.718 C165.723,89.722 164.058,86.503 161.727,83.95 C159.396,81.619 156.399,80.176 152.736,80.176 C148.296,80.176 143.967,82.396 140.082,86.059 C141.414,91.72 141.858,99.268 141.858,105.706 C141.858,126.685 134.754,146.554 123.321,146.554 C117.66,146.554 113.22,141.781 113.22,132.124 C113.22,118.582 121.989,95.827 134.643,84.505 C134.568493,83.6755237 134.517696,82.9697246 134.41088,82.3504732 C133.925049,79.5339355 133.027954,77.3659199 131.705322,75.3679199 C130.38269,73.3699199 128.687988,71.5115967 126.309814,69.9899902 C123.931641,68.4683838 124.110293,68.1895077 122.516968,67.5533447 C122.225439,67.4369467 122.046539,67.8068237 122.212509,67.5115204 C122.378479,67.216217 122.43335,67.2187347 122.409348,66.8583221 C122.385345,66.4979095 122.494156,67.0026855 122.685455,67.0403595 C122.876755,67.0780334 123.300199,67.1797015 123.781676,67.3400459 C124.15806,67.465392 122.191272,67.1450178 122.685455,67.3400459 C123.429189,67.6335586 123.554552,66.2696812 125.62915,67.3400459 C127.703749,68.4104107 130.497368,70.3285753 132.05542,71.5388184 Z M136.863,105.706 C136.863,99.49 136.419,94.273 135.864,89.5 C125.763,101.266 118.104,119.803 118.104,132.124 C118.104,133.567 118.215,142.003 123.432,142.003 C130.647,142.003 136.863,124.798 136.863,105.706 Z M168.72,110.257 C168.72,106.594 168.609,103.264 168.054,99.601 C160.95,111.589 156.177,125.575 156.177,134.677 C156.177,136.231 156.399,141.67 158.619,141.67 C163.281,141.67 168.498,127.906 168.72,110.257 Z M233.211,106.594 C221.001,106.594 213.009,122.689 213.009,134.233 C213.009,142.558 217.56,145.888 222,145.888 C229.992,145.888 233.544,138.451 233.544,136.564 C233.544,135.232 232.656,134.122 231.213,134.122 C230.325,134.122 229.437,134.677 229.104,135.565 C227.994,138.562 225.774,141.226 222.777,141.226 C219.891,141.226 218.004,138.34 218.004,134.233 C218.004,124.132 224.331,111.256 232.767,111.256 C235.653,111.256 238.539,113.254 238.539,118.582 C238.539,122.467 237.762,126.796 237.096,130.903 C236.541,134.899 235.875,138.007 235.875,140.338 C235.875,142.558 236.541,145.666 238.983,145.666 C240.315,145.666 241.536,144.556 241.536,143.335 C241.536,142.78 241.314,142.447 241.092,142.003 C240.981,141.67 240.87,141.226 240.87,140.56 C240.87,138.34 241.536,134.566 241.98,131.68 C242.757,127.462 243.423,122.578 243.423,118.36 C243.423,110.701 239.538,106.594 233.211,106.594 Z M264.402,145.888 C257.52,145.888 252.081,139.228 252.081,128.572 C252.081,118.249 257.853,107.038 267.066,107.038 C271.728,107.038 275.28,110.368 275.28,112.477 C275.28,113.809 274.17,114.919 272.838,114.919 C272.061,114.919 271.173,114.475 270.729,113.698 C270.174,112.81 268.731,112.033 267.066,112.033 C261.294,112.033 256.965,120.358 256.965,128.572 C256.965,136.12 259.962,141.337 264.513,141.337 C273.837,141.337 278.277,122.245 278.499,102.043 C269.175,99.601 261.96,92.719 261.96,84.727 C261.96,79.843 265.29,74.626 270.951,74.626 C273.171,74.626 275.502,75.514 277.389,77.401 C283.161,82.951 283.605,95.827 283.494,98.158 C284.715,98.38 286.158,98.602 287.601,98.713 C288.933,98.935 289.71,99.601 289.71,100.933 C289.71,102.154 288.489,103.264 287.712,103.264 C286.38,103.264 284.937,103.153 283.383,102.82 C283.161,117.028 280.608,134.566 273.06,142.114 C270.618,144.556 267.732,145.888 264.402,145.888 Z M270.729,79.288 C268.176,79.288 266.955,82.396 266.955,84.616 C266.955,90.166 271.95,95.383 278.61,97.159 C278.61,83.839 273.615,79.288 270.729,79.288 Z M307.026,111.7 C299.478,111.7 293.928,122.689 293.928,131.791 C293.928,135.454 294.816,138.34 296.592,140.005 C298.146,141.559 300.477,142.114 302.808,142.003 C302.031,140.56 301.698,138.451 301.698,136.786 C301.698,131.68 304.917,126.241 310.134,126.241 C314.13,126.241 316.461,129.571 316.461,133.678 C316.461,137.785 314.019,142.114 309.135,144.778 C310.023,145.999 311.022,147.109 311.91,147.886 C315.351,150.994 317.793,155.323 317.793,159.874 C317.793,172.195 306.249,179.632 294.816,179.632 C284.715,179.632 277.833,174.859 277.833,166.312 C277.833,159.43 283.161,154.102 289.821,154.102 C293.817,154.102 296.703,156.211 296.703,158.986 C296.703,160.318 295.704,161.206 294.483,161.206 C293.928,161.206 292.929,160.984 292.596,160.429 C291.819,159.208 290.487,158.764 289.599,158.764 C285.825,158.764 282.828,161.983 282.828,166.312 C282.828,171.973 287.601,175.081 294.816,175.081 C302.697,175.081 312.798,169.975 312.798,159.874 C312.798,156.544 311.244,153.88 308.58,151.105 C306.693,149.218 305.694,147.886 304.584,146.11 C304.14,146.221 303.585,146.332 303.141,146.332 C302.586,146.443 302.031,146.443 301.587,146.443 C294.15,146.443 288.933,141.004 288.933,131.791 C288.933,120.136 296.37,107.149 307.026,107.149 C314.574,107.149 318.459,113.143 318.459,121.912 C318.459,123.355 317.349,124.465 315.906,124.465 C314.574,124.465 313.686,123.355 313.686,121.912 C313.686,118.471 312.243,111.7 307.026,111.7 Z M306.36,136.897 C306.36,138.118 306.582,139.672 307.137,141.004 C310.023,139.561 311.799,136.231 311.799,133.678 C311.799,132.457 311.355,130.903 309.912,130.903 C308.136,130.903 306.36,133.789 306.36,136.897 Z M336.996,124.132 C335.553,124.243 334.554,125.353 334.554,126.574 C334.554,128.017 335.664,128.905 336.996,128.905 C343.545,128.905 352.758,124.576 352.758,115.807 C352.758,111.367 350.094,107.26 343.434,107.26 C334.665,107.26 324.897,117.028 324.897,131.014 C324.897,140.449 330.336,146.11 338.772,146.11 C345.543,146.11 350.871,141.67 350.871,139.561 C350.871,138.118 349.983,137.008 348.651,137.008 C347.874,137.008 347.319,137.341 346.875,137.896 C344.988,140.227 341.991,141.559 339.105,141.559 C331.113,141.559 329.892,134.788 329.892,131.014 C329.892,119.137 337.773,112.033 343.323,112.033 C346.209,112.033 347.763,113.587 347.763,115.807 C347.763,120.802 342.213,124.021 336.996,124.132 Z"/>
    <path fill="#595767" d="M121.518,164.972 C121.462,165.130667 121.284668,165.256666 120.986,165.35 L120.538,165.07 L120.104,164.58 L119.964,164.258 L119.922,163.992 L119.866,163.852 C119.744666,163.553332 119.684,163.282668 119.684,163.04 C119.684,162.984 119.698,162.914 119.726,162.83 L119.754,162.802 L119.782,162.536 L119.614,162.228 L119.67,162.06 L119.642,161.836 L119.656,161.64 C119.628,161.527999 119.614,161.43 119.614,161.346 L119.614,161.276 C119.614,161.107999 119.590667,160.940001 119.544,160.772 L119.544,160.38 L119.446,160.128 L119.418,159.932 L119.278,160.002 L118.83,160.562 L118.438,160.996 L118.284,161.276 L117.85,161.752 L117.374,162.074 L117.318,162.34 L117.038,162.438 L116.982,162.592 L116.646,162.746 L116.534,163.012 L116.282,163.096 L116.002,163.544 L115.834,163.642 C115.824667,163.688667 115.806,163.777333 115.778,163.908 C115.637999,163.982667 115.488667,164.02 115.33,164.02 L115.246,164.02 L115.106,163.754 L114.896,163.474 L114.924,163.32 L114.784,163.124 L114.854,163.026 L114.84,163.012 L114.77,162.788 L114.658,162.704 C114.480666,162.526666 114.340667,162.363334 114.238,162.214 L114.154,161.948 L114.014,161.794 L113.748,161.304 L113.468,160.996 L113.37,160.828 L113.104,160.548 L112.81,160.142 C112.791333,160.067333 112.744667,159.992667 112.67,159.918 C112.642,160.254002 112.581334,160.501333 112.488,160.66 L112.236,161.08 L112.306,161.388 L112.18,161.696 L111.9,162.564 L111.788,162.844 L111.76,163.026 L111.536,163.488 L111.34,163.796 L111.368,164.076 C111.312,164.225334 111.232667,164.388666 111.13,164.566 L111.214,164.902 C110.943332,165.172668 110.738001,165.308 110.598,165.308 C110.448666,165.308 110.336667,165.238001 110.262,165.098 C110.196666,165.023333 110.154667,164.939334 110.136,164.846 L110.136,164.79 C110.304001,164.09933 110.416,163.754 110.472,163.754 C110.481333,163.754 110.486,163.758667 110.486,163.768 L110.486,163.53 C110.486,163.287332 110.579332,163.105334 110.766,162.984 L110.766,162.9 L110.85,162.62 L110.836,162.522 C110.836,162.475333 110.878,162.344668 110.962,162.13 L111.018,162.074 L111.032,161.696 L111.172,161.458 L111.382,160.758 L111.312,160.324 L111.494,160.17 L111.494,160.128 L111.522,159.582 L111.564,159.344 C111.592,159.269333 111.606,159.204 111.606,159.148 L111.606,159.092 L111.368,158.644 L111.438,158.378 L111.55,158.35 L111.648,158.21 L111.634,158.098 L111.816,157.93 L111.942,157.986 L112.11,157.846 L112.306,157.874 L112.656,158.112 L112.656,158.21 L112.782,158.294 L112.838,158.616 L112.936,158.7 L113.02,158.966 L112.992,159.022 L113.118,159.12 C113.174,159.092 113.225333,159.078 113.272,159.078 C113.328,159.106 113.402666,159.166666 113.496,159.26 L113.524,159.456 L113.65,159.596 L113.748,159.89 L114.392,160.506 L114.504,160.856 L114.714,160.996 L114.938,161.556 L115.372,162.312 C115.381333,162.321333 115.409333,162.354 115.456,162.41 L115.484,162.452 L115.624,162.452 L115.736,162.214 L116.072,162.004 C116.286668,161.770666 116.394,161.644667 116.394,161.626 C116.394,161.616667 116.384667,161.612 116.366,161.612 L116.352,161.612 C116.398667,161.574666 116.459333,161.542 116.534,161.514 C116.552667,161.486 116.617999,161.444 116.73,161.388 C116.795334,161.247999 116.907333,161.140667 117.066,161.066 L117.122,160.982 L117.122,160.856 C117.346001,160.575999 117.527999,160.412667 117.668,160.366 C117.668,160.216666 117.812665,160.081334 118.102,159.96 L118.354,159.61 L118.438,159.372 L118.592,159.372 C118.704001,159.185332 118.783333,159.045334 118.83,158.952 L119.026,158.868 L119.124,158.882 L119.096,158.602 L118.97,158.322 L119.166,158.028 L119.278,157.678 C119.362,157.678 119.441333,157.673333 119.516,157.664 C119.590667,157.654667 119.623333,157.65 119.614,157.65 C119.67,157.65 119.800666,157.696666 120.006,157.79 L120.034,157.902 L120.188,158.028 L120.202,158.14 L120.342,158.252 L120.272,158.322 C120.412001,158.378 120.482,158.457333 120.482,158.56 C120.482,158.597334 120.472667,158.644 120.454,158.7 L120.454,158.924 L120.622,159.176 L120.538,159.246 L120.524,159.316 L120.552,159.33 L120.594,159.554 L120.79,159.708 L120.636,159.904 L120.566,160.212 L120.664,160.436 L120.636,160.758 L120.762,161.178 C120.818,161.364668 120.846,161.513999 120.846,161.626 C120.846,161.691334 120.804,161.779999 120.72,161.892 C120.785334,161.929334 120.818,161.985333 120.818,162.06 C120.818,162.125334 120.79,162.209333 120.734,162.312 L120.79,162.368 L120.748,163.152 L120.902,163.586 L120.902,164.048 C120.958,164.132 121.004666,164.225333 121.042,164.328 C121.060667,164.356 121.163332,164.467999 121.35,164.664 C121.452667,164.776001 121.508667,164.878666 121.518,164.972 Z M127.608,161.724 L127.524,161.976 C127.524,162.218668 127.51,162.409999 127.482,162.55 L127.398,162.69 L127.398,162.844 L127.328,162.942 L127.286,163.138 L127.132,163.292 L127.034,163.642 L126.922,163.684 L126.866,163.838 L126.698,163.936 L126.586,164.174 L126.418,164.258 L126.404,164.426 L126.138,164.524 C126.016666,164.692001 125.867334,164.799333 125.69,164.846 L125.634,164.86 C125.503333,165.056001 125.330668,165.154 125.116,165.154 C125.022666,165.21 124.915334,165.238 124.794,165.238 L124.654,165.336 L124.514,165.378 L124.332,165.518 L124.15,165.504 L123.954,165.56 L123.716,165.462 L123.114,165.42 L122.904,165.098 L122.596,164.776 L122.666,164.552 L122.456,164.076 L122.554,163.894 L122.484,163.558 L122.554,163.348 C122.535333,163.217333 122.526,163.124 122.526,163.068 C122.526,162.890666 122.572666,162.76 122.666,162.676 C122.675333,162.582666 122.735999,162.428668 122.848,162.214 L122.918,162.214 L122.89,162.116 L122.932,161.92 L122.932,161.71 C123.006667,161.626 123.048667,161.57 123.058,161.542 L123.016,161.346 L123.016,161.29 C123.081334,161.159333 123.114,161.024001 123.114,160.884 L123.408,160.478 L123.443,160.45 C123.466333,160.431333 123.487333,160.412667 123.506,160.394 L123.492,160.338 L123.548,160.338 L123.758,160.1 L123.772,159.778 L124.122,159.652 C124.252667,159.568 124.336666,159.428001 124.374,159.232 L124.556,159.232 C124.658667,159.176 124.752,159.148 124.836,159.148 C124.92,159.148 124.999333,159.166666 125.074,159.204 L125.228,159.218 L125.592,159.078 L125.788,159.26 L125.942,159.358 L126.054,159.358 L126.264,159.47 L126.376,159.47 C126.497334,159.582001 126.637333,159.735999 126.796,159.932 L126.824,160.002 L126.922,160.058 L127.216,160.436 L127.482,161.094 L127.482,161.234 L127.608,161.724 Z M126.684,162.06 L126.67,161.99 C126.604666,161.924666 126.567333,161.854667 126.558,161.78 L126.6,161.71 L126.474,161.444 L126.502,161.178 L126.446,161.108 C126.324666,161.014666 126.259333,160.94 126.25,160.884 C126.166,160.846666 126.124,160.753334 126.124,160.604 L126.04,160.59 L125.872,160.31 L125.746,160.212 L125.452,160.1 L125.34,160.072 C125.284,160.072 125.246667,160.053334 125.228,160.016 L124.948,160.324 L124.766,160.716 L124.472,160.87 L124.43,161.024 L124.29,161.094 L124.234,161.458 L124.066,161.542 C124.028666,161.672667 124.01,161.793999 124.01,161.906 L123.786,162.116 L123.856,162.158 C123.856,162.270001 123.814,162.368 123.73,162.452 C123.702,162.536 123.664667,162.629333 123.618,162.732 L123.618,162.844 L123.576,162.9 L123.59,163.068 L123.436,163.446 L123.464,163.516 L123.464,163.908 L123.408,164.104 L123.422,164.3 L123.548,164.482 L123.744,164.552 L123.814,164.58 L123.926,164.524 L124.29,164.552 L124.346,164.412 L124.402,164.412 C124.458,164.412 124.490667,164.426 124.5,164.454 L124.626,164.412 L124.738,164.454 L124.92,164.328 L124.948,164.286 L125.074,164.258 C125.139334,164.155333 125.293332,164.052667 125.536,163.95 L125.564,163.88 L125.844,163.684 L125.998,163.46 L126.222,163.348 L126.236,163.278 L126.306,163.124 L126.306,162.942 L126.474,162.802 L126.53,162.704 L126.6,162.62 C126.562666,162.507999 126.544,162.428667 126.544,162.382 C126.544,162.298 126.572,162.209334 126.628,162.116 L126.684,162.06 Z M135.196,163.992 L135.028,164.58 L134.916,164.748 C134.766666,164.972001 134.622001,165.084 134.482,165.084 C134.369999,165.084 134.220668,165.004667 134.034,164.846 L133.754,164.44 L133.628,164.188 L133.572,163.936 L133.446,163.516 L133.446,162.9 L133.404,162.368 L133.446,162.074 L133.418,161.99 L133.068,162.48 L133.026,162.48 L133.012,162.522 L132.774,162.9 L132.382,163.32 L132.088,163.726 L131.78,164.02 C131.696,164.169334 131.598001,164.299999 131.486,164.412 L131.206,164.608 L131.038,164.832 L130.73,164.93 L130.604,165.084 L130.296,165.14 L130.044,165.294 L130.002,165.28 L129.974,165.35 L129.54,165.294 L129.022,164.93 C128.881999,164.771333 128.793334,164.598668 128.756,164.412 C128.774667,164.402667 128.793333,164.386333 128.812,164.363 C128.830667,164.339667 128.844667,164.323333 128.854,164.314 C128.844667,164.304667 128.793334,164.281334 128.7,164.244 L128.574,163.964 L128.644,163.866 L128.574,163.698 L128.644,163.502 L128.616,163.25 L128.714,162.844 L128.714,162.41 L128.812,162.284 L128.812,161.99 L128.91,161.808 L128.938,161.598 L128.966,161.57 L128.966,161.388 L129.106,161.164 L129.134,160.968 L129.218,160.828 L129.26,160.744 L129.316,160.408 L129.414,160.114 L129.484,160.044 L129.512,159.862 L129.694,159.666 C129.712667,159.619333 129.754666,159.521334 129.82,159.372 L130.17,159.218 L130.394,158.98 L131.038,158.798 C131.140667,158.798 131.22,158.793333 131.276,158.784 L131.374,158.84 L131.402,158.728 L131.724,158.7 L131.836,158.742 L131.934,158.728 L132.018,158.798 L132.284,158.812 L132.34,158.77 L132.41,158.826 L132.55,158.84 L132.55,158.938 L132.606,158.98 L132.886,159.036 L133.096,159.274 L133.376,159.484 L133.446,159.624 L133.46,159.638 L133.516,159.442 L133.6,159.26 L133.572,158.938 L133.628,158.35 L133.544,158.126 L133.656,157.958 L133.6,157.804 L133.642,157.412 L133.6,157.076 L133.474,156.978 L133.67,156.754 L133.67,156.6 C133.67,156.441333 133.609334,156.268668 133.488,156.082 L133.572,156.082 L133.726,155.858 C133.866001,155.83 133.991999,155.816 134.104,155.816 C134.234667,155.816 134.342,155.844 134.426,155.9 C134.575334,155.946667 134.65,156.170665 134.65,156.572 L134.58,156.572 L134.566,156.628 L134.692,156.74 L134.608,156.964 L134.734,157.23 L134.664,157.314 C134.692,157.379334 134.706,157.444666 134.706,157.51 C134.706,157.575334 134.692,157.645333 134.664,157.72 L134.734,157.804 C134.752667,157.841334 134.762,157.902 134.762,157.986 C134.762,158.088667 134.738667,158.182 134.692,158.266 C134.645333,158.854003 134.603334,159.217999 134.566,159.358 C134.575333,159.386 134.58,159.428 134.58,159.484 C134.58,159.558667 134.566,159.638 134.538,159.722 L134.538,159.806 C134.538,159.918001 134.519334,160.043999 134.482,160.184 L134.44,160.604 L134.37,160.716 L134.412,160.842 L134.342,161.052 L134.412,161.234 L134.3,161.668 L134.37,161.99 L134.328,162.172 L134.356,162.452 C134.384,162.517334 134.398,162.578 134.398,162.634 C134.398,162.680667 134.393333,162.718 134.384,162.746 L134.468,162.83 L134.356,163.11 L134.468,163.404 L134.426,163.488 L134.468,163.572 L134.426,163.656 L134.468,163.698 L134.594,163.81 L134.832,163.838 L135.196,163.992 Z M133.11,160.576 L133.054,160.548 C132.988666,160.510666 132.930334,160.45 132.879,160.366 C132.827666,160.282 132.778667,160.198 132.732,160.114 C132.638666,160.086 132.559334,160.025334 132.494,159.932 L132.41,159.932 L132.158,159.778 L131.836,159.708 L131.528,159.75 L131.206,159.834 L131.108,159.75 L130.996,159.792 L130.996,159.848 L130.87,159.876 C130.786,160.025334 130.655334,160.155999 130.478,160.268 L130.366,160.506 L130.254,160.59 L130.156,160.814 L130.114,161.276 L129.988,161.388 L129.988,161.64 L129.848,161.738 L129.876,162.074 L129.638,162.536 L129.596,162.76 L129.568,163.124 L129.652,163.278 L129.554,163.432 L129.638,163.53 L129.498,163.782 L129.568,163.908 L129.624,164.076 L129.708,164.132 L129.806,164.132 L129.932,164.02 L130.044,164.034 L130.282,163.936 L130.31,163.852 L130.576,163.754 L130.604,163.67 L130.772,163.572 L130.772,163.544 L131.122,163.18 L131.29,163.11 L131.374,162.928 L131.556,162.9 L131.78,162.648 L131.738,162.62 L131.836,162.522 L131.976,162.228 L132.102,162.102 L132.172,161.794 L132.396,161.724 L132.55,161.5 L132.606,161.458 L132.606,161.206 L132.816,161.108 L133.11,160.576 Z M144.408,164.188 C144.408,164.300001 144.324001,164.435333 144.156,164.594 L144.044,164.636 L143.946,164.762 L143.694,164.832 C143.647333,164.897334 143.600667,164.93 143.554,164.93 C143.544667,164.93 143.535333,164.925333 143.526,164.916 L143.484,164.916 C143.278666,165.018667 143.031335,165.07 142.742,165.07 L142.63,165.07 L142.28,165 L142.042,164.888 L141.51,164.44 L141.398,164.062 L141.174,163.88 C141.202,163.842666 141.216,163.782 141.216,163.698 C141.216,163.642 141.178667,163.548667 141.104,163.418 L141.146,163.082 L141.146,163.026 C141.146,162.913999 141.113334,162.769334 141.048,162.592 L141.132,162.172 L140.95,162.536 L140.74,162.564 L140.712,162.858 C140.637333,162.895334 140.548667,162.914 140.446,162.914 L140.292,163.25 L140.11,163.46 C140.035333,163.544 139.97,163.590667 139.914,163.6 L139.872,163.628 L139.368,164.146 L139.312,164.146 L139.046,164.454 L138.794,164.58 L138.654,164.762 L138.332,164.86 L137.87,165.042 L137.59,164.902 C137.403332,164.902 137.272667,164.818001 137.198,164.65 L137.072,164.58 C137.072,164.552 137.076667,164.514667 137.086,164.468 L137.086,164.37 L136.862,164.174 L136.918,164.09 L136.75,163.698 L136.806,163.642 L136.778,163.614 L136.778,163.53 C136.768667,163.502 136.764,163.478667 136.764,163.46 C136.764,163.357333 136.778,163.259334 136.806,163.166 L136.82,162.802 L136.764,162.508 C136.810667,162.433333 136.834,162.368 136.834,162.312 C136.834,162.246666 136.806,162.186 136.75,162.13 L136.904,162.018 L136.904,161.85 L136.848,161.388 L137.002,160.492 C137.002,160.342666 136.96,160.123335 136.876,159.834 C136.904,159.535332 137.099998,159.372 137.464,159.344 L137.576,159.386 L137.772,159.414 L138.024,159.694 L137.94,160.058 L137.912,160.66 L137.954,161.122 L137.87,161.29 L137.912,161.402 L137.842,161.626 L137.842,161.766 L137.814,161.808 C137.823333,161.836 137.828,161.878 137.828,161.934 C137.828,162.055334 137.809334,162.181333 137.772,162.312 L137.842,162.41 L137.786,162.62 L137.814,162.788 L137.814,162.984 C137.860667,163.04 137.884,163.11 137.884,163.194 C137.884,163.268667 137.865334,163.343333 137.828,163.418 L137.828,163.474 C137.874667,163.632667 137.898,163.735333 137.898,163.782 L138.024,163.908 C138.08,163.870666 138.145333,163.824 138.22,163.768 C138.248,163.674666 138.313333,163.614 138.416,163.586 L138.416,163.446 C138.472,163.446 138.560666,163.432 138.682,163.404 L138.71,163.278 L138.948,163.18 L138.99,163.138 C139.055334,163.072666 139.162666,163.012 139.312,162.956 L139.312,162.9 L139.578,162.704 C139.643334,162.526666 139.759999,162.41 139.928,162.354 C140.030667,162.251333 140.100666,162.190667 140.138,162.172 L140.32,161.934 L140.32,161.892 L140.376,161.864 L140.502,161.808 L140.572,161.612 L140.866,161.486 L140.922,161.472 L141.02,161.374 L141.02,161.248 L141.104,161.22 C141.132,161.070666 141.206666,160.958667 141.328,160.884 L141.538,160.408 L141.608,160.156 L141.636,160.1 L141.692,160.1 L141.79,160.03 L141.706,160.002 C141.808667,159.833999 141.888,159.656668 141.944,159.47 L142.35,159.456 L142.672,159.722 L142.812,159.946 L142.658,160.548 L142.448,160.828 L142.28,161.374 L142.14,161.458 L142.14,161.668 L142.056,161.822 L142.098,162.074 L141.986,162.172 L142.042,162.62 L142.07,163.25 L142.14,163.25 L142.14,163.614 L142.336,163.852 L142.518,163.95 L142.532,164.02 C142.597334,164.029333 142.676666,164.052666 142.77,164.09 L143.12,164.118 L143.33,164.062 L143.708,163.88 C143.782667,163.842666 143.875999,163.824 143.988,163.824 C144.268001,163.824 144.408,163.945332 144.408,164.188 Z M149.14,163.474 C149.14,163.576667 149.102667,163.660666 149.028,163.726 C148.953333,163.838001 148.832001,163.954666 148.664,164.076 L148.524,164.174 L148.398,164.342 L148.272,164.398 L148.076,164.524 L147.936,164.538 L147.88,164.594 C147.693332,164.65 147.548667,164.743333 147.446,164.874 C147.380666,164.920667 147.32,164.944 147.264,164.944 C147.226666,164.944 147.194,164.939333 147.166,164.93 C147.007333,165.023334 146.802001,165.07 146.55,165.07 C146.335332,165.07 146.195334,165.051334 146.13,165.014 L145.878,164.874 L145.794,164.734 L145.794,164.692 C145.794,164.570666 145.742667,164.472667 145.64,164.398 L145.584,164.118 L145.472,163.992 L145.402,163.474 L145.388,163.166 L145.402,162.942 L145.43,162.858 C145.402,162.802 145.388,162.741334 145.388,162.676 C145.434667,162.283998 145.458,162.036667 145.458,161.934 L145.332,161.682 L145.458,161.472 L145.5,161.122 L145.472,160.884 L145.556,160.674 L145.472,160.394 L145.598,160.198 L145.612,160.072 L145.612,159.582 L145.654,159.484 L145.64,158.896 L145.682,158.294 L145.626,158.182 L145.612,157.762 L145.654,157.384 L145.612,157.244 L145.696,156.404 C146.088002,156.310666 146.260667,156.264 146.214,156.264 C146.363334,156.264 146.484666,156.343333 146.578,156.502 L146.606,156.614 L146.816,156.824 L146.704,157.118 L146.732,157.174 C146.713333,157.351334 146.69,157.468 146.662,157.524 L146.69,157.818 L146.76,158.084 L146.662,158.378 C146.662,158.536667 146.638667,158.681333 146.592,158.812 C146.592,158.858667 146.582667,158.933333 146.564,159.036 L146.55,159.12 L146.676,159.274 L146.62,159.428 C146.638667,159.502667 146.648,159.554 146.648,159.582 C146.648,159.638 146.629334,159.712666 146.592,159.806 L146.62,159.932 L146.536,160.38 L146.536,160.674 L146.438,160.968 L146.494,161.234 L146.438,161.85 L146.48,161.92 L146.41,162.242 L146.382,162.634 C146.363333,162.69 146.354,162.722667 146.354,162.732 C146.354,162.890667 146.349333,163.021333 146.34,163.124 L146.41,163.32 L146.382,163.53 L146.466,163.712 L146.452,163.782 C146.508,163.828667 146.559333,163.903333 146.606,164.006 L146.732,164.006 L146.914,164.062 L146.998,163.95 L147.124,163.936 C147.18,163.917333 147.222,163.908 147.25,163.908 L147.292,163.908 C147.385334,163.889333 147.46,163.842667 147.516,163.768 L147.6,163.726 C147.665334,163.623333 147.772666,163.553334 147.922,163.516 C147.968667,163.478666 148.057333,163.404001 148.188,163.292 C148.188,163.161333 148.267333,163.063334 148.426,162.998 C148.566001,162.998 148.659333,162.974667 148.706,162.928 C148.892668,162.956 149.011666,163.005 149.063,163.075 C149.114334,163.145 149.14,163.277999 149.14,163.474 Z M154.236,163.852 C154.236,163.964001 154.152001,164.103999 153.984,164.272 C153.937333,164.421334 153.867334,164.542666 153.774,164.636 L153.69,164.65 L153.536,164.916 L153.284,164.958 L153.018,165.126 L152.878,165.378 L152.724,165.35 C152.621333,165.396667 152.537334,165.424667 152.472,165.434 L152.388,165.56 C152.36,165.550667 152.318,165.546 152.262,165.546 C152.140666,165.546 152.024001,165.629999 151.912,165.798 L151.716,165.63 C151.678666,165.639333 151.622667,165.644 151.548,165.644 C151.426666,165.644 151.324,165.625334 151.24,165.588 L151.002,165.588 L150.89,165.518 C150.535332,165.462 150.311334,165.326668 150.218,165.112 L150.218,165.07 L150.05,164.986 L149.966,164.748 L149.798,164.636 L149.798,164.426 L149.63,163.81 L149.658,163.306 L149.714,163.082 L149.714,162.788 L149.784,162.564 L149.77,162.466 L149.868,162.298 L149.84,162.326 C149.84,162.242 149.863333,162.153334 149.91,162.06 L149.91,161.99 L149.868,161.654 C149.868,161.495333 149.937999,161.355334 150.078,161.234 C150.087333,161.215333 150.092,161.187334 150.092,161.15 C150.092,161.112666 150.075667,161.035667 150.043,160.919 C150.010333,160.802333 149.994,160.720667 149.994,160.674 C149.994,160.561999 150.022,160.445334 150.078,160.324 C150.152667,160.436001 150.259999,160.492 150.4,160.492 L150.442,160.492 C150.460667,160.454666 150.502666,160.412667 150.568,160.366 C150.642667,160.132666 150.745333,159.936667 150.876,159.778 L150.932,159.722 C150.932,159.684666 150.96,159.577334 151.016,159.4 L151.128,159.4 L151.156,159.33 L151.268,159.302 C151.314667,159.227333 151.345,159.183 151.359,159.169 C151.373,159.155 151.473332,159.096667 151.66,158.994 C151.697334,158.928666 151.753333,158.868 151.828,158.812 C151.865334,158.793333 151.912,158.774667 151.968,158.756 L152.024,158.672 C152.276001,158.588 152.434666,158.546 152.5,158.546 C152.574667,158.546 152.644666,158.564666 152.71,158.602 L152.78,158.588 L152.878,158.644 C152.990001,158.728 153.101999,158.798 153.214,158.854 L153.452,159.036 L153.452,159.092 C153.666668,159.260001 153.774,159.497998 153.774,159.806 L153.732,159.946 L153.774,160.408 L153.648,160.492 L153.508,160.856 L153.242,161.15 L153.228,161.374 C152.929332,161.588668 152.654001,161.761333 152.402,161.892 C152.318,162.022667 152.187334,162.088 152.01,162.088 L151.968,162.088 L151.702,162.256 L151.478,162.256 L151.142,162.396 L150.89,162.27 L150.862,162.27 C150.843333,162.344667 150.824667,162.456666 150.806,162.606 L150.694,162.69 L150.68,162.858 L150.596,163.096 C150.624,163.320001 150.638,163.464666 150.638,163.53 L150.582,163.572 C150.582,163.693334 150.577333,163.782 150.568,163.838 C150.568,163.847333 150.563333,163.861333 150.554,163.88 L150.554,163.922 C150.554,163.996667 150.591333,164.057333 150.666,164.104 C150.694,164.216001 150.740666,164.286 150.806,164.314 L150.904,164.398 L151.212,164.482 L151.212,164.524 L151.324,164.552 L151.8,164.58 L152.08,164.538 L152.22,164.44 L152.304,164.412 L152.444,164.202 L152.514,164.188 L152.864,164.076 C152.901334,164.010666 152.962,163.954667 153.046,163.908 L153.088,163.838 C153.274668,163.800666 153.382,163.702667 153.41,163.544 C153.540667,163.413333 153.708666,163.348 153.914,163.348 L153.97,163.348 C154.147334,163.553334 154.236,163.721333 154.236,163.852 Z M152.85,159.82 C152.85,159.792 152.836,159.736 152.808,159.652 L152.738,159.638 L152.71,159.652 L152.654,159.652 C152.635333,159.661333 152.616667,159.666 152.598,159.666 C152.588667,159.666 152.574667,159.661333 152.556,159.652 L152.514,159.652 L152.374,159.75 L152.248,159.764 L152.178,159.792 L151.94,160.1 L151.786,160.212 L151.562,160.604 L151.436,160.688 C151.408,160.846667 151.342667,160.981999 151.24,161.094 L151.184,161.192 C151.286667,161.126666 151.403333,161.094 151.534,161.094 L151.632,161.052 L151.674,160.926 L151.87,160.94 L151.982,160.772 L152.066,160.772 L152.22,160.828 L152.29,160.618 L152.388,160.618 L152.388,160.464 L152.57,160.422 L152.612,160.38 L152.64,160.254 L152.822,159.988 C152.840667,159.941333 152.85,159.885334 152.85,159.82 Z M166.738,162.2 L166.738,162.242 C166.728667,162.260667 166.724,162.274667 166.724,162.284 L166.668,162.424 L166.626,162.634 L166.346,163.012 L166.248,163.222 L165.954,163.348 L165.856,163.474 L165.464,163.586 L165.212,163.726 L165.086,163.726 L165.002,163.852 L164.638,163.852 C164.525999,163.992001 164.353334,164.062 164.12,164.062 C164.082666,164.024666 164.059333,164.006 164.05,164.006 C164.031333,164.006 163.970667,164.038666 163.868,164.104 L163.63,164.076 L163.532,164.118 L163.266,164.09 L163.336,164.132 C163.111999,164.188 162.948667,164.216 162.846,164.216 C162.799333,164.216 162.766667,164.211333 162.748,164.202 C162.477332,164.286 162.258001,164.328 162.09,164.328 C162.080667,164.328 162.057334,164.323333 162.02,164.314 L161.95,164.314 L161.74,164.37 L161.558,164.3 L161.46,164.342 L161.278,164.524 L161.026,164.468 C160.998,164.458667 160.946667,164.44 160.872,164.412 L160.844,164.426 L160.676,164.468 L160.648,164.748 L160.564,164.972 L160.13,165.476 L159.948,165.308 L159.654,165.308 L159.724,164.818 L159.724,164.65 L159.626,164.58 C159.588666,164.598667 159.523334,164.636 159.43,164.692 L159.052,164.692 L158.786,164.51 L158.674,164.188 L158.87,164.006 C159.028667,163.856666 159.247999,163.749334 159.528,163.684 L159.514,163.656 C159.495333,163.6 159.486,163.553334 159.486,163.516 C159.486,163.450666 159.504666,163.385334 159.542,163.32 L159.5,162.676 L159.57,162.508 L159.57,162.214 L159.64,162.06 L159.472,161.78 L159.668,161.388 L159.598,160.548 L159.626,160.226 L159.626,160.016 L159.5,159.708 L159.5,159.274 L159.416,159.078 L159.332,159.036 L159.024,159.176 L158.492,159.218 C158.323999,159.218 158.202667,159.059335 158.128,158.742 L158.03,158.308 C158.263334,158.111999 158.477999,158.014 158.674,158.014 L158.702,158.014 C158.972668,157.939333 159.215332,157.902 159.43,157.902 C159.458,157.902 159.5,157.913667 159.556,157.937 C159.612,157.960333 159.663333,157.972 159.71,157.972 C159.700667,157.972 159.817332,157.944 160.06,157.888 L160.116,158.042 L160.312,158 L160.438,158.042 L160.62,158 L161.166,158.126 L161.348,158.238 L161.754,158.168 L161.908,158.406 L161.992,158.42 L162.23,158.574 L162.37,158.588 L162.538,158.658 L162.594,158.658 C162.743334,158.658 162.873999,158.7 162.986,158.784 C163.256668,158.858667 163.466666,158.979999 163.616,159.148 C163.690667,159.166667 163.756,159.19 163.812,159.218 C163.933334,159.311334 164.059333,159.362667 164.19,159.372 L164.582,159.652 L164.96,159.974 L164.918,160.016 L165.24,159.988 L165.38,160.086 L165.422,160.296 C165.674001,160.501334 165.921332,160.753332 166.164,161.052 C166.173333,161.08 166.182667,161.112666 166.192,161.15 L166.416,161.276 L166.416,161.626 L166.542,161.752 C166.542,161.826667 166.546667,161.873333 166.556,161.892 L166.598,161.92 C166.691334,162.032001 166.738,162.125333 166.738,162.2 Z M165.646,162.298 L165.604,162.032 L165.17,161.486 L165.03,161.486 L164.876,161.108 C164.670666,161.014666 164.530667,160.94 164.456,160.884 L164.414,160.716 L164.344,160.66 L163.924,160.534 L163.798,160.31 L162.804,159.764 L162.734,159.764 C162.706,159.773333 162.682667,159.778 162.664,159.778 C162.523999,159.778 162.398001,159.736 162.286,159.652 L162.244,159.54 L161.978,159.54 L161.908,159.484 L161.726,159.442 C161.698,159.451333 161.660667,159.456 161.614,159.456 C161.53,159.456 161.478667,159.437334 161.46,159.4 L161.446,159.358 L161.278,159.246 L161.026,159.232 C160.932666,159.138666 160.834667,159.092 160.732,159.092 L160.634,159.316 L160.564,159.316 L160.718,159.652 L160.634,159.764 C160.708667,159.941334 160.746,160.053333 160.746,160.1 L160.746,160.17 C160.746,160.235334 160.736667,160.291333 160.718,160.338 L160.844,160.702 L160.718,160.744 L160.732,160.828 L160.732,161.29 C160.732,161.308667 160.713334,161.411332 160.676,161.598 L160.774,161.682 L160.62,162.102 L160.662,162.41 L160.536,162.676 L160.662,162.872 L160.634,163.152 L160.704,163.32 L160.62,163.516 L160.634,163.572 L160.774,163.558 L161.25,163.488 C161.362001,163.450666 161.483333,163.432 161.614,163.432 C161.754001,163.432 161.875333,163.450666 161.978,163.488 C162.164668,163.488 162.374665,163.422667 162.608,163.292 C163.056002,163.264 163.228667,163.25 163.126,163.25 C163.163334,163.25 163.205333,163.254667 163.252,163.264 C163.298667,163.273333 163.331333,163.278 163.35,163.278 C163.452667,163.278 163.522666,163.254667 163.56,163.208 L163.784,163.152 C163.924001,163.058666 164.054666,163.012 164.176,163.012 C164.222667,163.012 164.278666,163.026 164.344,163.054 C164.418667,163.026 164.474666,163.012 164.512,163.012 L164.666,162.802 L164.89,162.858 L164.988,162.816 L165.184,162.676 L165.268,162.676 L165.632,162.41 L165.646,162.298 Z M172.128,163.852 C172.128,163.964001 172.044001,164.103999 171.876,164.272 C171.829333,164.421334 171.759334,164.542666 171.666,164.636 L171.582,164.65 L171.428,164.916 L171.176,164.958 L170.91,165.126 L170.77,165.378 L170.616,165.35 C170.513333,165.396667 170.429334,165.424667 170.364,165.434 L170.28,165.56 C170.252,165.550667 170.21,165.546 170.154,165.546 C170.032666,165.546 169.916001,165.629999 169.804,165.798 L169.608,165.63 C169.570666,165.639333 169.514667,165.644 169.44,165.644 C169.318666,165.644 169.216,165.625334 169.132,165.588 L168.894,165.588 L168.782,165.518 C168.427332,165.462 168.203334,165.326668 168.11,165.112 L168.11,165.07 L167.942,164.986 L167.858,164.748 L167.69,164.636 L167.69,164.426 L167.522,163.81 L167.55,163.306 L167.606,163.082 L167.606,162.788 L167.676,162.564 L167.662,162.466 L167.76,162.298 L167.732,162.326 C167.732,162.242 167.755333,162.153334 167.802,162.06 L167.802,161.99 L167.76,161.654 C167.76,161.495333 167.829999,161.355334 167.97,161.234 C167.979333,161.215333 167.984,161.187334 167.984,161.15 C167.984,161.112666 167.967667,161.035667 167.935,160.919 C167.902333,160.802333 167.886,160.720667 167.886,160.674 C167.886,160.561999 167.914,160.445334 167.97,160.324 C168.044667,160.436001 168.151999,160.492 168.292,160.492 L168.334,160.492 C168.352667,160.454666 168.394666,160.412667 168.46,160.366 C168.534667,160.132666 168.637333,159.936667 168.768,159.778 L168.824,159.722 C168.824,159.684666 168.852,159.577334 168.908,159.4 L169.02,159.4 L169.048,159.33 L169.16,159.302 C169.206667,159.227333 169.237,159.183 169.251,159.169 C169.265,159.155 169.365332,159.096667 169.552,158.994 C169.589334,158.928666 169.645333,158.868 169.72,158.812 C169.757334,158.793333 169.804,158.774667 169.86,158.756 L169.916,158.672 C170.168001,158.588 170.326666,158.546 170.392,158.546 C170.466667,158.546 170.536666,158.564666 170.602,158.602 L170.672,158.588 L170.77,158.644 C170.882001,158.728 170.993999,158.798 171.106,158.854 L171.344,159.036 L171.344,159.092 C171.558668,159.260001 171.666,159.497998 171.666,159.806 L171.624,159.946 L171.666,160.408 L171.54,160.492 L171.4,160.856 L171.134,161.15 L171.12,161.374 C170.821332,161.588668 170.546001,161.761333 170.294,161.892 C170.21,162.022667 170.079334,162.088 169.902,162.088 L169.86,162.088 L169.594,162.256 L169.37,162.256 L169.034,162.396 L168.782,162.27 L168.754,162.27 C168.735333,162.344667 168.716667,162.456666 168.698,162.606 L168.586,162.69 L168.572,162.858 L168.488,163.096 C168.516,163.320001 168.53,163.464666 168.53,163.53 L168.474,163.572 C168.474,163.693334 168.469333,163.782 168.46,163.838 C168.46,163.847333 168.455333,163.861333 168.446,163.88 L168.446,163.922 C168.446,163.996667 168.483333,164.057333 168.558,164.104 C168.586,164.216001 168.632666,164.286 168.698,164.314 L168.796,164.398 L169.104,164.482 L169.104,164.524 L169.216,164.552 L169.692,164.58 L169.972,164.538 L170.112,164.44 L170.196,164.412 L170.336,164.202 L170.406,164.188 L170.756,164.076 C170.793334,164.010666 170.854,163.954667 170.938,163.908 L170.98,163.838 C171.166668,163.800666 171.274,163.702667 171.302,163.544 C171.432667,163.413333 171.600666,163.348 171.806,163.348 L171.862,163.348 C172.039334,163.553334 172.128,163.721333 172.128,163.852 Z M170.742,159.82 C170.742,159.792 170.728,159.736 170.7,159.652 L170.63,159.638 L170.602,159.652 L170.546,159.652 C170.527333,159.661333 170.508667,159.666 170.49,159.666 C170.480667,159.666 170.466667,159.661333 170.448,159.652 L170.406,159.652 L170.266,159.75 L170.14,159.764 L170.07,159.792 L169.832,160.1 L169.678,160.212 L169.454,160.604 L169.328,160.688 C169.3,160.846667 169.234667,160.981999 169.132,161.094 L169.076,161.192 C169.178667,161.126666 169.295333,161.094 169.426,161.094 L169.524,161.052 L169.566,160.926 L169.762,160.94 L169.874,160.772 L169.958,160.772 L170.112,160.828 L170.182,160.618 L170.28,160.618 L170.28,160.464 L170.462,160.422 L170.504,160.38 L170.532,160.254 L170.714,159.988 C170.732667,159.941333 170.742,159.885334 170.742,159.82 Z M178.414,162.928 L178.246,163.348 L178.358,163.628 L178.302,163.712 L178.246,163.936 L178.134,164.132 L178.078,164.16 L178.05,164.426 L177.798,164.454 C177.667333,164.575334 177.532001,164.673333 177.392,164.748 L177.308,164.734 L177.098,164.804 L176.972,164.818 L176.706,164.916 L176.398,164.776 L176.356,164.748 L176.118,164.762 L176.174,164.79 L175.782,164.734 L175.432,164.818 L175.292,164.692 L174.998,164.72 L174.886,164.636 C174.876667,164.636 174.839334,164.640667 174.774,164.65 L174.774,164.734 C174.774,164.818 174.76,164.902 174.732,164.986 L174.774,165.252 L174.662,165.392 C174.680667,165.597334 174.69,165.751333 174.69,165.854 L174.648,166.204 L174.704,166.736 L174.592,166.876 L174.648,167.086 L174.606,167.226 L174.69,167.268 L174.69,167.478 C174.708667,167.534 174.718,167.576 174.718,167.604 C174.718,167.688 174.666667,167.758 174.564,167.814 L174.62,168.01 L174.55,168.122 L174.522,168.682 C174.494,169.335337 174.349335,169.662 174.088,169.662 C174.032,169.662 173.868668,169.624667 173.598,169.55 L173.64,169.13 L173.556,168.514 L173.696,168.262 L173.71,167.954 L173.654,167.534 L173.766,167.352 L173.64,167.03 L173.738,166.862 L173.654,166.582 L173.766,166.33 C173.747333,166.274 173.712334,166.222667 173.661,166.176 C173.609666,166.129333 173.584,166.096667 173.584,166.078 C173.584,166.05 173.616666,166.022 173.682,165.994 C173.672667,165.966 173.668,165.919334 173.668,165.854 C173.668,165.732666 173.696,165.574001 173.752,165.378 L173.668,165.238 L173.71,165.056 L173.612,164.93 L173.738,164.776 L173.682,164.37 L173.766,163.796 L173.668,163.614 L173.822,163.348 L173.654,163.194 L173.752,162.928 L173.654,162.858 L173.668,162.62 L173.752,162.326 L173.752,162.27 L173.766,162.214 L173.766,162.06 L173.78,162.004 L173.71,161.78 L173.78,161.542 L173.71,161.36 L173.766,161.15 L173.71,161.094 L173.752,160.814 L173.71,160.66 L173.738,160.52 L173.696,160.422 L173.192,160.646 L173.192,160.562 L173.094,160.576 L172.94,160.716 L172.814,160.716 L172.646,160.94 L172.506,160.884 L172.436,161.024 C171.978664,160.753332 171.75,160.538667 171.75,160.38 C171.75,160.267999 171.792,160.174667 171.876,160.1 L171.862,159.89 C172.123335,159.740666 172.370665,159.661333 172.604,159.652 L172.702,159.554 L173.15,159.372 L173.248,159.274 L173.64,159.302 L173.71,159.274 L173.836,158.784 L174.172,158.854 L174.396,159.218 L174.522,159.092 L174.774,159.274 C174.895334,159.274 175.011999,159.297333 175.124,159.344 L175.194,159.47 L175.292,159.428 L175.404,159.512 C175.469334,159.512 175.520666,159.516667 175.558,159.526 L175.544,159.61 L175.852,159.512 L176.006,159.68 L176.272,159.764 L176.454,159.988 L176.79,160.198 L176.804,160.226 L177.07,160.31 L177.07,160.394 C177.144667,160.45 177.200666,160.524666 177.238,160.618 L177.35,160.688 L177.434,160.842 L177.602,160.842 L177.602,161.122 L177.7,161.22 L177.728,161.318 L177.868,161.346 C177.886667,161.560668 177.947333,161.742666 178.05,161.892 L178.05,161.99 L178.19,162.13 L178.162,162.354 L178.274,162.606 L178.316,162.9 L178.414,162.928 Z M177.364,163.138 L177.35,163.068 L177.364,163.012 L177.28,162.76 L177.336,162.634 L177.28,162.522 L177.266,162.382 L177.154,162.158 L177.098,162.004 L176.888,161.64 L176.72,161.5 L176.622,161.262 L176.496,161.206 L176.272,160.912 L176.048,160.94 L175.88,160.716 L175.74,160.744 L175.642,160.562 L175.586,160.548 L175.39,160.548 L175.25,160.618 L175.138,160.506 L174.998,160.534 L174.942,160.436 L174.69,160.394 L174.704,160.562 L174.676,160.828 L174.732,160.982 L174.928,161.164 L174.774,161.5 L174.788,161.71 L174.718,162.13 C174.746,162.307334 174.802,162.456666 174.886,162.578 L174.83,162.732 C174.839333,162.741333 174.844,162.750667 174.844,162.76 C174.844,162.788 174.806667,162.83 174.732,162.886 L174.83,163.012 L174.76,163.18 L174.732,163.362 L174.774,163.558 L174.76,163.74 L175.054,163.74 C175.091334,163.721333 175.142666,163.712 175.208,163.712 C175.292,163.712 175.366666,163.74 175.432,163.796 C175.441333,163.796 175.46,163.791333 175.488,163.782 L175.53,163.782 C175.558,163.782 175.609333,163.791333 175.684,163.81 C175.74,163.782 175.791333,163.768 175.838,163.768 C175.912667,163.768 175.982666,163.786666 176.048,163.824 L176.174,163.824 L176.286,163.852 L176.566,163.768 L176.79,163.908 C176.874,163.936 176.906667,163.95 176.888,163.95 L177.154,163.684 L177.182,163.488 L177.252,163.46 L177.21,163.348 L177.308,163.236 L177.364,163.138 Z M183.958,163.852 C183.958,163.964001 183.874001,164.103999 183.706,164.272 C183.659333,164.421334 183.589334,164.542666 183.496,164.636 L183.412,164.65 L183.258,164.916 L183.006,164.958 L182.74,165.126 L182.6,165.378 L182.446,165.35 C182.343333,165.396667 182.259334,165.424667 182.194,165.434 L182.11,165.56 C182.082,165.550667 182.04,165.546 181.984,165.546 C181.862666,165.546 181.746001,165.629999 181.634,165.798 L181.438,165.63 C181.400666,165.639333 181.344667,165.644 181.27,165.644 C181.148666,165.644 181.046,165.625334 180.962,165.588 L180.724,165.588 L180.612,165.518 C180.257332,165.462 180.033334,165.326668 179.94,165.112 L179.94,165.07 L179.772,164.986 L179.688,164.748 L179.52,164.636 L179.52,164.426 L179.352,163.81 L179.38,163.306 L179.436,163.082 L179.436,162.788 L179.506,162.564 L179.492,162.466 L179.59,162.298 L179.562,162.326 C179.562,162.242 179.585333,162.153334 179.632,162.06 L179.632,161.99 L179.59,161.654 C179.59,161.495333 179.659999,161.355334 179.8,161.234 C179.809333,161.215333 179.814,161.187334 179.814,161.15 C179.814,161.112666 179.797667,161.035667 179.765,160.919 C179.732333,160.802333 179.716,160.720667 179.716,160.674 C179.716,160.561999 179.744,160.445334 179.8,160.324 C179.874667,160.436001 179.981999,160.492 180.122,160.492 L180.164,160.492 C180.182667,160.454666 180.224666,160.412667 180.29,160.366 C180.364667,160.132666 180.467333,159.936667 180.598,159.778 L180.654,159.722 C180.654,159.684666 180.682,159.577334 180.738,159.4 L180.85,159.4 L180.878,159.33 L180.99,159.302 C181.036667,159.227333 181.067,159.183 181.081,159.169 C181.095,159.155 181.195332,159.096667 181.382,158.994 C181.419334,158.928666 181.475333,158.868 181.55,158.812 C181.587334,158.793333 181.634,158.774667 181.69,158.756 L181.746,158.672 C181.998001,158.588 182.156666,158.546 182.222,158.546 C182.296667,158.546 182.366666,158.564666 182.432,158.602 L182.502,158.588 L182.6,158.644 C182.712001,158.728 182.823999,158.798 182.936,158.854 L183.174,159.036 L183.174,159.092 C183.388668,159.260001 183.496,159.497998 183.496,159.806 L183.454,159.946 L183.496,160.408 L183.37,160.492 L183.23,160.856 L182.964,161.15 L182.95,161.374 C182.651332,161.588668 182.376001,161.761333 182.124,161.892 C182.04,162.022667 181.909334,162.088 181.732,162.088 L181.69,162.088 L181.424,162.256 L181.2,162.256 L180.864,162.396 L180.612,162.27 L180.584,162.27 C180.565333,162.344667 180.546667,162.456666 180.528,162.606 L180.416,162.69 L180.402,162.858 L180.318,163.096 C180.346,163.320001 180.36,163.464666 180.36,163.53 L180.304,163.572 C180.304,163.693334 180.299333,163.782 180.29,163.838 C180.29,163.847333 180.285333,163.861333 180.276,163.88 L180.276,163.922 C180.276,163.996667 180.313333,164.057333 180.388,164.104 C180.416,164.216001 180.462666,164.286 180.528,164.314 L180.626,164.398 L180.934,164.482 L180.934,164.524 L181.046,164.552 L181.522,164.58 L181.802,164.538 L181.942,164.44 L182.026,164.412 L182.166,164.202 L182.236,164.188 L182.586,164.076 C182.623334,164.010666 182.684,163.954667 182.768,163.908 L182.81,163.838 C182.996668,163.800666 183.104,163.702667 183.132,163.544 C183.262667,163.413333 183.430666,163.348 183.636,163.348 L183.692,163.348 C183.869334,163.553334 183.958,163.721333 183.958,163.852 Z M182.572,159.82 C182.572,159.792 182.558,159.736 182.53,159.652 L182.46,159.638 L182.432,159.652 L182.376,159.652 C182.357333,159.661333 182.338667,159.666 182.32,159.666 C182.310667,159.666 182.296667,159.661333 182.278,159.652 L182.236,159.652 L182.096,159.75 L181.97,159.764 L181.9,159.792 L181.662,160.1 L181.508,160.212 L181.284,160.604 L181.158,160.688 C181.13,160.846667 181.064667,160.981999 180.962,161.094 L180.906,161.192 C181.008667,161.126666 181.125333,161.094 181.256,161.094 L181.354,161.052 L181.396,160.926 L181.592,160.94 L181.704,160.772 L181.788,160.772 L181.942,160.828 L182.012,160.618 L182.11,160.618 L182.11,160.464 L182.292,160.422 L182.334,160.38 L182.362,160.254 L182.544,159.988 C182.562667,159.941333 182.572,159.885334 182.572,159.82 Z M187.475649,161.827575 L187.766,161.5 C187.730684,161.542379 187.633902,161.651569 187.47565,161.827574 L187.475649,161.827575 Z M187.22,162.116 L187.475649,161.827575 C187.427925,161.880653 187.374609,161.93981 187.315702,162.005043 C187.311826,162.009335 187.307925,162.013655 187.304,162.018 L187.304,162.046 L187.332,161.948 L187.514,161.738 L187.64,161.5 L187.64,161.36 L187.85,161.29 L187.878,161.108 L187.934,161.052 L187.948,160.982 L187.948,160.884 L188.144,160.688 L188.144,160.618 C188.134667,160.59 188.13,160.571333 188.13,160.562 C188.13,160.393999 188.223332,160.300667 188.41,160.282 C188.494,160.113999 188.619999,160.016 188.788,159.988 L188.872,159.862 L188.9,159.834 C188.984,159.712666 189.109999,159.628667 189.278,159.582 L189.404,159.428 L189.74,159.428 L189.908,159.624 L190.062,159.708 L190.076,159.75 L190.174,159.778 L190.202,160.072 L190.44,160.212 L190.342,160.52 L190.496,160.856 L190.496,161.248 L190.608,161.78 L190.636,162.284 L190.762,162.578 L190.846,162.942 C190.902,162.998 190.944,163.077333 190.972,163.18 L191.224,163.25 L191.224,163.53 L191.364,163.684 L191.364,163.726 L191.42,163.74 L191.476,163.824 L191.532,163.754 C191.513333,163.754 191.536666,163.758667 191.602,163.768 C191.704667,163.768 191.811999,163.674668 191.924,163.488 L192.092,163.446 L192.134,163.376 C192.162,163.301333 192.218,163.245334 192.302,163.208 L192.4,163.222 L192.456,163.166 L192.47,163.096 L192.512,163.04 C192.605334,162.974666 192.666,162.876667 192.694,162.746 L192.848,162.578 L192.876,162.452 L192.974,162.228 L193.24,162.13 L193.618,162.256 L193.744,162.662 C193.744,162.671333 193.748667,162.680667 193.758,162.69 L193.758,162.732 C193.758,162.806667 193.697334,162.904666 193.576,163.026 L193.422,163.264 L193.366,163.544 L193.24,163.586 L193.212,163.67 C193.062666,163.716667 192.955334,163.833332 192.89,164.02 C192.787333,164.150667 192.675334,164.244 192.554,164.3 C192.507333,164.346667 192.465334,164.379333 192.428,164.398 L192.358,164.524 L192.232,164.552 L191.868,164.748 L191.392,164.804 L191.266,164.776 L191.056,164.818 L190.972,164.72 C190.841333,164.654666 190.748,164.589334 190.692,164.524 C190.579999,164.496 190.496,164.407334 190.44,164.258 C190.281333,164.071332 190.202,163.922001 190.202,163.81 L190.202,163.768 L190.104,163.6 L190.076,163.572 L189.992,163.32 L189.866,163.054 L189.894,162.732 L189.754,162.55 L189.544,161.346 C189.516,161.187333 189.502,161.052001 189.502,160.94 L189.474,160.87 L189.404,160.772 L189.278,160.94 L188.774,161.472 L188.592,161.766 L188.494,161.962 L188.34,162.186 L188.228,162.298 L188.242,162.368 L188.046,162.802 L187.934,162.942 L187.794,162.97 L187.668,163.096 C187.668,163.282668 187.579334,163.404 187.402,163.46 L187.374,163.488 C187.29,163.693334 187.196667,163.819333 187.094,163.866 L186.968,164.062 C186.762666,164.248668 186.627334,164.365333 186.562,164.412 C186.534,164.505334 186.482667,164.584666 186.408,164.65 C186.389333,164.678 186.356667,164.715333 186.31,164.762 C186.282,164.920667 186.151334,165.032666 185.918,165.098 L185.764,165.14 C185.577332,165.130667 185.423334,165.023334 185.302,164.818 L185.092,164.468 L185.162,164.132 L185.134,163.95 L185.162,163.922 L185.176,163.74 L185.022,163.404 L185.134,163.236 L185.078,163.054 L185.176,162.858 L185.204,162.536 L185.148,162.48 L185.26,162.284 L185.218,162.186 L185.204,161.962 L185.26,161.542 C185.241333,161.448666 185.232,161.388 185.232,161.36 C185.232,161.341333 185.236667,161.322667 185.246,161.304 L185.246,161.248 L185.176,161.136 L185.218,160.688 L185.204,160.534 L185.246,160.31 L185.19,159.932 L185.442,159.512 C185.731335,159.558667 185.931999,159.621666 186.044,159.701 C186.156001,159.780334 186.212,159.922666 186.212,160.128 L186.212,160.254 L186.31,160.422 L186.268,160.716 L186.324,161.276 L186.226,161.542 L186.268,161.836 L186.268,162.074 L186.156,162.228 L186.24,162.48 L186.156,162.634 L186.142,162.788 L186.226,162.942 L186.114,163.236 L186.072,163.362 L186.072,163.488 L186.142,163.628 L186.38,163.39 C186.38,163.249999 186.426666,163.156667 186.52,163.11 C186.529333,163.016666 186.566666,162.946667 186.632,162.9 L186.59,162.858 L186.772,162.69 L186.814,162.634 L186.814,162.508 L187.038,162.34 L187.094,162.2 L187.22,162.116 Z M200.744,163.992 L200.576,164.58 L200.464,164.748 C200.314666,164.972001 200.170001,165.084 200.03,165.084 C199.917999,165.084 199.768668,165.004667 199.582,164.846 L199.302,164.44 L199.176,164.188 L199.12,163.936 L198.994,163.516 L198.994,162.9 L198.952,162.368 L198.994,162.074 L198.966,161.99 L198.616,162.48 L198.574,162.48 L198.56,162.522 L198.322,162.9 L197.93,163.32 L197.636,163.726 L197.328,164.02 C197.244,164.169334 197.146001,164.299999 197.034,164.412 L196.754,164.608 L196.586,164.832 L196.278,164.93 L196.152,165.084 L195.844,165.14 L195.592,165.294 L195.55,165.28 L195.522,165.35 L195.088,165.294 L194.57,164.93 C194.429999,164.771333 194.341334,164.598668 194.304,164.412 C194.322667,164.402667 194.341333,164.386333 194.36,164.363 C194.378667,164.339667 194.392667,164.323333 194.402,164.314 C194.392667,164.304667 194.341334,164.281334 194.248,164.244 L194.122,163.964 L194.192,163.866 L194.122,163.698 L194.192,163.502 L194.164,163.25 L194.262,162.844 L194.262,162.41 L194.36,162.284 L194.36,161.99 L194.458,161.808 L194.486,161.598 L194.514,161.57 L194.514,161.388 L194.654,161.164 L194.682,160.968 L194.766,160.828 L194.808,160.744 L194.864,160.408 L194.962,160.114 L195.032,160.044 L195.06,159.862 L195.242,159.666 C195.260667,159.619333 195.302666,159.521334 195.368,159.372 L195.718,159.218 L195.942,158.98 L196.586,158.798 C196.688667,158.798 196.768,158.793333 196.824,158.784 L196.922,158.84 L196.95,158.728 L197.272,158.7 L197.384,158.742 L197.482,158.728 L197.566,158.798 L197.832,158.812 L197.888,158.77 L197.958,158.826 L198.098,158.84 L198.098,158.938 L198.154,158.98 L198.434,159.036 L198.644,159.274 L198.924,159.484 L198.994,159.624 L199.008,159.638 L199.064,159.442 L199.148,159.26 L199.12,158.938 L199.176,158.35 L199.092,158.126 L199.204,157.958 L199.148,157.804 L199.19,157.412 L199.148,157.076 L199.022,156.978 L199.218,156.754 L199.218,156.6 C199.218,156.441333 199.157334,156.268668 199.036,156.082 L199.12,156.082 L199.274,155.858 C199.414001,155.83 199.539999,155.816 199.652,155.816 C199.782667,155.816 199.89,155.844 199.974,155.9 C200.123334,155.946667 200.198,156.170665 200.198,156.572 L200.128,156.572 L200.114,156.628 L200.24,156.74 L200.156,156.964 L200.282,157.23 L200.212,157.314 C200.24,157.379334 200.254,157.444666 200.254,157.51 C200.254,157.575334 200.24,157.645333 200.212,157.72 L200.282,157.804 C200.300667,157.841334 200.31,157.902 200.31,157.986 C200.31,158.088667 200.286667,158.182 200.24,158.266 C200.193333,158.854003 200.151334,159.217999 200.114,159.358 C200.123333,159.386 200.128,159.428 200.128,159.484 C200.128,159.558667 200.114,159.638 200.086,159.722 L200.086,159.806 C200.086,159.918001 200.067334,160.043999 200.03,160.184 L199.988,160.604 L199.918,160.716 L199.96,160.842 L199.89,161.052 L199.96,161.234 L199.848,161.668 L199.918,161.99 L199.876,162.172 L199.904,162.452 C199.932,162.517334 199.946,162.578 199.946,162.634 C199.946,162.680667 199.941333,162.718 199.932,162.746 L200.016,162.83 L199.904,163.11 L200.016,163.404 L199.974,163.488 L200.016,163.572 L199.974,163.656 L200.016,163.698 L200.142,163.81 L200.38,163.838 L200.744,163.992 Z M198.658,160.576 L198.602,160.548 C198.536666,160.510666 198.478334,160.45 198.427,160.366 C198.375666,160.282 198.326667,160.198 198.28,160.114 C198.186666,160.086 198.107334,160.025334 198.042,159.932 L197.958,159.932 L197.706,159.778 L197.384,159.708 L197.076,159.75 L196.754,159.834 L196.656,159.75 L196.544,159.792 L196.544,159.848 L196.418,159.876 C196.334,160.025334 196.203334,160.155999 196.026,160.268 L195.914,160.506 L195.802,160.59 L195.704,160.814 L195.662,161.276 L195.536,161.388 L195.536,161.64 L195.396,161.738 L195.424,162.074 L195.186,162.536 L195.144,162.76 L195.116,163.124 L195.2,163.278 L195.102,163.432 L195.186,163.53 L195.046,163.782 L195.116,163.908 L195.172,164.076 L195.256,164.132 L195.354,164.132 L195.48,164.02 L195.592,164.034 L195.83,163.936 L195.858,163.852 L196.124,163.754 L196.152,163.67 L196.32,163.572 L196.32,163.544 L196.67,163.18 L196.838,163.11 L196.922,162.928 L197.104,162.9 L197.328,162.648 L197.286,162.62 L197.384,162.522 L197.524,162.228 L197.65,162.102 L197.72,161.794 L197.944,161.724 L198.098,161.5 L198.154,161.458 L198.154,161.206 L198.364,161.108 L198.658,160.576 Z M206.554,163.852 C206.554,163.964001 206.470001,164.103999 206.302,164.272 C206.255333,164.421334 206.185334,164.542666 206.092,164.636 L206.008,164.65 L205.854,164.916 L205.602,164.958 L205.336,165.126 L205.196,165.378 L205.042,165.35 C204.939333,165.396667 204.855334,165.424667 204.79,165.434 L204.706,165.56 C204.678,165.550667 204.636,165.546 204.58,165.546 C204.458666,165.546 204.342001,165.629999 204.23,165.798 L204.034,165.63 C203.996666,165.639333 203.940667,165.644 203.866,165.644 C203.744666,165.644 203.642,165.625334 203.558,165.588 L203.32,165.588 L203.208,165.518 C202.853332,165.462 202.629334,165.326668 202.536,165.112 L202.536,165.07 L202.368,164.986 L202.284,164.748 L202.116,164.636 L202.116,164.426 L201.948,163.81 L201.976,163.306 L202.032,163.082 L202.032,162.788 L202.102,162.564 L202.088,162.466 L202.186,162.298 L202.158,162.326 C202.158,162.242 202.181333,162.153334 202.228,162.06 L202.228,161.99 L202.186,161.654 C202.186,161.495333 202.255999,161.355334 202.396,161.234 C202.405333,161.215333 202.41,161.187334 202.41,161.15 C202.41,161.112666 202.393667,161.035667 202.361,160.919 C202.328333,160.802333 202.312,160.720667 202.312,160.674 C202.312,160.561999 202.34,160.445334 202.396,160.324 C202.470667,160.436001 202.577999,160.492 202.718,160.492 L202.76,160.492 C202.778667,160.454666 202.820666,160.412667 202.886,160.366 C202.960667,160.132666 203.063333,159.936667 203.194,159.778 L203.25,159.722 C203.25,159.684666 203.278,159.577334 203.334,159.4 L203.446,159.4 L203.474,159.33 L203.586,159.302 C203.632667,159.227333 203.663,159.183 203.677,159.169 C203.691,159.155 203.791332,159.096667 203.978,158.994 C204.015334,158.928666 204.071333,158.868 204.146,158.812 C204.183334,158.793333 204.23,158.774667 204.286,158.756 L204.342,158.672 C204.594001,158.588 204.752666,158.546 204.818,158.546 C204.892667,158.546 204.962666,158.564666 205.028,158.602 L205.098,158.588 L205.196,158.644 C205.308001,158.728 205.419999,158.798 205.532,158.854 L205.77,159.036 L205.77,159.092 C205.984668,159.260001 206.092,159.497998 206.092,159.806 L206.05,159.946 L206.092,160.408 L205.966,160.492 L205.826,160.856 L205.56,161.15 L205.546,161.374 C205.247332,161.588668 204.972001,161.761333 204.72,161.892 C204.636,162.022667 204.505334,162.088 204.328,162.088 L204.286,162.088 L204.02,162.256 L203.796,162.256 L203.46,162.396 L203.208,162.27 L203.18,162.27 C203.161333,162.344667 203.142667,162.456666 203.124,162.606 L203.012,162.69 L202.998,162.858 L202.914,163.096 C202.942,163.320001 202.956,163.464666 202.956,163.53 L202.9,163.572 C202.9,163.693334 202.895333,163.782 202.886,163.838 C202.886,163.847333 202.881333,163.861333 202.872,163.88 L202.872,163.922 C202.872,163.996667 202.909333,164.057333 202.984,164.104 C203.012,164.216001 203.058666,164.286 203.124,164.314 L203.222,164.398 L203.53,164.482 L203.53,164.524 L203.642,164.552 L204.118,164.58 L204.398,164.538 L204.538,164.44 L204.622,164.412 L204.762,164.202 L204.832,164.188 L205.182,164.076 C205.219334,164.010666 205.28,163.954667 205.364,163.908 L205.406,163.838 C205.592668,163.800666 205.7,163.702667 205.728,163.544 C205.858667,163.413333 206.026666,163.348 206.232,163.348 L206.288,163.348 C206.465334,163.553334 206.554,163.721333 206.554,163.852 Z M205.168,159.82 C205.168,159.792 205.154,159.736 205.126,159.652 L205.056,159.638 L205.028,159.652 L204.972,159.652 C204.953333,159.661333 204.934667,159.666 204.916,159.666 C204.906667,159.666 204.892667,159.661333 204.874,159.652 L204.832,159.652 L204.692,159.75 L204.566,159.764 L204.496,159.792 L204.258,160.1 L204.104,160.212 L203.88,160.604 L203.754,160.688 C203.726,160.846667 203.660667,160.981999 203.558,161.094 L203.502,161.192 C203.604667,161.126666 203.721333,161.094 203.852,161.094 L203.95,161.052 L203.992,160.926 L204.188,160.94 L204.3,160.772 L204.384,160.772 L204.538,160.828 L204.608,160.618 L204.706,160.618 L204.706,160.464 L204.888,160.422 L204.93,160.38 L204.958,160.254 L205.14,159.988 C205.158667,159.941333 205.168,159.885334 205.168,159.82 Z M209.816,162.116 L210.071649,161.827575 C210.023925,161.880653 209.970609,161.93981 209.911702,162.005043 C209.907826,162.009335 209.903925,162.013655 209.9,162.018 L209.9,162.046 L209.928,161.948 L210.11,161.738 L210.236,161.5 L210.236,161.36 L210.446,161.29 L210.474,161.108 L210.53,161.052 L210.544,160.982 L210.544,160.884 L210.74,160.688 L210.74,160.618 C210.730667,160.59 210.726,160.571333 210.726,160.562 C210.726,160.393999 210.819332,160.300667 211.006,160.282 C211.09,160.113999 211.215999,160.016 211.384,159.988 L211.468,159.862 L211.496,159.834 C211.58,159.712666 211.705999,159.628667 211.874,159.582 L212,159.428 L212.336,159.428 L212.504,159.624 L212.658,159.708 L212.672,159.75 L212.77,159.778 L212.798,160.072 L213.036,160.212 L212.938,160.52 L213.092,160.856 L213.092,161.248 L213.204,161.78 L213.232,162.284 L213.358,162.578 L213.442,162.942 C213.498,162.998 213.54,163.077333 213.568,163.18 L213.82,163.25 L213.82,163.53 L213.96,163.684 L213.96,163.726 L214.016,163.74 L214.072,163.824 L214.128,163.754 C214.109333,163.754 214.132666,163.758667 214.198,163.768 C214.300667,163.768 214.407999,163.674668 214.52,163.488 L214.688,163.446 L214.73,163.376 C214.758,163.301333 214.814,163.245334 214.898,163.208 L214.996,163.222 L215.052,163.166 L215.066,163.096 L215.108,163.04 C215.201334,162.974666 215.262,162.876667 215.29,162.746 L215.444,162.578 L215.472,162.452 L215.57,162.228 L215.836,162.13 L216.214,162.256 L216.34,162.662 C216.34,162.671333 216.344667,162.680667 216.354,162.69 L216.354,162.732 C216.354,162.806667 216.293334,162.904666 216.172,163.026 L216.018,163.264 L215.962,163.544 L215.836,163.586 L215.808,163.67 C215.658666,163.716667 215.551334,163.833332 215.486,164.02 C215.383333,164.150667 215.271334,164.244 215.15,164.3 C215.103333,164.346667 215.061334,164.379333 215.024,164.398 L214.954,164.524 L214.828,164.552 L214.464,164.748 L213.988,164.804 L213.862,164.776 L213.652,164.818 L213.568,164.72 C213.437333,164.654666 213.344,164.589334 213.288,164.524 C213.175999,164.496 213.092,164.407334 213.036,164.258 C212.877333,164.071332 212.798,163.922001 212.798,163.81 L212.798,163.768 L212.7,163.6 L212.672,163.572 L212.588,163.32 L212.462,163.054 L212.49,162.732 L212.35,162.55 L212.14,161.346 C212.112,161.187333 212.098,161.052001 212.098,160.94 L212.07,160.87 L212,160.772 L211.874,160.94 L211.37,161.472 L211.188,161.766 L211.09,161.962 L210.936,162.186 L210.824,162.298 L210.838,162.368 L210.642,162.802 L210.53,162.942 L210.39,162.97 L210.264,163.096 C210.264,163.282668 210.175334,163.404 209.998,163.46 L209.97,163.488 C209.886,163.693334 209.792667,163.819333 209.69,163.866 L209.564,164.062 C209.358666,164.248668 209.223334,164.365333 209.158,164.412 C209.13,164.505334 209.078667,164.584666 209.004,164.65 C208.985333,164.678 208.952667,164.715333 208.906,164.762 C208.878,164.920667 208.747334,165.032666 208.514,165.098 L208.36,165.14 C208.173332,165.130667 208.019334,165.023334 207.898,164.818 L207.688,164.468 L207.758,164.132 L207.73,163.95 L207.758,163.922 L207.772,163.74 L207.618,163.404 L207.73,163.236 L207.674,163.054 L207.772,162.858 L207.8,162.536 L207.744,162.48 L207.856,162.284 L207.814,162.186 L207.8,161.962 L207.856,161.542 C207.837333,161.448666 207.828,161.388 207.828,161.36 C207.828,161.341333 207.832667,161.322667 207.842,161.304 L207.842,161.248 L207.772,161.136 L207.814,160.688 L207.8,160.534 L207.842,160.31 L207.786,159.932 L208.038,159.512 C208.327335,159.558667 208.527999,159.621666 208.64,159.701 C208.752001,159.780334 208.808,159.922666 208.808,160.128 L208.808,160.254 L208.906,160.422 L208.864,160.716 L208.92,161.276 L208.822,161.542 L208.864,161.836 L208.864,162.074 L208.752,162.228 L208.836,162.48 L208.752,162.634 L208.738,162.788 L208.822,162.942 L208.71,163.236 L208.668,163.362 L208.668,163.488 L208.738,163.628 L208.976,163.39 C208.976,163.249999 209.022666,163.156667 209.116,163.11 C209.125333,163.016666 209.162666,162.946667 209.228,162.9 L209.186,162.858 L209.368,162.69 L209.41,162.634 L209.41,162.508 L209.634,162.34 L209.69,162.2 L209.816,162.116 Z M221.996,162.816 L221.73,163.068 L221.716,163.152 C221.688,163.320001 221.608667,163.455333 221.478,163.558 C221.253999,163.978002 220.941335,164.285999 220.54,164.482 L220.33,164.65 L220.148,164.678 L219.924,164.846 L219.77,164.86 L219.42,165.084 L219.196,165.056 L218.944,165.168 L218.748,165.112 L218.65,165.196 L218.384,165.154 L218.118,165.196 L218.02,165.112 L217.74,165.056 L217.334,164.748 L217.11,164.468 C216.969999,164.290666 216.9,164.141334 216.9,164.02 L216.9,163.978 L216.76,163.768 L216.76,163.586 C216.732,163.473999 216.718,163.371334 216.718,163.278 L216.718,163.18 L216.648,162.942 L216.718,162.774 L216.662,162.662 L216.83,162.396 L216.788,162.172 L216.9,161.808 L216.956,161.724 L217.012,161.388 L216.984,161.332 L217.152,161.15 L217.18,161.01 L217.292,160.688 L217.474,160.296 L217.726,160.072 L217.782,159.946 L217.866,159.792 L217.894,159.652 L218.118,159.386 C218.174,159.367333 218.239333,159.348667 218.314,159.33 C218.351334,159.152666 218.584665,159.05 219.014,159.022 C219.378002,159.096667 219.611333,159.194666 219.714,159.316 C219.816667,159.334667 219.896,159.376666 219.952,159.442 L220.246,159.456 L220.442,159.708 C220.488667,159.801334 220.521333,159.894666 220.54,159.988 L220.652,160.1 L220.61,160.31 C220.619333,160.375334 220.624,160.477999 220.624,160.618 L220.694,160.674 L220.694,160.884 L220.75,161.318 C220.553999,161.514001 220.330001,161.626 220.078,161.654 C219.947333,161.411332 219.784001,161.229334 219.588,161.108 L219.56,160.646 L219.476,160.492 L219.476,160.38 L219.336,160.212 L219.266,160.156 L219.14,160.198 L218.958,160.198 C218.836666,160.226 218.720001,160.314666 218.608,160.464 C218.495999,160.613334 218.384001,160.771999 218.272,160.94 L218.258,161.08 L218.174,161.15 L218.174,161.402 L217.992,161.598 L217.768,162.214 L217.782,162.382 L217.67,162.634 L217.712,162.942 L217.628,162.984 L217.6,163.376 L217.614,163.446 L217.782,163.614 L217.852,163.908 L218.048,163.964 L218.062,164.076 L218.3,164.118 L218.482,164.16 C218.547334,164.122666 218.626666,164.104 218.72,164.104 L218.818,164.104 C218.930001,164.057333 219.032666,164.034 219.126,164.034 C219.191334,164.006 219.275333,163.978 219.378,163.95 C219.490001,163.800666 219.648666,163.726 219.854,163.726 L219.938,163.726 C219.984667,163.726 220.017333,163.702667 220.036,163.656 C220.138667,163.497333 220.301999,163.394667 220.526,163.348 C220.787335,163.114666 220.936666,162.928001 220.974,162.788 C221.104667,162.713333 221.188666,162.596667 221.226,162.438 L221.31,162.382 L221.352,162.06 C221.781335,162.125334 221.996,162.339998 221.996,162.704 L221.996,162.816 Z M230.158,162.354 C230.13,162.456667 230.088,162.573333 230.032,162.704 L230.046,162.788 L230.144,163.292 L230.046,163.824 L230.088,164.076 L230.004,164.258 L230.06,164.874 L230.004,164.972 L230.004,165.378 L229.99,165.7 L230.032,165.84 L230.004,166.722 L230.116,166.974 L230.032,167.086 L230.074,167.324 L230.004,167.394 L230.074,167.632 L229.948,167.772 L229.948,167.87 L229.892,167.996 C229.864,168.154667 229.761334,168.383332 229.584,168.682 L229.486,169.032 C229.411333,169.069334 229.364667,169.097333 229.346,169.116 L229.304,169.158 L229.178,169.326 L229.038,169.536 L228.8,169.662 C228.687999,169.867334 228.557334,169.984 228.408,170.012 C228.361333,170.058667 228.328667,170.086667 228.31,170.096 L228.268,170.138 L228.072,170.222 L227.96,170.334 L227.82,170.334 L227.75,170.446 L227.498,170.39 L227.232,170.558 L226.98,170.502 L226.518,170.572 L226.42,170.558 L226.35,170.586 L225.888,170.502 L225.678,170.502 L225.594,170.418 L225.034,170.236 L224.558,170.166 L224.488,170.04 L224.236,170.012 L224.152,169.774 L223.984,169.732 L223.872,169.522 L223.606,169.424 L223.382,169.102 L222.976,168.85 L223.004,168.584 C222.985333,168.574667 222.943334,168.392668 222.878,168.038 C222.878,167.888666 222.910666,167.706668 222.976,167.492 L222.976,167.366 L223.116,167.296 L223.2,167.058 L223.256,167.086 L223.396,166.862 L223.648,166.666 L223.844,166.61 L224.222,166.302 L224.586,166.33 C224.679334,166.236666 224.800666,166.19 224.95,166.19 C225.164668,166.292667 225.272,166.418666 225.272,166.568 C225.272,166.661334 225.23,166.754666 225.146,166.848 L224.95,166.946 L224.74,167.1 L224.53,167.156 L224.404,167.394 L224.194,167.394 L224.11,167.534 L223.928,167.688 L223.942,167.898 L223.83,168.094 L223.886,168.234 L223.984,168.458 L224.292,168.654 L224.362,168.864 L224.74,169.158 L224.95,169.172 L225.202,169.368 L225.454,169.368 L225.608,169.522 L225.804,169.508 L225.916,169.592 L226.588,169.564 L227.022,169.424 L227.288,169.438 L227.582,169.27 C227.656667,169.242 227.722,169.228 227.778,169.228 C227.796667,169.218667 227.829333,169.2 227.876,169.172 L227.946,169.06 L228.086,169.102 L228.142,169.046 L228.142,168.934 C228.151333,168.878 228.211999,168.831334 228.324,168.794 C228.361334,168.700666 228.435999,168.621334 228.548,168.556 C228.576,168.509333 228.599333,168.406667 228.618,168.248 L228.814,168.136 L228.856,168.038 C228.893334,167.963333 228.930666,167.884 228.968,167.8 L228.982,167.758 L229.024,167.212 L229.08,167.17 L229.08,166.946 L229.024,166.736 L229.108,166.568 C229.089333,166.381332 229.08,166.255334 229.08,166.19 C229.08,166.106 229.084667,166.010334 229.094,165.903 C229.103333,165.795666 229.108,165.732667 229.108,165.714 L229.108,165 L229.01,164.818 L229.108,164.524 L229.08,164.244 L229.08,163.53 L229.038,163.348 L229.094,163.25 L229.094,163.068 C229.094,163.002666 229.098667,162.960667 229.108,162.942 L228.996,162.62 L228.996,162.13 L228.842,162.382 L228.674,162.508 L228.506,162.676 L228.394,162.718 L228.352,162.886 L228.226,162.956 L228.212,162.998 L228.016,163.166 L227.75,163.488 L227.372,163.88 L227.232,163.922 L227.19,163.992 L226.77,164.3 L226.644,164.3 L226.504,164.44 L226.448,164.58 L226.14,164.678 L226.084,164.776 L225.874,164.804 L225.58,165 L225.342,165.056 L225.23,165.14 L225.076,165.168 L225.034,165.196 C224.912666,165.326667 224.721335,165.392 224.46,165.392 C224.179999,165.392 223.960667,165.303334 223.802,165.126 L223.494,164.664 L223.48,164.398 L223.312,163.894 L223.312,163.474 L223.256,163.306 L223.34,163.166 L223.27,162.858 L223.368,162.774 L223.382,162.634 L223.466,162.466 L223.438,162.172 L223.494,162.06 L223.494,161.962 C223.494,161.765999 223.526666,161.537335 223.592,161.276 L223.55,160.898 L223.592,160.548 L223.466,160.044 L223.494,159.946 L223.438,159.862 L223.606,159.414 C223.643334,159.264666 223.662,159.115334 223.662,158.966 C223.774001,158.91 223.885999,158.882 223.998,158.882 C224.082,158.882 224.166,158.896 224.25,158.924 L224.376,159.204 L224.614,159.372 C224.586,159.512001 224.562667,159.624 224.544,159.708 L224.67,159.918 L224.614,160.058 L224.796,160.212 L224.628,160.52 L224.712,160.884 L224.614,161.038 L224.628,161.066 L224.544,161.668 L224.544,162.214 L224.46,162.298 L224.404,162.788 L224.278,162.942 C224.278,162.988667 224.282667,163.049333 224.292,163.124 L224.292,163.264 L224.39,163.516 L224.292,163.698 L224.32,163.922 L224.292,163.978 L224.32,164.146 L224.446,164.258 L224.544,164.23 L224.558,164.314 L224.656,164.174 L225.062,164.174 C225.118,164.118 225.188,164.071334 225.272,164.034 C225.486668,163.884666 225.677999,163.800667 225.846,163.782 L225.86,163.6 C226.121335,163.459999 226.452665,163.278001 226.854,163.054 L226.91,162.942 C226.882,162.960667 226.858667,162.974667 226.84,162.984 C226.868,162.965333 226.933333,162.923334 227.036,162.858 L227.092,162.676 L227.19,162.522 L227.386,162.452 L227.498,162.284 L227.568,162.298 L227.652,162.242 L227.82,162.06 L227.89,162.046 L227.904,162.004 L228.156,161.738 L228.31,161.486 C228.412667,161.458 228.501333,161.392667 228.576,161.29 L228.772,160.884 L228.744,160.45 L228.884,160.394 L228.884,160.352 L228.8,160.1 L228.814,160.044 C228.748666,159.941333 228.716,159.862 228.716,159.806 C228.716,159.703333 228.771999,159.577334 228.884,159.428 L228.884,159.47 L228.94,159.33 L228.954,159.274 L228.954,159.316 C229.028667,159.129332 229.215332,159.031333 229.514,159.022 L229.962,159.456 L230.004,159.82 L230.144,160.058 L230.06,160.282 L230.074,160.38 L230.074,160.45 C230.055333,160.478 230.032,160.52 230.004,160.576 L230.046,160.66 L230.046,160.884 L229.99,161.108 L230.046,161.416 L230.046,161.64 L230.088,161.738 L230.06,162.004 L230.158,162.354 Z M244.97,162.494 L244.452,163.18 L244.718,163.544 L244.494,163.684 L244.452,164.048 L244.368,164.258 C244.368,164.416667 244.344667,164.542666 244.298,164.636 L244.452,164.776 L244.368,165.112 L244.438,165.406 L244.396,165.518 L244.55,165.672 L244.368,165.868 L244.438,166.134 L244.34,166.358 C244.405334,166.535334 244.438,166.684666 244.438,166.806 L244.438,166.862 L244.606,167.156 C244.587333,167.492002 244.442668,167.66 244.172,167.66 C244.050666,167.66 243.892001,167.543335 243.696,167.31 L243.64,166.988 C243.509333,166.829333 243.439333,166.708 243.43,166.624 L243.276,166.274 L243.276,166.092 L243.206,165.98 L243.206,165.924 L243.052,165.868 L243.08,165.826 C243.08,165.685999 243.098666,165.578667 243.136,165.504 L243.136,165.378 C243.136,165.312666 243.145333,165.242667 243.164,165.168 L243.122,165.028 L242.982,164.972 C243.140667,164.869333 243.22,164.771334 243.22,164.678 C243.22,164.659333 243.213,164.626667 243.199,164.58 C243.185,164.533333 243.178,164.500667 243.178,164.482 L243.122,164.02 L243.192,163.852 C242.893332,163.945334 242.632001,163.992 242.408,163.992 C242.398667,163.992 242.38,163.987333 242.352,163.978 L242.282,163.978 C242.263333,163.978 242.226,163.987333 242.17,164.006 L241.96,164.202 L241.414,164.3 L241.148,164.44 L240.826,164.44 L240.588,164.552 L240.294,164.538 L240.07,164.664 L239.93,164.636 C239.817999,164.682667 239.659334,164.72 239.454,164.748 C239.304666,164.766667 239.206667,164.804 239.16,164.86 C239.066666,164.832 238.996667,164.785334 238.95,164.72 C238.922,164.729333 238.875334,164.734 238.81,164.734 L238.502,164.888 L238.292,164.734 C238.161333,164.734 237.974668,164.706 237.732,164.65 L237.62,164.72 L237.368,164.608 L236.976,164.608 L236.766,164.426 L236.444,164.3 L235.814,163.684 L235.73,163.278 L235.534,163.012 L235.618,162.802 C235.618,162.783333 235.622667,162.755334 235.632,162.718 L235.632,162.634 L235.478,162.424 L235.674,162.088 L235.744,162.074 L236.08,161.514 L236.08,161.388 L236.164,161.36 L236.206,161.318 L236.29,161.36 C236.392667,161.350667 236.448667,161.248001 236.458,161.052 L236.556,161.094 C236.602667,161.019333 236.686666,160.930667 236.808,160.828 L236.766,160.772 L236.808,160.674 L236.976,160.548 L237.004,160.534 L237.172,160.24 L237.27,160.31 L237.396,160.31 L237.564,160.03 L237.914,159.96 L238.04,159.834 C238.021333,159.815333 238.012,159.796667 238.012,159.778 L238.04,159.666 L238.194,159.638 L238.278,159.568 L238.334,159.638 L238.432,159.554 L238.474,159.428 L238.768,159.4 L239.006,159.19 L239.272,159.148 L239.37,159.05 L239.51,159.092 L239.594,158.952 L239.706,159.05 L239.72,158.966 C239.72,158.872666 239.780666,158.812 239.902,158.784 C240.023334,158.653333 240.167999,158.588 240.336,158.588 L240.588,158.588 L240.63,158.56 L240.868,158.35 L241.008,158.378 L241.246,158.252 L241.344,158.252 C241.465334,158.205333 241.563333,158.182 241.638,158.182 L241.89,158.042 L242.03,158.084 L242.128,158.084 L242.198,157.958 L242.534,157.986 L242.632,157.972 L242.702,157.818 L243.136,158 L243.388,158 L243.682,158.21 C243.850001,158.275334 244.022666,158.363999 244.2,158.476 C244.190667,158.924002 243.89667,159.185333 243.318,159.26 L242.954,159.078 L242.842,159.12 L242.604,159.036 L242.464,159.12 L242.198,159.05 L241.75,159.274 L241.554,159.162 L241.33,159.232 C241.246,159.250667 241.185334,159.283333 241.148,159.33 C240.979999,159.470001 240.807334,159.54 240.63,159.54 L240.532,159.54 C240.139998,159.773335 239.818001,159.922666 239.566,159.988 L239.51,160.128 L239.342,160.128 L239.23,160.296 L239.006,160.324 C238.856666,160.454667 238.693334,160.562 238.516,160.646 L238.264,160.758 L237.886,161.094 L237.676,161.248 L237.438,161.542 L237.074,161.836 L237.074,162.102 L236.962,162.2 L236.738,162.718 L236.738,162.9 C236.896667,163.058667 236.99,163.226666 237.018,163.404 L237.06,163.446 L237.382,163.6 L237.718,163.684 L238.166,163.67 L238.726,163.782 L238.824,163.768 L238.936,163.782 L239.706,163.726 L239.748,163.712 C239.841334,163.684 240.027999,163.646667 240.308,163.6 L240.546,163.516 L241.134,163.474 L242.058,163.264 C242.216667,163.161333 242.403332,163.100667 242.618,163.082 L242.814,163.096 C242.972667,163.18 243.056667,163.264 243.066,163.348 L243.206,163.04 L243.066,163.166 L243.066,162.914 L243.206,162.886 L243.374,162.662 C243.346,162.634 243.313334,162.582667 243.276,162.508 C243.276,162.461333 243.283,162.412334 243.297,162.361 C243.311,162.309666 243.318,162.279333 243.318,162.27 C243.318,162.167333 243.266667,161.999335 243.164,161.766 C243.322667,161.672666 243.490666,161.626 243.668,161.626 C243.836001,161.626 243.989999,161.658666 244.13,161.724 L244.256,161.85 C244.405334,161.915334 244.522,161.994666 244.606,162.088 L244.97,162.494 Z M251.466,159.792 L251.354,160.254 L250.836,160.324 L250.556,160.506 L250.374,160.422 L250.178,160.534 L249.968,160.618 L249.828,160.716 L249.828,160.772 L249.534,160.912 L249.338,161.164 L249.24,161.164 C249.090666,161.322667 248.983334,161.420666 248.918,161.458 L248.722,161.78 L248.652,161.808 C248.624,161.882667 248.591334,161.994666 248.554,162.144 L248.358,162.214 L248.274,162.382 L248.162,162.522 L248.134,162.732 L248.022,162.774 L248.022,162.984 L247.98,163.026 C248.008,163.072667 248.040666,163.124 248.078,163.18 L247.868,163.264 L247.84,163.446 L247.7,163.684 L247.784,163.866 L247.602,164.118 C247.620667,164.211334 247.63,164.276666 247.63,164.314 L247.63,164.37 C247.620667,164.398 247.616,164.421333 247.616,164.44 L247.644,164.566 L247.882,164.818 L247.7,165.14 L247.532,165.266 L247.14,165.462 L246.622,165.252 L246.622,164.93 L246.566,164.804 L246.608,164.594 C246.589333,164.444666 246.58,164.332667 246.58,164.258 C246.58,164.23 246.584667,164.192667 246.594,164.146 L246.594,164.048 L246.58,163.908 C246.514666,163.842666 246.482,163.768 246.482,163.684 C246.482,163.609333 246.514666,163.525334 246.58,163.432 C246.58,163.385333 246.570667,163.245335 246.552,163.012 L246.594,162.97 L246.552,162.788 L246.58,162.62 L246.552,162.522 L246.594,162.2 L246.51,162.06 L246.566,161.906 L246.51,161.724 C246.519333,161.668 246.524,161.593334 246.524,161.5 C246.524,161.359999 246.505334,161.266667 246.468,161.22 L246.524,161.136 L246.468,160.884 L246.342,160.702 L246.412,160.478 L246.356,160.394 L246.3,160.058 L246.3,159.946 C246.253333,159.89 246.23,159.82 246.23,159.736 C246.23,159.549332 246.435331,159.390667 246.846,159.26 L247.196,159.33 L247.266,159.596 L247.406,159.778 L247.364,160.156 C247.392,160.342668 247.424666,160.547999 247.462,160.772 L247.504,160.996 C247.513333,161.014667 247.522667,161.066 247.532,161.15 C247.532,161.206 247.508667,161.266666 247.462,161.332 L247.504,161.612 L247.476,161.92 L247.42,162.06 L247.462,162.116 L247.49,162.256 C247.546,162.190666 247.578667,162.120667 247.588,162.046 L247.644,161.836 C247.672,161.78 247.714,161.738 247.77,161.71 L247.826,161.5 L248.022,161.388 L248.05,161.22 L248.204,161.052 L248.316,160.842 C248.437334,160.711333 248.553999,160.627334 248.666,160.59 L248.694,160.548 L248.82,160.352 L248.96,160.324 L249.002,160.282 L249.058,160.198 L249.212,160.114 L249.296,160.016 L249.38,160.03 L249.492,159.974 L249.548,159.89 L249.716,159.806 L249.954,159.652 L250.29,159.54 C250.420667,159.521333 250.490667,159.512 250.5,159.512 L250.5,159.526 C250.490667,159.526 250.486,159.530667 250.486,159.54 L250.5,159.54 C250.537334,159.54 250.593333,159.521334 250.668,159.484 C250.714667,159.446666 250.78,159.428 250.864,159.428 C250.901334,159.428 250.966666,159.437333 251.06,159.456 C251.302668,159.465333 251.438,159.577332 251.466,159.792 Z M257.192,159.33 L257.052,159.512 L257.164,159.848 L256.982,160.058 L256.912,160.352 L256.87,160.422 L256.898,160.492 C256.898,160.622667 256.865334,160.720666 256.8,160.786 L256.772,160.828 L256.772,160.884 C256.8,160.949334 256.814,161.01 256.814,161.066 C256.814,161.112667 256.809333,161.145333 256.8,161.164 L256.814,161.22 L256.758,161.374 L256.8,161.542 L256.688,161.654 L256.73,161.85 L256.814,161.948 L256.688,162.06 L256.688,162.284 L256.59,162.508 L256.66,162.732 L256.576,162.844 L256.716,162.942 L256.52,163.264 L256.506,163.306 L256.646,163.334 L256.548,163.656 L256.548,163.712 C256.548,163.777334 256.543333,163.828666 256.534,163.866 L256.548,163.908 L256.772,163.936 L256.954,164.216 L256.856,164.426 L257.01,164.412 C257.066,164.524001 257.098667,164.622 257.108,164.706 L256.898,164.916 C256.832666,164.981334 256.739334,165.046666 256.618,165.112 L256.38,165.238 L256.31,165.168 L256.17,165.252 L255.736,164.748 L255.736,164.51 C255.68,164.323332 255.652,164.150667 255.652,163.992 L255.652,163.908 L255.568,163.082 L255.68,162.494 L255.596,162.158 L255.358,162.55 L255.232,162.914 L255.12,162.97 L254.924,163.278 L254.574,163.6 L254.476,163.768 L254.168,164.034 L254.098,164.216 L253.65,164.496 L253.174,165.028 L252.908,165.084 L252.726,165.224 C252.492666,165.214667 252.315334,165.126001 252.194,164.958 C251.773998,164.752666 251.554667,164.458669 251.536,164.076 L251.606,164.034 L251.592,163.95 L251.578,163.782 L251.494,163.6 L251.578,163.404 L251.606,163.11 L251.704,162.648 L251.704,162.592 C251.694667,162.573333 251.69,162.554667 251.69,162.536 C251.69,162.498666 251.699333,162.452 251.718,162.396 C251.708667,162.377333 251.704,162.34 251.704,162.284 C251.704,162.218666 251.732,162.111334 251.788,161.962 L251.886,161.92 C251.83,161.873333 251.802,161.822 251.802,161.766 C251.802,161.728666 251.806667,161.700667 251.816,161.682 C251.806667,161.654 251.802,161.621334 251.802,161.584 C251.802,161.471999 251.857999,161.388 251.97,161.332 C251.998,161.238666 252.049333,161.145334 252.124,161.052 L252.054,160.94 L252.222,160.73 L252.222,160.674 C252.222,160.496666 252.282666,160.333334 252.404,160.184 L252.39,159.932 L252.446,159.876 L252.446,159.834 C252.436667,159.815333 252.432,159.801333 252.432,159.792 C252.432,159.736 252.450666,159.689334 252.488,159.652 L252.488,159.568 C252.525334,159.474666 252.623333,159.334668 252.782,159.148 C252.940667,158.961332 253.057333,158.798001 253.132,158.658 L253.202,158.728 L253.356,158.658 L253.426,158.63 L253.888,158.42 L254.966,158.476 L254.966,158.574 L255.302,158.644 C255.516668,158.644 255.656666,158.713999 255.722,158.854 C255.722,158.826 255.726667,158.793334 255.736,158.756 L255.736,158.7 L256.03,158.966 L256.296,159.022 L256.8,158.896 L256.982,159.246 L257.192,159.33 Z M255.862,160.058 L255.806,159.96 L255.694,159.932 L255.26,159.582 L254.98,159.54 L254.756,159.54 L254.728,159.512 L254.616,159.554 L254.49,159.484 L254.126,159.484 L254.168,159.54 L253.846,159.652 L253.79,159.722 L253.748,159.736 C253.579999,159.876001 253.463334,159.992666 253.398,160.086 L253.3,160.422 L253.244,160.548 L253.384,160.744 L253.146,160.926 L253.174,160.982 C253.071333,161.159334 253.02,161.331999 253.02,161.5 L252.908,161.64 L252.908,161.892 L252.796,162.018 L252.768,162.144 L252.726,162.172 L252.726,162.368 L252.684,162.438 C252.684,162.550001 252.674667,162.638666 252.656,162.704 L252.684,162.774 L252.558,163.04 L252.614,163.124 L252.516,163.264 L252.614,163.53 L252.46,163.726 L252.488,163.992 L252.488,164.034 L252.544,164.062 L252.614,164.048 C252.660667,164.001333 252.707333,163.959334 252.754,163.922 L252.726,163.81 L252.922,163.782 L252.964,163.684 L253.79,163.012 L253.874,162.984 L253.972,162.746 C254.028,162.727333 254.107333,162.69 254.21,162.634 L254.294,162.41 L254.406,162.41 L254.364,162.172 L254.56,162.144 C254.578667,162.106666 254.609,162.06 254.651,162.004 C254.693,161.948 254.737333,161.896667 254.784,161.85 L255.498,160.898 L255.61,160.688 L255.596,160.632 L255.694,160.478 L255.722,160.324 L255.848,160.212 L255.862,160.058 Z M264.248,162.928 L264.08,163.348 L264.192,163.628 L264.136,163.712 L264.08,163.936 L263.968,164.132 L263.912,164.16 L263.884,164.426 L263.632,164.454 C263.501333,164.575334 263.366001,164.673333 263.226,164.748 L263.142,164.734 L262.932,164.804 L262.806,164.818 L262.54,164.916 L262.232,164.776 L262.19,164.748 L261.952,164.762 L262.008,164.79 L261.616,164.734 L261.266,164.818 L261.126,164.692 L260.832,164.72 L260.72,164.636 C260.710667,164.636 260.673334,164.640667 260.608,164.65 L260.608,164.734 C260.608,164.818 260.594,164.902 260.566,164.986 L260.608,165.252 L260.496,165.392 C260.514667,165.597334 260.524,165.751333 260.524,165.854 L260.482,166.204 L260.538,166.736 L260.426,166.876 L260.482,167.086 L260.44,167.226 L260.524,167.268 L260.524,167.478 C260.542667,167.534 260.552,167.576 260.552,167.604 C260.552,167.688 260.500667,167.758 260.398,167.814 L260.454,168.01 L260.384,168.122 L260.356,168.682 C260.328,169.335337 260.183335,169.662 259.922,169.662 C259.866,169.662 259.702668,169.624667 259.432,169.55 L259.474,169.13 L259.39,168.514 L259.53,168.262 L259.544,167.954 L259.488,167.534 L259.6,167.352 L259.474,167.03 L259.572,166.862 L259.488,166.582 L259.6,166.33 C259.581333,166.274 259.546334,166.222667 259.495,166.176 C259.443666,166.129333 259.418,166.096667 259.418,166.078 C259.418,166.05 259.450666,166.022 259.516,165.994 C259.506667,165.966 259.502,165.919334 259.502,165.854 C259.502,165.732666 259.53,165.574001 259.586,165.378 L259.502,165.238 L259.544,165.056 L259.446,164.93 L259.572,164.776 L259.516,164.37 L259.6,163.796 L259.502,163.614 L259.656,163.348 L259.488,163.194 L259.586,162.928 L259.488,162.858 L259.502,162.62 L259.586,162.326 L259.586,162.27 L259.6,162.214 L259.6,162.06 L259.614,162.004 L259.544,161.78 L259.614,161.542 L259.544,161.36 L259.6,161.15 L259.544,161.094 L259.586,160.814 L259.544,160.66 L259.572,160.52 L259.53,160.422 L259.026,160.646 L259.026,160.562 L258.928,160.576 L258.774,160.716 L258.648,160.716 L258.48,160.94 L258.34,160.884 L258.27,161.024 C257.812664,160.753332 257.584,160.538667 257.584,160.38 C257.584,160.267999 257.626,160.174667 257.71,160.1 L257.696,159.89 C257.957335,159.740666 258.204666,159.661333 258.438,159.652 L258.536,159.554 L258.984,159.372 L259.082,159.274 L259.474,159.302 L259.544,159.274 L259.67,158.784 L260.006,158.854 L260.23,159.218 L260.356,159.092 L260.608,159.274 C260.729334,159.274 260.845999,159.297333 260.958,159.344 L261.028,159.47 L261.126,159.428 L261.238,159.512 C261.303334,159.512 261.354666,159.516667 261.392,159.526 L261.378,159.61 L261.686,159.512 L261.84,159.68 L262.106,159.764 L262.288,159.988 L262.624,160.198 L262.638,160.226 L262.904,160.31 L262.904,160.394 C262.978667,160.45 263.034666,160.524666 263.072,160.618 L263.184,160.688 L263.268,160.842 L263.436,160.842 L263.436,161.122 L263.534,161.22 L263.562,161.318 L263.702,161.346 C263.720667,161.560668 263.781333,161.742666 263.884,161.892 L263.884,161.99 L264.024,162.13 L263.996,162.354 L264.108,162.606 L264.15,162.9 L264.248,162.928 Z M263.198,163.138 L263.184,163.068 L263.198,163.012 L263.114,162.76 L263.17,162.634 L263.114,162.522 L263.1,162.382 L262.988,162.158 L262.932,162.004 L262.722,161.64 L262.554,161.5 L262.456,161.262 L262.33,161.206 L262.106,160.912 L261.882,160.94 L261.714,160.716 L261.574,160.744 L261.476,160.562 L261.42,160.548 L261.224,160.548 L261.084,160.618 L260.972,160.506 L260.832,160.534 L260.776,160.436 L260.524,160.394 L260.538,160.562 L260.51,160.828 L260.566,160.982 L260.762,161.164 L260.608,161.5 L260.622,161.71 L260.552,162.13 C260.58,162.307334 260.636,162.456666 260.72,162.578 L260.664,162.732 C260.673333,162.741333 260.678,162.750667 260.678,162.76 C260.678,162.788 260.640667,162.83 260.566,162.886 L260.664,163.012 L260.594,163.18 L260.566,163.362 L260.608,163.558 L260.594,163.74 L260.888,163.74 C260.925334,163.721333 260.976666,163.712 261.042,163.712 C261.126,163.712 261.200666,163.74 261.266,163.796 C261.275333,163.796 261.294,163.791333 261.322,163.782 L261.364,163.782 C261.392,163.782 261.443333,163.791333 261.518,163.81 C261.574,163.782 261.625333,163.768 261.672,163.768 C261.746667,163.768 261.816666,163.786666 261.882,163.824 L262.008,163.824 L262.12,163.852 L262.4,163.768 L262.624,163.908 C262.708,163.936 262.740667,163.95 262.722,163.95 L262.988,163.684 L263.016,163.488 L263.086,163.46 L263.044,163.348 L263.142,163.236 L263.198,163.138 Z M271.318,164.86 C271.318,165.233335 271.117335,165.42 270.716,165.42 C270.519999,165.42 270.375334,165.340667 270.282,165.182 C270.188666,165.051333 270.109334,164.804002 270.044,164.44 L270.044,164.244 C270.072,164.197333 270.086,164.150667 270.086,164.104 C270.086,164.085333 270.081333,164.062 270.072,164.034 L269.876,163.74 L270.016,163.474 L269.96,163.18 L270.016,163.012 L270.016,162.83 L270.044,162.662 L269.988,162.41 L270.044,162.284 L270.044,161.822 L270.058,161.22 L269.96,160.758 L270.016,160.59 L269.918,160.24 L269.806,160.338 L269.498,160.464 L269.078,160.996 L268.91,160.982 L268.658,161.388 L268.616,161.556 L268.462,161.626 L268.308,161.864 L268.238,162.018 L268.084,162.508 L267.832,162.816 L267.776,163.012 L267.636,163.124 L267.58,163.46 L267.3,163.712 L267.258,164.23 L267.132,164.23 L267.09,164.314 L266.838,164.748 L266.6,165 L266.39,165.28 L266.166,165.21 L265.984,165.21 L265.816,164.986 L265.662,164.482 L265.634,163.74 L265.592,163.502 L265.634,163.222 L265.606,162.564 L265.718,162.536 L265.788,161.57 L265.844,161.388 L265.802,161.094 L265.872,161.052 L265.928,160.604 L265.984,160.45 L265.928,160.254 L265.97,160.184 L265.942,160.142 L265.984,159.75 L265.872,159.652 L265.97,159.456 L265.956,159.05 L265.802,158.644 L265.914,158.518 L265.816,158.14 L265.816,157.916 L265.774,157.818 L265.704,157.37 L265.634,157.16 L265.424,156.754 L265.578,156.558 L265.718,156.32 L265.844,156.32 C266.049334,156.32 266.203333,156.394666 266.306,156.544 L266.502,156.698 L266.586,156.95 L266.796,157.132 L266.754,157.328 L266.852,157.622 L266.838,157.65 L266.866,157.678 L266.852,158.14 L266.866,158.756 L266.964,159.148 L266.894,159.316 L266.922,159.554 L266.852,159.75 L266.894,160.086 L266.824,160.366 L266.852,160.422 L266.824,161.276 L266.866,161.472 L266.782,161.57 L266.74,162.032 L266.684,162.242 L266.74,162.62 L266.684,162.732 L266.67,163.012 C266.772667,162.984 266.824,162.928 266.824,162.844 L266.936,162.732 L267.034,162.55 L267.062,162.284 L267.216,162.06 L267.3,161.78 L267.51,161.556 L267.566,161.29 L267.706,161.276 L267.706,161.15 L267.72,160.982 L267.888,160.884 L267.888,160.772 L268.028,160.744 L268.056,160.52 L268.042,160.408 L268.294,160.296 L268.364,160.24 L268.336,160.1 L268.462,160.058 L268.56,159.82 L268.728,159.82 L268.882,159.722 C268.882,159.656666 268.886667,159.61 268.896,159.582 L269.05,159.512 C269.218001,159.371999 269.376666,159.288 269.526,159.26 L269.526,159.232 C269.768668,159.110666 269.936666,159.05 270.03,159.05 C270.170001,159.05 270.295999,159.115333 270.408,159.246 C270.510667,159.283334 270.576,159.353333 270.604,159.456 L270.73,159.54 L270.772,159.736 L270.982,160.058 L270.982,161.178 L270.968,161.668 L271.024,161.794 L271.024,162.83 L270.982,163.012 L270.982,163.292 L271.024,163.6 L270.968,163.866 C271.005334,164.006001 271.028667,164.122666 271.038,164.216 L271.192,164.37 L271.192,164.482 L271.248,164.524 C271.294667,164.682667 271.318,164.794666 271.318,164.86 Z"/>
    <path stroke="#8C88A6" stroke-linecap="square" d="M121.29303,68.582737 L117.5841,80.3030915" transform="rotate(-9 119.293 74.583)"/>
    <path stroke="#8C88A6" stroke-linecap="square" d="M120.759547,67.951091 L105.759547,68.951091" transform="rotate(-9 113.26 68.451)"/>
    <path stroke="#8C88A6" stroke-linecap="square" d="M119.790161,67.6338748 L109.790161,56.6338748" transform="rotate(-9 114.79 62.134)"/>
    <path stroke="#8C88A6" stroke-linecap="square" d="M120.243535,65.3945456 L137.772939,62.8210764" transform="rotate(-9 129.244 63.895)"/>
    <path stroke="#8C88A6" stroke-linecap="square" d="M119.384954,66.4852396 L124.651066,51.8448045" transform="rotate(-9 121.885 58.985)"/>
    <circle cx="120.589" cy="66.784" r="5.5" fill="#FFF" stroke="#595767" stroke-width="2" transform="rotate(-9 120.589 66.784)"/>
    <circle cx="106.514" cy="70.69" r="3" fill="#FFF" stroke="#595767" stroke-width="2" transform="rotate(-9 106.514 70.69)"/>
    <circle cx="118.256" cy="80.822" r="3" fill="#FFF" stroke="#595767" stroke-width="2" transform="rotate(-9 118.256 80.822)"/>
    <circle cx="108.634" cy="57.432" r="3" fill="#FFF" stroke="#595767" stroke-width="2" transform="rotate(-9 108.634 57.432)"/>
    <circle cx="123.432" cy="51.432" r="3" fill="#FFF" stroke="#595767" stroke-width="2" transform="rotate(-9 123.432 51.432)"/>
    <circle cx="135.038" cy="61.927" r="3" fill="#FFF" stroke="#595767" stroke-width="2" transform="rotate(-9 135.038 61.927)"/>
  </g>
</svg>
