<svg xmlns="http://www.w3.org/2000/svg" width="432" height="225" viewBox="0 0 432 225">
  <g fill="none" fill-rule="evenodd">
    <path fill="#8C88A6" d="M84.2289898,50.1992761 C88.9598181,53.869478 92.7326139,59.5415497 94.2622799,64.1248679 C100.750232,59.3064647 107.903614,56.1495798 115.722428,56.1495798 C133.023633,56.1495798 139.8443,70.7709412 141.34152,76.4201036 C148.827618,67.2817527 158.809082,59.1403128 169.788693,59.1403128 C175.777572,59.1403128 181.101019,61.1341349 185.259963,65.4540825 C193.57785,74.0939779 195.574143,87.7184283 195.574143,99.8475121 C195.574143,121.945706 189.086191,146.702329 180.269231,159.496021 C179.6038,160.492932 178.272938,160.991387 177.108434,160.991387 C175.112141,160.991387 173.614921,159.496021 173.614921,157.336047 C173.614921,156.505287 173.781279,155.84068 174.113994,155.176073 C182.099166,143.877748 188.088044,120.45034 188.088044,99.8475121 C188.088044,84.8938471 184.261816,65.952538 169.455978,65.952538 C157.644578,65.952538 146.49861,81.4046586 144.003244,84.8938471 C145.666821,90.2107058 146.664968,98.019842 146.664968,106.493585 C146.664968,132.911727 138.846154,161.822146 123.873957,161.822146 C121.212234,161.822146 118.883225,160.825235 117.05329,159.329869 C114.391566,156.505287 113.060704,151.853036 113.060704,144.708507 C113.060704,127.76102 122.543095,101.342879 136.018072,83.3984806 C134.68721,77.4170146 132.191844,72.5986114 128.698332,68.7771192 C125.204819,65.2879307 120.71316,63.1279569 115.223355,63.1279569 C108.569045,63.1279569 102.081094,66.4509935 96.2585728,71.9340041 C98.2548656,80.4077476 98.9202966,91.7060723 98.9202966,101.342879 C98.9202966,132.745575 88.2734013,162.486754 71.1385542,162.486754 C62.6543095,162.486754 56,155.342225 56,140.887015 C56,120.616491 69.1422614,86.5553654 88.1070436,69.6078784 C87.9953783,68.3662656 87.9192481,67.3097808 87.7591609,66.3828461 C87.031037,62.1668741 85.6865446,58.9216509 83.704292,55.9309179 C81.7220394,52.9401849 79.1821581,50.1585289 75.6179453,47.880892 C72.0537325,45.603255 72.3214815,45.1858157 69.9335364,44.2335666 C69.4966168,44.0593346 69.2284966,44.61299 69.4772386,44.1709613 C69.7259807,43.7289325 69.8082163,43.7327011 69.7722439,43.1932127 C69.7362716,42.6537243 69.8993478,43.409305 70.1860517,43.4656978 C70.4727557,43.5220905 71.1073797,43.6742737 71.8289776,43.9142874 C72.393072,44.1019133 69.4454107,43.6223569 70.1860517,43.9142874 C71.3006987,44.3536358 71.4885826,42.3120977 74.5978216,43.9142874 C77.7070606,45.5164772 81.8939085,48.3877075 84.2289898,50.1992761 Z M91.4341983,101.342879 C91.4341983,92.038376 90.7687674,84.2292398 89.9369787,77.0847109 C74.7984245,94.6968053 63.3197405,122.444162 63.3197405,140.887015 C63.3197405,143.046989 63.4860982,155.674528 71.304912,155.674528 C82.118165,155.674528 91.4341983,129.920994 91.4341983,101.342879 Z M139.178869,108.155104 C139.178869,102.672093 139.012512,97.6875383 138.180723,92.2045278 C127.533828,110.148926 120.380445,131.084057 120.380445,144.708507 C120.380445,147.034633 120.71316,155.176073 124.040315,155.176073 C131.02734,155.176073 138.846154,134.573245 139.178869,108.155104 Z M235.832715,102.672093 C217.533364,102.672093 205.555607,126.764109 205.555607,144.0439 C205.555607,156.505287 212.376274,161.489843 219.030584,161.489843 C231.008341,161.489843 236.331789,150.35767 236.331789,147.533088 C236.331789,145.539266 235.000927,143.877748 232.838276,143.877748 C231.507414,143.877748 230.176552,144.708507 229.677479,146.037722 C228.013902,150.523821 224.686747,154.511465 220.195088,154.511465 C215.869787,154.511465 213.041705,150.191518 213.041705,144.0439 C213.041705,128.924083 222.524096,109.65047 235.167285,109.65047 C239.492586,109.65047 243.817887,112.641203 243.817887,120.616491 C243.817887,126.431806 242.653383,132.911727 241.655236,139.059345 C240.823448,145.040811 239.825301,149.693062 239.825301,153.182251 C239.825301,156.505287 240.823448,161.157539 244.483318,161.157539 C246.479611,161.157539 248.309546,159.496021 248.309546,157.66835 C248.309546,156.837591 247.97683,156.339136 247.644115,155.674528 C247.477757,155.176073 247.311399,154.511465 247.311399,153.514554 C247.311399,150.191518 248.309546,144.542355 248.974977,140.222408 C250.139481,133.908638 251.137627,126.597957 251.137627,120.284188 C251.137627,108.819711 245.315107,102.672093 235.832715,102.672093 Z M282.57924,161.489843 C272.26506,161.489843 264.113531,151.520732 264.113531,135.570156 C264.113531,120.118036 272.764133,103.336701 286.571826,103.336701 C293.558851,103.336701 298.882298,108.321256 298.882298,111.478141 C298.882298,113.471963 297.218721,115.133481 295.222428,115.133481 C294.057924,115.133481 292.727062,114.468874 292.061631,113.305811 C291.229842,111.976596 289.067192,110.813533 286.571826,110.813533 C277.921223,110.813533 271.433272,123.274921 271.433272,135.570156 C271.433272,146.868481 275.92493,154.677617 282.745598,154.677617 C296.719648,154.677617 303.373957,126.099502 303.706673,95.8598681 C289.732623,92.2045278 278.91937,81.9031141 278.91937,69.940182 C278.91937,62.6295014 283.910102,54.8203652 292.394347,54.8203652 C295.721501,54.8203652 299.215014,56.1495798 302.043095,58.974161 C310.693698,67.2817527 311.359129,86.5553654 311.192771,90.0445539 C313.022706,90.3768576 315.185357,90.7091613 317.348007,90.8753131 C319.3443,91.2076168 320.508804,92.2045278 320.508804,94.1983498 C320.508804,96.02602 318.678869,97.6875383 317.514365,97.6875383 C315.518072,97.6875383 313.355422,97.5213865 311.026413,97.022931 C310.693698,118.290366 306.86747,144.542355 295.555144,155.84068 C291.895273,159.496021 287.569972,161.489843 282.57924,161.489843 Z M292.061631,61.7987422 C288.235403,61.7987422 286.405468,66.4509935 286.405468,69.7740302 C286.405468,78.0816219 293.891566,85.8907581 303.873031,88.5491874 C303.873031,68.6109674 296.386932,61.7987422 292.061631,61.7987422 Z M346.460612,110.315078 C335.148285,110.315078 326.830399,126.764109 326.830399,140.38856 C326.830399,145.87157 328.16126,150.191518 330.822984,152.683795 C333.151993,155.009921 336.645505,155.84068 340.139018,155.674528 C338.974513,153.514554 338.47544,150.35767 338.47544,147.865392 C338.47544,140.222408 343.299815,132.080968 351.118628,132.080968 C357.107507,132.080968 360.601019,137.065523 360.601019,143.213141 C360.601019,149.360759 356.941149,155.84068 349.621409,159.828324 C350.952271,161.655994 352.44949,163.317513 353.780352,164.480576 C358.937442,169.132827 362.597312,175.612748 362.597312,182.424974 C362.597312,200.867827 345.296108,212 328.16126,212 C313.022706,212 302.708526,204.855471 302.708526,192.06178 C302.708526,181.760366 310.693698,173.785078 320.675162,173.785078 C326.664041,173.785078 330.989342,176.941963 330.989342,181.095759 C330.989342,183.089581 329.492122,184.418796 327.662187,184.418796 C326.830399,184.418796 325.333179,184.086492 324.834106,183.255733 C323.669601,181.428063 321.673309,180.763455 320.342447,180.763455 C314.686284,180.763455 310.194625,185.581858 310.194625,192.06178 C310.194625,200.535523 317.348007,205.187775 328.16126,205.187775 C339.97266,205.187775 355.111214,197.54479 355.111214,182.424974 C355.111214,177.440419 352.782206,173.452775 348.78962,169.298979 C345.961538,166.474398 344.464319,164.480576 342.800741,161.822146 C342.13531,161.988298 341.303522,162.15445 340.638091,162.15445 C339.806302,162.320602 338.974513,162.320602 338.309082,162.320602 C327.163114,162.320602 319.3443,154.179162 319.3443,140.38856 C319.3443,122.942617 330.490269,103.502852 346.460612,103.502852 C357.772938,103.502852 363.595459,112.475052 363.595459,125.601046 C363.595459,127.76102 361.931881,129.422539 359.769231,129.422539 C357.772938,129.422539 356.442076,127.76102 356.442076,125.601046 C356.442076,120.45034 354.279425,110.315078 346.460612,110.315078 Z M345.462465,148.031544 C345.462465,149.859214 345.795181,152.18534 346.626969,154.179162 C350.952271,152.019188 353.613994,147.034633 353.613994,143.213141 C353.613994,141.385471 352.948563,139.059345 350.785913,139.059345 C348.124189,139.059345 345.462465,143.379293 345.462465,148.031544 Z M391.377201,128.924083 C389.214551,129.090235 387.717331,130.751753 387.717331,132.579423 C387.717331,134.739397 389.380908,136.068612 391.377201,136.068612 C401.192308,136.068612 415,129.58869 415,116.462696 C415,109.816622 411.007414,103.669004 401.02595,103.669004 C387.883689,103.669004 373.244208,118.290366 373.244208,139.225497 C373.244208,153.348403 381.395737,161.822146 394.038925,161.822146 C404.186747,161.822146 412.171918,155.176073 412.171918,152.019188 C412.171918,149.859214 410.841057,148.197696 408.844764,148.197696 C407.680259,148.197696 406.848471,148.696151 406.18304,149.52691 C403.354958,153.016099 398.863299,155.009921 394.537998,155.009921 C382.560241,155.009921 380.730306,144.874659 380.730306,139.225497 C380.730306,121.447251 392.541705,110.813533 400.859592,110.813533 C405.184893,110.813533 407.513902,113.139659 407.513902,116.462696 C407.513902,123.939528 399.196015,128.757931 391.377201,128.924083 Z"/>
    <path stroke="#8C88A6" stroke-linecap="square" stroke-width="2" d="M69.8033436,40.1477399 L66.2053509,62.8645717" transform="rotate(-9 67.963 51.53)"/>
    <path stroke="#8C88A6" stroke-linecap="square" stroke-width="2" d="M67.8154902,44.8649019 L43.2214448,53.1191693" transform="rotate(-9 55.56 49.113)"/>
    <path stroke="#8C88A6" stroke-linecap="square" stroke-width="2" d="M68.7695305,45.7664086 L47.2550928,28.1843447" transform="rotate(-9 58.163 37.066)"/>
    <path stroke="#8C88A6" stroke-linecap="square" stroke-width="2" d="M65.4209701,41.0076342 L91.5210888,36.0293008" transform="rotate(-9 78.368 38.325)"/>
    <path stroke="#8C88A6" stroke-linecap="square" stroke-width="2" d="M64.9189139,43.767887 L70.1303328,17.2567363" transform="rotate(-9 67.434 30.663)"/>
    <circle cx="67.5" cy="42.5" r="8.5" fill="#FFF" stroke="#595767" stroke-width="3" transform="rotate(-9 67.5 42.5)"/>
    <circle cx="45.149" cy="54.149" r="4.5" fill="#FFF" stroke="#595767" stroke-width="3" transform="rotate(-9 45.149 54.149)"/>
    <circle cx="68.149" cy="68.149" r="4.5" fill="#FFF" stroke="#595767" stroke-width="3" transform="rotate(-9 68.149 68.149)"/>
    <circle cx="45.149" cy="30.149" r="4.5" fill="#FFF" stroke="#595767" stroke-width="3" transform="rotate(-9 45.149 30.149)"/>
    <circle cx="68.149" cy="17.149" r="4.5" fill="#FFF" stroke="#595767" stroke-width="3" transform="rotate(-9 68.149 17.149)"/>
    <circle cx="91.149" cy="34.149" r="4.5" fill="#FFF" stroke="#595767" stroke-width="3" transform="rotate(-9 91.149 34.149)"/>
    <path fill="#595767" d="M71.8010993,179.604399 C71.8763392,179.754879 71.8387193,179.924169 71.7634793,180.074649 C71.4813295,180.751809 70.89822,181.805168 70.0329607,183.103057 C68.8291216,184.984055 67.4936126,187.034344 66.4778734,188.689622 C66.3273935,188.934152 66.1957237,189.122252 66.0828637,189.253922 C66.0076238,189.028202 65.9323839,188.764862 65.8759539,188.520332 C65.1235545,184.984055 64.3711551,181.203248 64.2206752,179.792499 C64.1642452,179.28463 63.6563756,178.94605 63.148506,178.98367 C62.5465865,179.02129 61.925857,179.17177 61.1546476,179.604399 C61.3427474,180.018219 61.4179874,180.281559 61.3803674,180.695379 C61.0605977,181.842788 60.7596379,182.990197 60.4586781,184.137606 C60.1389084,185.360255 58.4271997,191.26659 58.2014799,192.13185 C58.08862,192.564479 58.051,192.884249 58.051,193.072349 C58.08862,193.617838 58.4460097,193.899988 59.2360291,193.899988 C59.7250887,193.899988 60.2893883,193.787128 60.9477377,193.561409 C60.7972579,193.241639 60.7032079,192.884249 60.7032079,192.395189 C60.7032079,191.41707 61.4556073,188.332233 62.3584866,185.002865 C62.4337266,184.720715 62.4901565,184.419756 62.5842065,184.137606 C62.6218264,184.231656 62.6594464,184.363326 62.6970664,184.532616 C63.2613659,187.184824 64.0890053,191.11611 64.2582952,191.86851 C64.3711551,192.338759 64.5592549,192.583289 64.9166446,192.583289 C65.6126141,192.583289 66.1016737,192.26352 66.5154934,191.88732 C67.1926529,190.344901 68.9796015,187.504593 70.7477401,184.758335 C70.93584,184.476186 71.1051298,184.231656 71.2744197,184.005936 C70.9922699,186.545284 70.0517706,191.60517 70.0517706,192.771389 C70.0893906,193.655458 70.5220203,193.937608 71.2179897,193.937608 C71.9891991,193.937608 73.0989883,193.316879 73.3435181,193.166399 C72.9861284,192.545669 72.7792185,191.83089 72.7792185,191.11611 C72.7792185,189.855841 73.2870881,185.905745 74.2087774,181.861598 C74.4344972,180.902288 74.6414071,179.942979 74.716647,179.510349 C74.8106969,179.02129 74.2840173,178.96486 73.9454376,179.00248 C72.7227886,179.11534 72.3089689,179.20939 71.8010993,179.604399 Z M76.7669354,185.473115 C77.9331545,184.175226 79.4003334,183.366396 81.0368021,183.366396 C83.0870905,183.366396 84.4790294,184.626665 84.4790294,186.714574 C84.4790294,190.250851 81.7327715,193.824748 78.3845942,193.824748 C76.3154958,193.824748 74.9423668,192.508049 74.9423668,190.326091 C74.9423668,188.501522 75.5819063,186.865054 76.7669354,185.473115 Z M81.6763416,186.714574 C81.6763416,185.604785 81.3753818,184.758335 80.4725025,184.758335 C78.7984138,184.758335 77.7074347,188.369853 77.7074347,190.533001 C77.7074347,191.64279 78.0460144,192.451619 78.9488937,192.451619 C80.6041724,192.451619 81.6763416,188.877722 81.6763416,186.714574 Z M94.7869014,191.05968 C95.3700109,190.420141 95.7462106,190.119181 95.9155005,190.119181 C95.9907404,190.119181 96.0283604,190.175611 96.0283604,190.288471 C96.0283604,191.68041 94.034502,193.693078 92.698993,193.693078 C91.6080138,193.693078 91.0060943,193.053539 91.0060943,191.64279 C91.0060943,191.19135 91.0625243,190.570621 91.1189542,190.194421 C89.5765354,192.733769 87.9964967,193.805938 86.6986077,193.805938 C85.5135786,193.805938 84.7987992,192.809009 84.7987992,191.30421 C84.7987992,187.786743 87.545057,183.479256 90.7427545,183.479256 C91.4763439,183.479256 92.0030235,183.667356 92.5485131,183.968316 C92.8306629,182.858527 92.9811428,181.842788 92.9811428,181.071578 C92.9811428,180.770619 92.9435228,180.488469 92.7930429,180.243939 C93.4513924,179.867739 94.1661719,179.679639 94.7116614,179.679639 C95.4264409,179.679639 95.7650206,180.055839 95.7650206,180.732999 C95.7650206,181.316108 95.6521607,181.861598 95.5204908,182.425897 C94.5799915,186.451234 93.6583022,189.329162 93.6583022,190.928011 C93.6583022,191.30421 93.7711622,191.54874 93.8652121,191.71803 C94.0533119,191.68041 94.4107017,191.41707 94.7869014,191.05968 Z M90.4041748,189.347972 C91.0437143,188.313423 91.6080138,187.222443 92.0782635,186.169084 C91.9465936,185.435495 91.2882441,184.927625 90.5734647,184.927625 C89.0686658,184.927625 87.526247,188.162943 87.526247,190.852771 C87.563867,191.51112 87.7519669,191.83089 88.1281666,191.83089 C88.6360362,191.83089 89.4636755,190.909201 90.4041748,189.347972 Z M104.963103,183.422826 C105.565023,183.460446 106.110513,183.667356 106.110513,184.438566 C106.110513,184.833575 106.016463,185.303825 105.865983,185.849315 C105.358113,187.692693 104.756194,189.536072 104.756194,190.871581 C104.756194,191.24778 104.775004,191.68041 104.963103,191.68041 C105.489783,191.68041 106.806482,190.062751 107.013392,190.062751 C107.088632,190.062751 107.126252,190.119181 107.126252,190.232041 C107.126252,191.58636 105.132393,193.655458 103.778074,193.655458 C102.724715,193.655458 102.103986,192.997109 102.103986,191.64279 C102.103986,191.13492 102.179226,190.702291 102.273276,190.194421 C100.824907,192.564479 99.4141578,193.824748 97.8905489,193.824748 C96.49861,193.824748 96.2540802,192.846629 96.2540802,191.88732 C96.2540802,190.420141 97.6083992,186.187894 97.6083992,184.777145 C97.6083992,184.457376 97.5707792,184.099986 97.4202993,183.817836 C98.0974588,183.554496 98.7746183,183.422826 99.2636779,183.422826 C100.128937,183.422826 100.354657,183.893076 100.354657,184.457376 C100.354657,184.833575 100.241797,185.266205 100.166557,185.604785 C99.5646376,188.238183 98.9439081,190.401331 98.9439081,191.32302 C98.9439081,191.56755 99.0191481,191.81208 99.3012978,191.81208 C99.8279774,191.81208 100.994197,190.514191 102.028746,188.652002 C102.988055,186.902674 103.477115,185.341445 103.477115,184.325706 C103.477115,184.118796 103.439495,183.874266 103.345445,183.686166 C103.834504,183.516876 104.492854,183.422826 104.963103,183.422826 Z M109.96656,191.77446 C110.512049,191.77446 110.963489,191.58636 111.358498,191.30421 C112.204948,190.683481 112.863297,190.156801 113.051397,190.156801 C113.201877,190.156801 113.051397,190.514191 112.468288,191.45469 C111.603028,192.809009 109.74084,193.749508 108.80034,193.749508 C107.803411,193.749508 107.126252,193.204019 107.126252,192.0378 C107.107442,191.62398 107.182682,191.17254 107.295542,190.457761 C107.333162,190.307281 107.351972,190.137991 107.370782,189.968701 C106.693622,190.457761 106.411472,190.645861 106.355042,190.645861 C106.279802,190.645861 106.712432,190.250851 107.276732,189.761791 C107.257922,189.780601 107.314352,189.724172 107.446022,189.611312 C108.141991,186.639334 108.96963,183.610926 109.8537,180.676569 C109.94775,180.394419 110.192279,180.074649 110.493239,179.867739 C110.794199,179.660829 111.132779,179.604399 111.414928,179.623209 C111.960418,179.660829 112.487098,179.811309 113.013777,180.206319 C113.089017,180.281559 113.145447,180.375609 113.164257,180.488469 C113.164257,180.507279 113.220687,180.732999 113.220687,181.165628 C113.220687,181.353728 113.220687,181.579448 113.183067,181.823978 C113.089017,182.613997 112.731627,183.554496 112.336618,184.476186 C111.697078,185.943364 110.756579,187.222443 110.399189,187.692693 L110.380379,187.805553 C110.342759,187.974843 110.305139,188.162943 110.248709,188.351043 C110.117039,188.952962 109.77846,190.514191 109.77846,190.984441 C109.77846,191.36064 109.77846,191.77446 109.96656,191.77446 Z M111.471358,183.817836 C111.170399,184.739525 110.907059,185.698835 110.662529,186.639334 C111.076349,186.037414 111.584218,185.190965 111.979228,184.250466 C112.374238,183.366396 112.712817,182.463517 112.788057,181.748738 C112.806867,181.485398 112.825677,181.240868 112.806867,181.052768 C112.806867,180.864668 112.562338,180.789428 112.468288,180.958718 C112.411858,181.052768 112.355428,181.165628 112.317808,181.278488 C111.998038,182.124937 111.715888,182.971387 111.471358,183.817836 Z M117.829133,192.338759 C119.164642,192.20709 120.180382,191.62398 121.158501,190.683481 C121.421841,191.15373 121.384221,191.73684 121.045641,192.16947 C120.725871,192.564479 120.255622,192.921869 119.634892,193.185209 C118.694393,193.617838 117.716273,193.824748 116.662914,193.824748 C114.462146,193.824748 113.201877,192.865439 113.107827,190.928011 C113.013777,188.990582 113.690937,187.090774 114.988826,185.680025 C116.249095,184.175226 117.866753,183.366396 119.540842,183.366396 C121.120881,183.366396 121.87328,184.043556 121.85447,185.322635 C121.85447,186.601714 120.199192,188.238183 117.659844,189.141062 C117.057924,189.347972 115.835275,189.893461 115.816465,190.382521 C115.797655,190.833961 115.854085,191.22897 116.023375,191.4735 C116.437194,192.07542 117.114354,192.432809 117.829133,192.338759 Z M116.192665,188.256993 C116.192665,188.256993 116.117425,188.576762 116.004565,189.103442 C116.324335,188.407473 116.888634,188.162943 117.584604,187.786743 C118.788443,187.128394 119.127022,186.507664 119.315122,185.849315 C119.503222,185.190965 119.277502,184.626665 118.600343,184.626665 C117.584604,184.626665 116.738154,185.924554 116.192665,188.256993 Z M134.41954,178.87081 C137.899388,178.87081 140.062536,180.394419 140.062536,183.968316 C140.062536,189.310352 135.905529,193.918798 131.372323,193.918798 C130.055624,193.918798 128.757735,193.486169 127.704376,192.677339 C127.685566,192.508049 127.723186,192.31995 127.798426,191.96256 C128.569635,188.520332 129.566564,184.701905 129.999194,182.350657 C130.036814,182.162557 130.055624,182.012078 130.055624,181.899218 C130.055624,181.334918 129.491324,181.504208 129.491324,181.090388 C129.491324,180.601329 129.641804,180.093459 129.923954,179.679639 C131.127793,179.2282 132.801882,178.87081 134.41954,178.87081 Z M132.463302,192.20709 C135.17194,192.20709 137.241038,188.256993 137.241038,184.476186 C137.241038,182.012078 136.131249,180.544899 134.062151,180.544899 C133.761191,180.544899 133.102842,180.620139 132.594972,180.732999 C132.689022,181.015148 132.726642,181.297298 132.726642,181.598258 C132.726642,183.009007 131.334703,188.256993 130.732783,191.19135 C130.902073,191.92494 131.372323,192.20709 132.463302,192.20709 Z M145.122422,192.338759 C146.457931,192.20709 147.47367,191.62398 148.45179,190.683481 C148.715129,191.15373 148.677509,191.73684 148.33893,192.16947 C148.01916,192.564479 147.54891,192.921869 146.928181,193.185209 C145.987681,193.617838 145.009562,193.824748 143.956203,193.824748 C141.755435,193.824748 140.495166,192.865439 140.401116,190.928011 C140.307066,188.990582 140.984225,187.090774 142.282114,185.680025 C143.542383,184.175226 145.160042,183.366396 146.834131,183.366396 C148.41417,183.366396 149.166569,184.043556 149.147759,185.322635 C149.147759,186.601714 147.49248,188.238183 144.953132,189.141062 C144.351213,189.347972 143.128564,189.893461 143.109754,190.382521 C143.090944,190.833961 143.147374,191.22897 143.316664,191.4735 C143.730483,192.07542 144.407643,192.432809 145.122422,192.338759 Z M143.485953,188.256993 C143.485953,188.256993 143.410713,188.576762 143.297854,189.103442 C143.617623,188.407473 144.181923,188.162943 144.877892,187.786743 C146.081731,187.128394 146.420311,186.507664 146.608411,185.849315 C146.796511,185.190965 146.570791,184.626665 145.893632,184.626665 C144.877892,184.626665 144.031443,185.924554 143.485953,188.256993 Z M158.232982,183.479256 C159.323961,183.629736 159.756591,184.890005 159.756591,186.018604 C159.756591,189.667742 156.916283,193.693078 153.680965,193.693078 C153.079046,193.693078 152.458316,193.580219 151.912827,193.335689 C151.705917,194.144518 151.499007,195.141447 151.499007,195.950277 C151.499007,196.251236 151.593057,196.571006 151.687107,196.890776 C151.009948,197.229356 150.370408,197.361026 149.918968,197.361026 C149.147759,197.361026 148.790369,196.984826 148.790369,196.307666 C148.790369,196.044327 148.827989,195.724557 148.903229,195.385977 C149.034899,194.859298 150.577318,188.275803 150.803038,187.297683 C151.047568,186.244324 151.198047,185.435495 151.198047,184.626665 C151.198047,184.325706 151.141617,184.024746 151.009948,183.742596 C151.762347,183.404016 152.401886,183.253537 152.947376,183.253537 C153.643345,183.253537 154.019545,183.535686 154.019545,184.118796 C154.019545,184.457376 153.775015,185.567165 153.380006,187.071964 C154.470985,185.322635 155.956974,183.441636 157.762732,183.441636 C157.913212,183.441636 158.063692,183.460446 158.232982,183.479256 Z M156.991523,186.808624 L156.991523,186.582904 C156.991523,185.849315 156.822233,185.435495 156.408413,185.435495 C155.430294,185.435495 153.079046,189.253922 152.345457,191.32302 C152.458316,191.8497 153.229526,192.2259 153.869065,192.2259 C155.467914,192.2259 156.859853,189.329162 156.991523,186.808624 Z M164.929337,192.338759 C166.264846,192.20709 167.280585,191.62398 168.258704,190.683481 C168.522044,191.15373 168.484424,191.73684 168.145844,192.16947 C167.826074,192.564479 167.355825,192.921869 166.735095,193.185209 C165.794596,193.617838 164.816477,193.824748 163.763118,193.824748 C161.562349,193.824748 160.30208,192.865439 160.20803,190.928011 C160.11398,188.990582 160.79114,187.090774 162.089029,185.680025 C163.349298,184.175226 164.966957,183.366396 166.641045,183.366396 C168.221084,183.366396 168.973484,184.043556 168.954674,185.322635 C168.954674,186.601714 167.299395,188.238183 164.760047,189.141062 C164.158127,189.347972 162.935478,189.893461 162.916668,190.382521 C162.897858,190.833961 162.954288,191.22897 163.123578,191.4735 C163.537398,192.07542 164.214557,192.432809 164.929337,192.338759 Z M163.292868,188.256993 C163.292868,188.256993 163.217628,188.576762 163.104768,189.103442 C163.424538,188.407473 163.988837,188.162943 164.684807,187.786743 C165.888646,187.128394 166.227226,186.507664 166.415326,185.849315 C166.603425,185.190965 166.377706,184.626665 165.700546,184.626665 C164.684807,184.626665 163.838358,185.924554 163.292868,188.256993 Z M176.252948,185.698835 C175.726268,185.698835 174.823389,186.883864 173.93932,188.275803 C173.01763,189.761791 172.735481,190.495381 171.851411,192.696149 C171.588072,193.373309 171.249492,193.711888 170.290183,193.711888 C169.913983,193.711888 169.424923,193.655458 168.823004,193.561409 C169.236823,192.526859 169.613023,191.43588 169.932793,190.382521 C170.666382,187.956033 170.948532,186.187894 170.948532,185.172155 C170.948532,184.701905 170.892102,184.269276 170.741622,183.949506 C171.569262,183.573306 172.227611,183.422826 172.716671,183.422826 C173.18692,183.422826 173.7136,183.667356 173.7136,184.325706 C173.7136,185.096915 173.39383,186.281944 173.03644,187.749123 C174.202659,185.567165 176.252948,183.366396 177.832987,183.366396 C178.679436,183.366396 179.262546,183.949506 179.262546,184.739525 C179.262546,185.585975 178.999206,186.921484 178.641816,188.388663 C178.378476,189.310352 178.077516,190.288471 178.077516,190.965631 C178.077516,191.34183 178.096326,191.77446 178.284426,191.77446 C178.472526,191.77446 178.829916,191.49231 179.187306,191.11611 C179.789225,190.495381 180.108995,190.175611 180.315905,190.175611 C180.391145,190.175611 180.428765,190.213231 180.428765,190.326091 C180.428765,191.71803 178.416096,193.749508 177.099397,193.749508 C176.102468,193.749508 175.406499,193.204019 175.406499,192.01899 C175.406499,191.37945 175.594598,190.721101 175.782698,189.874651 C176.271758,187.749123 176.535098,186.394804 176.535098,186.112654 C176.535098,185.811695 176.403428,185.698835 176.252948,185.698835 Z M190.172337,191.05968 C190.755447,190.420141 191.131646,190.119181 191.300936,190.119181 C191.376176,190.119181 191.413796,190.175611 191.413796,190.288471 C191.413796,191.68041 189.419938,193.693078 188.084429,193.693078 C186.99345,193.693078 186.39153,193.053539 186.39153,191.64279 C186.39153,191.19135 186.44796,190.570621 186.50439,190.194421 C184.961971,192.733769 183.381932,193.805938 182.084043,193.805938 C180.899014,193.805938 180.184235,192.809009 180.184235,191.30421 C180.184235,187.786743 182.930493,183.479256 186.12819,183.479256 C186.86178,183.479256 187.388459,183.667356 187.933949,183.968316 C188.216099,182.858527 188.366578,181.842788 188.366578,181.071578 C188.366578,180.770619 188.328958,180.488469 188.178479,180.243939 C188.836828,179.867739 189.551608,179.679639 190.097097,179.679639 C190.811877,179.679639 191.150456,180.055839 191.150456,180.732999 C191.150456,181.316108 191.037596,181.861598 190.905926,182.425897 C189.965427,186.451234 189.043738,189.329162 189.043738,190.928011 C189.043738,191.30421 189.156598,191.54874 189.250648,191.71803 C189.438748,191.68041 189.796137,191.41707 190.172337,191.05968 Z M185.78961,189.347972 C186.42915,188.313423 186.99345,187.222443 187.463699,186.169084 C187.332029,185.435495 186.67368,184.927625 185.9589,184.927625 C184.454101,184.927625 182.911683,188.162943 182.911683,190.852771 C182.949303,191.51112 183.137403,191.83089 183.513602,191.83089 C184.021472,191.83089 184.849111,190.909201 185.78961,189.347972 Z M195.928193,192.338759 C197.263701,192.20709 198.279441,191.62398 199.25756,190.683481 C199.5209,191.15373 199.48328,191.73684 199.1447,192.16947 C198.82493,192.564479 198.354681,192.921869 197.733951,193.185209 C196.793452,193.617838 195.815333,193.824748 194.761973,193.824748 C192.561205,193.824748 191.300936,192.865439 191.206886,190.928011 C191.112836,188.990582 191.789996,187.090774 193.087885,185.680025 C194.348154,184.175226 195.965813,183.366396 197.639901,183.366396 C199.21994,183.366396 199.972339,184.043556 199.953529,185.322635 C199.953529,186.601714 198.298251,188.238183 195.758903,189.141062 C195.156983,189.347972 193.934334,189.893461 193.915524,190.382521 C193.896714,190.833961 193.953144,191.22897 194.122434,191.4735 C194.536254,192.07542 195.213413,192.432809 195.928193,192.338759 Z M194.291724,188.256993 C194.291724,188.256993 194.216484,188.576762 194.103624,189.103442 C194.423394,188.407473 194.987693,188.162943 195.683663,187.786743 C196.887502,187.128394 197.226082,186.507664 197.414181,185.849315 C197.602281,185.190965 197.376561,184.626665 196.699402,184.626665 C195.683663,184.626665 194.837213,185.924554 194.291724,188.256993 Z M207.251804,185.698835 C206.725124,185.698835 205.822245,186.883864 204.938176,188.275803 C204.016486,189.761791 203.734336,190.495381 202.850267,192.696149 C202.586927,193.373309 202.248348,193.711888 201.289038,193.711888 C200.912839,193.711888 200.423779,193.655458 199.82186,193.561409 C200.235679,192.526859 200.611879,191.43588 200.931649,190.382521 C201.665238,187.956033 201.947388,186.187894 201.947388,185.172155 C201.947388,184.701905 201.890958,184.269276 201.740478,183.949506 C202.568117,183.573306 203.226467,183.422826 203.715526,183.422826 C204.185776,183.422826 204.712456,183.667356 204.712456,184.325706 C204.712456,185.096915 204.392686,186.281944 204.035296,187.749123 C205.201515,185.567165 207.251804,183.366396 208.831842,183.366396 C209.678292,183.366396 210.261401,183.949506 210.261401,184.739525 C210.261401,185.585975 209.998062,186.921484 209.640672,188.388663 C209.377332,189.310352 209.076372,190.288471 209.076372,190.965631 C209.076372,191.34183 209.095182,191.77446 209.283282,191.77446 C209.471382,191.77446 209.828772,191.49231 210.186161,191.11611 C210.788081,190.495381 211.107851,190.175611 211.314761,190.175611 C211.39,190.175611 211.42762,190.213231 211.42762,190.326091 C211.42762,191.71803 209.414952,193.749508 208.098253,193.749508 C207.101324,193.749508 206.405354,193.204019 206.405354,192.01899 C206.405354,191.37945 206.593454,190.721101 206.781554,189.874651 C207.270614,187.749123 207.533953,186.394804 207.533953,186.112654 C207.533953,185.811695 207.402284,185.698835 207.251804,185.698835 Z M219.177334,190.589431 C219.290194,190.796341 219.327814,191.003251 219.327814,191.22897 C219.327814,192.846629 216.299407,193.824748 214.700558,193.824748 C212.46217,193.824748 211.314761,192.771389 211.314761,190.645861 C211.314761,186.902674 214.249118,183.366396 217.728966,183.366396 C219.346624,183.366396 220.099024,183.761406 220.099024,184.551426 C220.099024,185.266205 219.346624,185.830505 218.330885,186.150274 C218.086355,185.059295 217.747776,184.683095 216.995376,184.683095 C215.415337,184.683095 214.230308,186.733384 214.230308,190.137991 C214.230308,191.2854 214.644128,192.26352 215.659867,192.26352 C216.995376,192.26352 218.312075,191.60517 219.177334,190.589431 Z M217.616106,196.702676 C217.597296,196.646246 217.597296,196.571006 217.597296,196.495766 C217.597296,196.138377 217.747776,195.668127 217.935875,195.273117 C218.105165,195.423597 218.575415,195.574077 218.876375,195.574077 C220.042594,195.574077 221.190003,194.614768 222.055262,193.373309 C222.186932,193.185209 222.224552,192.865439 222.224552,192.508049 C222.224552,192.18828 222.186932,191.8497 222.149312,191.56755 C221.622633,187.297683 220.964283,184.645475 220.287124,184.118796 C221.039523,183.667356 221.754302,183.422826 222.412652,183.422826 C223.108621,183.422826 223.578871,183.911886 223.729351,184.965245 C224.011501,186.883864 224.25603,189.216302 224.3877,191.07849 C226.249889,188.445093 227.566588,185.905745 227.566588,184.551426 C227.566588,184.212846 227.359678,183.592116 227.133958,183.347586 C227.359678,183.309967 227.679448,183.291157 227.829928,183.291157 C229.203057,183.291157 229.804976,183.704976 229.804976,184.570236 C229.804976,185.755265 227.848738,189.047012 224.85795,192.978299 C222.092882,196.646246 220.437603,197.605555 219.045665,197.605555 C218.236835,197.605555 217.728966,197.304596 217.616106,196.702676 Z M243.235306,193.730698 C242.708626,193.730698 242.539336,193.655458 242.539336,193.109969 C241.730507,193.768318 240.413808,193.994038 239.285209,193.994038 C236.708241,193.994038 235.090582,191.98137 235.090582,189.047012 C235.090582,183.648546 239.097109,178.852 243.649125,178.852 C245.849894,178.852 247.166593,179.529159 247.166593,180.657759 C247.166593,181.372538 246.621103,181.993268 245.417264,182.613997 C245.191544,181.165628 244.156995,180.375609 242.765056,180.375609 C239.830698,180.375609 238.08137,185.303825 238.08137,188.670812 C238.08137,190.852771 238.833769,192.16947 240.357378,192.16947 C240.940487,192.16947 241.561217,191.92494 242.125517,191.62398 C242.708626,190.796341 242.934346,189.724172 243.178876,188.426283 C243.178876,188.087703 243.141256,187.956033 242.953156,187.861983 C242.652196,187.861983 242.332426,187.918413 242.031467,188.050083 C242.031467,186.601714 242.746246,186.676954 245.078684,186.564094 C245.417264,186.545284 246.019183,186.545284 246.037993,186.789814 C246.056803,187.071964 245.943944,187.372923 245.849894,187.730313 C245.342024,189.874651 244.984634,191.60517 244.984634,192.338759 C244.984634,192.714959 245.172734,193.091159 245.172734,193.316879 C244.740104,193.580219 243.912465,193.730698 243.235306,193.730698 Z M254.333197,190.984441 C255.706326,189.554882 256.026096,189.686552 255.273696,191.22897 C254.652967,192.489239 252.997688,193.730698 252.000759,193.730698 C250.9474,193.730698 250.25143,193.185209 250.40191,191.94375 C250.47715,191.17254 250.83454,190.006321 251.04145,189.347972 C251.229549,188.670812 252.075999,186.225514 252.188859,185.830505 C252.301719,185.454305 252.376959,185.266205 252.132429,185.303825 C251.963139,185.341445 251.210739,185.454305 250.47715,185.454305 C250.34548,185.830505 250.13857,186.413614 249.799991,187.034344 C249.461411,187.636263 249.028781,188.256993 248.614961,188.576762 C248.125902,188.934152 247.561602,189.103442 247.053733,188.896532 C248.013042,187.767933 248.370432,186.827434 248.445672,185.454305 C246.677533,184.795955 248.219952,182.350657 249.009971,182.519947 C248.991161,183.009007 247.918992,184.325706 252.621488,183.516876 C253.242218,183.366396 254.596537,183.027817 254.841067,184.156416 C255.104406,185.435495 254.295577,186.883864 253.900567,188.144133 C253.580798,189.216302 253.223408,190.137991 253.166978,190.815151 C253.148168,191.22897 253.110548,191.69922 253.336268,191.68041 C253.543178,191.6616 253.900567,191.34183 254.333197,190.984441 Z M265.807288,191.13492 C266.390398,190.495381 266.766597,190.194421 266.954697,190.194421 C267.029937,190.194421 267.048747,190.250851 267.048747,190.363711 C267.048747,191.73684 265.054889,193.787128 263.71938,193.787128 C262.684831,193.787128 262.045291,193.147589 262.045291,191.79327 C262.045291,191.34183 262.082911,190.664671 262.139341,190.269661 C260.728592,192.564479 259.355463,193.749508 258.114004,193.805938 L257.907094,193.805938 C256.402295,193.805938 255.875616,192.696149 255.875616,191.15373 C255.950856,187.523403 258.791164,183.385206 261.819571,183.385206 C262.553161,183.385206 263.17389,183.535686 263.66295,183.911886 C263.96391,183.592116 264.377729,183.422826 264.847979,183.422826 C265.431088,183.422826 265.976578,183.592116 266.522068,183.874266 C265.826098,184.908815 264.678689,189.554882 264.678689,191.003251 C264.678689,191.37945 264.697499,191.81208 264.885599,191.79327 C265.186559,191.75565 265.449898,191.49231 265.807288,191.13492 Z M260.935502,190.100371 C261.894811,188.708432 262.72245,187.034344 263.13627,185.886935 C262.92936,185.115725 262.214581,184.795955 261.631471,184.795955 C260.126673,184.795955 258.621874,188.407473 258.621874,190.852771 C258.659494,191.51112 258.847594,191.83089 259.242603,191.83089 C259.637613,191.83089 260.201912,191.19135 260.935502,190.100371 Z M275.70134,183.479256 C276.79232,183.629736 277.224949,184.890005 277.224949,186.018604 C277.224949,189.667742 274.384641,193.693078 271.149324,193.693078 C270.547404,193.693078 269.926675,193.580219 269.381185,193.335689 C269.174275,194.144518 268.967366,195.141447 268.967366,195.950277 C268.967366,196.251236 269.061416,196.571006 269.155465,196.890776 C268.478306,197.229356 267.838766,197.361026 267.387327,197.361026 C266.616117,197.361026 266.258728,196.984826 266.258728,196.307666 C266.258728,196.044327 266.296348,195.724557 266.371588,195.385977 C266.503258,194.859298 268.045676,188.275803 268.271396,187.297683 C268.515926,186.244324 268.666406,185.435495 268.666406,184.626665 C268.666406,184.325706 268.609976,184.024746 268.478306,183.742596 C269.230705,183.404016 269.870245,183.253537 270.415734,183.253537 C271.111704,183.253537 271.487904,183.535686 271.487904,184.118796 C271.487904,184.457376 271.243374,185.567165 270.848364,187.071964 C271.939343,185.322635 273.425332,183.441636 275.231091,183.441636 C275.381571,183.441636 275.53205,183.460446 275.70134,183.479256 Z M274.459881,186.808624 L274.459881,186.582904 C274.459881,185.849315 274.290591,185.435495 273.876772,185.435495 C272.898653,185.435495 270.547404,189.253922 269.813815,191.32302 C269.926675,191.8497 270.697884,192.2259 271.337424,192.2259 C272.936273,192.2259 274.328211,189.329162 274.459881,186.808624 Z M281.363146,187.749123 C282.604605,185.510735 284.523223,183.516876 286.234932,183.516876 C287.081381,183.516876 287.570441,183.987126 287.570441,185.040485 C287.551631,186.375994 286.611132,188.915342 286.611132,190.946821 C286.611132,191.32302 286.648752,191.75565 286.836852,191.75565 C287.100191,191.75565 287.401151,191.4735 287.758541,191.0973 C288.36046,190.476571 288.68023,190.156801 288.88714,190.156801 C288.96238,190.156801 289,190.194421 289,190.307281 C289,191.6616 287.006142,193.730698 285.651823,193.730698 C284.617273,193.730698 283.977734,193.091159 283.977734,191.75565 C283.977734,191.22897 284.034164,190.156801 284.353934,188.990582 C284.692513,187.805553 284.824183,186.902674 284.842993,186.357184 C284.842993,186.131464 284.767753,185.774075 284.542033,185.774075 C283.714394,185.774075 281.946255,188.557952 280.215737,192.696149 C279.933587,193.373309 279.632627,193.711888 278.654508,193.711888 C278.297118,193.711888 277.808059,193.655458 277.206139,193.561409 C278.635698,189.818221 279.519767,185.642405 280.065257,181.372538 C280.065257,181.297298 280.084067,181.240868 280.084067,181.184438 C280.084067,180.883478 280.008827,180.638949 279.858347,180.319179 C280.629557,179.886549 281.287906,179.717259 281.889826,179.717259 C282.435315,179.717259 282.830325,180.018219 282.830325,180.601329 C282.830325,180.657759 282.830325,180.714189 282.811515,180.770619 C282.773895,181.240868 282.228405,184.344516 281.363146,187.749123 Z"/>
  </g>
</svg>
