<?xml version="1.0" encoding="UTF-8" standalone="no"?>
<!DOCTYPE svg PUBLIC "-//W3C//DTD SVG 1.1//EN"
 "http://www.w3.org/Graphics/SVG/1.1/DTD/svg11.dtd">
<!-- Generated by graphviz version 2.40.1 (20161225.0304)
 -->
<!-- Title: G Pages: 1 -->
<svg width="466pt" height="294pt"
 viewBox="0.00 0.00 465.78 293.60" xmlns="http://www.w3.org/2000/svg" xmlns:xlink="http://www.w3.org/1999/xlink">
<g id="graph0" class="graph" transform="scale(1 1) rotate(0) translate(21.6 272)">
<title>G</title>
<polygon fill="#111111" stroke="transparent" points="-21.6,21.6 -21.6,-272 444.1781,-272 444.1781,21.6 -21.6,21.6"/>
<!-- bin/cli.js -->
<g id="node1" class="node">
<title>bin/cli.js</title>
<path fill="none" stroke="#c6c5fe" d="M57.6239,-86.1482C57.6239,-86.1482 8.1691,-86.1482 8.1691,-86.1482 4.1361,-86.1482 .1032,-82.1152 .1032,-78.0823 .1032,-78.0823 .1032,-70.0164 .1032,-70.0164 .1032,-65.9834 4.1361,-61.9505 8.1691,-61.9505 8.1691,-61.9505 57.6239,-61.9505 57.6239,-61.9505 61.6568,-61.9505 65.6898,-65.9834 65.6898,-70.0164 65.6898,-70.0164 65.6898,-78.0823 65.6898,-78.0823 65.6898,-82.1152 61.6568,-86.1482 57.6239,-86.1482"/>
<text text-anchor="middle" x="32.8965" y="-70.8986" font-family="Arial" font-size="14.00" fill="#c6c5fe">bin/cli.js</text>
</g>
<!-- lib/api.js -->
<g id="node2" class="node">
<title>lib/api.js</title>
<path fill="none" stroke="#c6c5fe" d="M176.059,-188.1482C176.059,-188.1482 126.0299,-188.1482 126.0299,-188.1482 121.997,-188.1482 117.964,-184.1152 117.964,-180.0823 117.964,-180.0823 117.964,-172.0164 117.964,-172.0164 117.964,-167.9834 121.997,-163.9505 126.0299,-163.9505 126.0299,-163.9505 176.059,-163.9505 176.059,-163.9505 180.0919,-163.9505 184.1249,-167.9834 184.1249,-172.0164 184.1249,-172.0164 184.1249,-180.0823 184.1249,-180.0823 184.1249,-184.1152 180.0919,-188.1482 176.059,-188.1482"/>
<text text-anchor="middle" x="151.0444" y="-172.8986" font-family="Arial" font-size="14.00" fill="#c6c5fe">lib/api.js</text>
</g>
<!-- bin/cli.js&#45;&gt;lib/api.js -->
<g id="edge1" class="edge">
<title>bin/cli.js&#45;&gt;lib/api.js</title>
<path fill="none" stroke="#757575" d="M46.9136,-86.1506C67.254,-103.711 105.1408,-136.4196 129.174,-157.168"/>
<polygon fill="#757575" stroke="#757575" points="127.189,-160.0782 137.0456,-163.9638 131.7634,-154.7796 127.189,-160.0782"/>
</g>
<!-- lib/log.js -->
<g id="node3" class="node">
<title>lib/log.js</title>
<path fill="none" stroke="#cfffac" d="M414.3031,-146.1482C414.3031,-146.1482 364.274,-146.1482 364.274,-146.1482 360.2411,-146.1482 356.2082,-142.1152 356.2082,-138.0823 356.2082,-138.0823 356.2082,-130.0164 356.2082,-130.0164 356.2082,-125.9834 360.2411,-121.9505 364.274,-121.9505 364.274,-121.9505 414.3031,-121.9505 414.3031,-121.9505 418.3361,-121.9505 422.369,-125.9834 422.369,-130.0164 422.369,-130.0164 422.369,-138.0823 422.369,-138.0823 422.369,-142.1152 418.3361,-146.1482 414.3031,-146.1482"/>
<text text-anchor="middle" x="389.2886" y="-130.8986" font-family="Arial" font-size="14.00" fill="#cfffac">lib/log.js</text>
</g>
<!-- bin/cli.js&#45;&gt;lib/log.js -->
<g id="edge2" class="edge">
<title>bin/cli.js&#45;&gt;lib/log.js</title>
<path fill="none" stroke="#757575" d="M65.917,-76.8109C119.631,-81.6875 229.0759,-93.2278 319.999,-113.0493 328.6545,-114.9362 337.7957,-117.3758 346.4992,-119.9207"/>
<polygon fill="#757575" stroke="#757575" points="345.5058,-123.2768 356.0905,-122.8149 347.528,-116.5752 345.5058,-123.2768"/>
</g>
<!-- lib/output.js -->
<g id="node4" class="node">
<title>lib/output.js</title>
<path fill="none" stroke="#cfffac" d="M186.299,-66.1482C186.299,-66.1482 115.7898,-66.1482 115.7898,-66.1482 111.7569,-66.1482 107.7239,-62.1152 107.7239,-58.0823 107.7239,-58.0823 107.7239,-50.0164 107.7239,-50.0164 107.7239,-45.9834 111.7569,-41.9505 115.7898,-41.9505 115.7898,-41.9505 186.299,-41.9505 186.299,-41.9505 190.332,-41.9505 194.3649,-45.9834 194.3649,-50.0164 194.3649,-50.0164 194.3649,-58.0823 194.3649,-58.0823 194.3649,-62.1152 190.332,-66.1482 186.299,-66.1482"/>
<text text-anchor="middle" x="151.0444" y="-50.8986" font-family="Arial" font-size="14.00" fill="#cfffac">lib/output.js</text>
</g>
<!-- bin/cli.js&#45;&gt;lib/output.js -->
<g id="edge3" class="edge">
<title>bin/cli.js&#45;&gt;lib/output.js</title>
<path fill="none" stroke="#757575" d="M65.8073,-68.4782C75.7398,-66.7968 86.9089,-64.9061 97.8102,-63.0608"/>
<polygon fill="#757575" stroke="#757575" points="98.4275,-66.5062 107.7031,-61.3861 97.2591,-59.6043 98.4275,-66.5062"/>
</g>
<!-- package.json -->
<g id="node5" class="node">
<title>package.json</title>
<path fill="none" stroke="#cfffac" d="M191.9827,-24.1482C191.9827,-24.1482 110.1061,-24.1482 110.1061,-24.1482 106.0732,-24.1482 102.0403,-20.1152 102.0403,-16.0823 102.0403,-16.0823 102.0403,-8.0164 102.0403,-8.0164 102.0403,-3.9834 106.0732,.0495 110.1061,.0495 110.1061,.0495 191.9827,.0495 191.9827,.0495 196.0157,.0495 200.0486,-3.9834 200.0486,-8.0164 200.0486,-8.0164 200.0486,-16.0823 200.0486,-16.0823 200.0486,-20.1152 196.0157,-24.1482 191.9827,-24.1482"/>
<text text-anchor="middle" x="151.0444" y="-8.8986" font-family="Arial" font-size="14.00" fill="#cfffac">package.json</text>
</g>
<!-- bin/cli.js&#45;&gt;package.json -->
<g id="edge4" class="edge">
<title>bin/cli.js&#45;&gt;package.json</title>
<path fill="none" stroke="#757575" d="M51.8127,-61.8589C65.4425,-53.3079 84.4187,-41.8732 101.793,-33.0493 104.9126,-31.465 108.1795,-29.8925 111.4831,-28.3628"/>
<polygon fill="#757575" stroke="#757575" points="113.103,-31.4723 120.7983,-24.19 110.2413,-25.084 113.103,-31.4723"/>
</g>
<!-- lib/api.js&#45;&gt;lib/log.js -->
<g id="edge7" class="edge">
<title>lib/api.js&#45;&gt;lib/log.js</title>
<path fill="none" stroke="#757575" d="M162.3199,-188.2161C177.4276,-203.5267 205.8815,-229.0307 236.2959,-239.0493 271.6297,-250.6884 287.2408,-256.6801 319.999,-239.0493 352.622,-221.4913 372.4342,-181.1007 382.0894,-155.8449"/>
<polygon fill="#757575" stroke="#757575" points="385.4074,-156.9613 385.5088,-146.367 378.8228,-154.5858 385.4074,-156.9613"/>
</g>
<!-- lib/cyclic.js -->
<g id="node6" class="node">
<title>lib/cyclic.js</title>
<path fill="none" stroke="#cfffac" d="M311.1988,-230.1482C311.1988,-230.1482 245.0961,-230.1482 245.0961,-230.1482 241.0631,-230.1482 237.0302,-226.1152 237.0302,-222.0823 237.0302,-222.0823 237.0302,-214.0164 237.0302,-214.0164 237.0302,-209.9834 241.0631,-205.9505 245.0961,-205.9505 245.0961,-205.9505 311.1988,-205.9505 311.1988,-205.9505 315.2318,-205.9505 319.2647,-209.9834 319.2647,-214.0164 319.2647,-214.0164 319.2647,-222.0823 319.2647,-222.0823 319.2647,-226.1152 315.2318,-230.1482 311.1988,-230.1482"/>
<text text-anchor="middle" x="278.1475" y="-214.8986" font-family="Arial" font-size="14.00" fill="#cfffac">lib/cyclic.js</text>
</g>
<!-- lib/api.js&#45;&gt;lib/cyclic.js -->
<g id="edge5" class="edge">
<title>lib/api.js&#45;&gt;lib/cyclic.js</title>
<path fill="none" stroke="#757575" d="M184.4393,-187.0843C198.9358,-191.8746 216.1577,-197.5654 231.8585,-202.7536"/>
<polygon fill="#757575" stroke="#757575" points="230.8068,-206.0921 241.4,-205.9065 233.0031,-199.4456 230.8068,-206.0921"/>
</g>
<!-- lib/graph.js -->
<g id="node7" class="node">
<title>lib/graph.js</title>
<path fill="none" stroke="#cfffac" d="M311.7852,-188.1482C311.7852,-188.1482 244.5097,-188.1482 244.5097,-188.1482 240.4768,-188.1482 236.4438,-184.1152 236.4438,-180.0823 236.4438,-180.0823 236.4438,-172.0164 236.4438,-172.0164 236.4438,-167.9834 240.4768,-163.9505 244.5097,-163.9505 244.5097,-163.9505 311.7852,-163.9505 311.7852,-163.9505 315.8182,-163.9505 319.8511,-167.9834 319.8511,-172.0164 319.8511,-172.0164 319.8511,-180.0823 319.8511,-180.0823 319.8511,-184.1152 315.8182,-188.1482 311.7852,-188.1482"/>
<text text-anchor="middle" x="278.1475" y="-172.8986" font-family="Arial" font-size="14.00" fill="#cfffac">lib/graph.js</text>
</g>
<!-- lib/api.js&#45;&gt;lib/graph.js -->
<g id="edge6" class="edge">
<title>lib/api.js&#45;&gt;lib/graph.js</title>
<path fill="none" stroke="#757575" d="M184.4393,-176.0493C197.2235,-176.0493 212.1272,-176.0493 226.238,-176.0493"/>
<polygon fill="#757575" stroke="#757575" points="226.3311,-179.5494 236.3311,-176.0493 226.3311,-172.5494 226.3311,-179.5494"/>
</g>
<!-- lib/tree.js -->
<g id="node8" class="node">
<title>lib/tree.js</title>
<path fill="none" stroke="#c6c5fe" d="M306.1021,-146.1482C306.1021,-146.1482 250.1928,-146.1482 250.1928,-146.1482 246.1599,-146.1482 242.127,-142.1152 242.127,-138.0823 242.127,-138.0823 242.127,-130.0164 242.127,-130.0164 242.127,-125.9834 246.1599,-121.9505 250.1928,-121.9505 250.1928,-121.9505 306.1021,-121.9505 306.1021,-121.9505 310.135,-121.9505 314.168,-125.9834 314.168,-130.0164 314.168,-130.0164 314.168,-138.0823 314.168,-138.0823 314.168,-142.1152 310.135,-146.1482 306.1021,-146.1482"/>
<text text-anchor="middle" x="278.1475" y="-130.8986" font-family="Arial" font-size="14.00" fill="#c6c5fe">lib/tree.js</text>
</g>
<!-- lib/api.js&#45;&gt;lib/tree.js -->
<g id="edge8" class="edge">
<title>lib/api.js&#45;&gt;lib/tree.js</title>
<path fill="none" stroke="#757575" d="M184.4393,-165.0143C199.0576,-160.1838 216.4474,-154.4375 232.254,-149.2144"/>
<polygon fill="#757575" stroke="#757575" points="233.4555,-152.5035 241.8524,-146.0427 231.2592,-145.857 233.4555,-152.5035"/>
</g>
<!-- lib/tree.js&#45;&gt;lib/log.js -->
<g id="edge9" class="edge">
<title>lib/tree.js&#45;&gt;lib/log.js</title>
<path fill="none" stroke="#757575" d="M314.2318,-134.0493C324.3098,-134.0493 335.3669,-134.0493 345.823,-134.0493"/>
<polygon fill="#757575" stroke="#757575" points="346.0203,-137.5494 356.0202,-134.0493 346.0202,-130.5494 346.0203,-137.5494"/>
</g>
</g>
</svg>
