<?xml version="1.0" encoding="UTF-8" standalone="no"?>
<!DOCTYPE svg PUBLIC "-//W3C//DTD SVG 1.1//EN"
 "http://www.w3.org/Graphics/SVG/1.1/DTD/svg11.dtd">
<!-- Generated by graphviz version 2.38.0 (20140413.2041)
 -->
<!-- Title: G Pages: 1 -->
<svg width="506pt" height="268pt"
 viewBox="0.00 0.00 506.22 267.98" xmlns="http://www.w3.org/2000/svg" xmlns:xlink="http://www.w3.org/1999/xlink">
<g id="graph0" class="graph" transform="scale(1 1) rotate(0) translate(7.992 259.992)">
<title>G</title>
<polygon fill="#000000" stroke="none" points="-7.992,7.992 -7.992,-259.992 498.231,-259.992 498.231,7.992 -7.992,7.992"/>
<!-- bin/cli -->
<g id="node1" class="node"><title>bin/cli</title>
<ellipse fill="none" stroke="#c6c5fe" cx="291.846" cy="-234" rx="34.7182" ry="18"/>
<text text-anchor="middle" x="291.846" y="-230.849" font-family="Arial" font-size="14.00" fill="#c6c5fe">bin/cli</text>
</g>
<!-- lib/api -->
<g id="node2" class="node"><title>lib/api</title>
<ellipse fill="none" stroke="#c6c5fe" cx="134.846" cy="-162" rx="35.2762" ry="18"/>
<text text-anchor="middle" x="134.846" y="-158.849" font-family="Arial" font-size="14.00" fill="#c6c5fe">lib/api</text>
</g>
<!-- bin/cli&#45;&gt;lib/api -->
<g id="edge1" class="edge"><title>bin/cli&#45;&gt;lib/api</title>
<path fill="none" stroke="#757575" d="M266.272,-221.597C240.12,-209.937 199.298,-191.737 170.092,-178.715"/>
<polygon fill="#757575" stroke="#757575" points="171.229,-175.39 160.67,-174.514 168.378,-181.783 171.229,-175.39"/>
</g>
<!-- lib/log -->
<g id="node3" class="node"><title>lib/log</title>
<ellipse fill="none" stroke="#cfffac" cx="219.846" cy="-18" rx="35.2762" ry="18"/>
<text text-anchor="middle" x="219.846" y="-14.8493" font-family="Arial" font-size="14.00" fill="#cfffac">lib/log</text>
</g>
<!-- bin/cli&#45;&gt;lib/log -->
<g id="edge2" class="edge"><title>bin/cli&#45;&gt;lib/log</title>
<path fill="none" stroke="#757575" d="M285.571,-215.854C281.812,-205.496 276.977,-192.017 272.846,-180 256.687,-132.996 238.779,-77.9306 228.464,-45.9033"/>
<polygon fill="#757575" stroke="#757575" points="231.663,-44.4189 225.271,-35.97 224.999,-46.5614 231.663,-44.4189"/>
</g>
<!-- lib/output -->
<g id="node4" class="node"><title>lib/output</title>
<ellipse fill="none" stroke="#cfffac" cx="330.846" cy="-162" rx="49.0222" ry="18"/>
<text text-anchor="middle" x="330.846" y="-158.849" font-family="Arial" font-size="14.00" fill="#cfffac">lib/output</text>
</g>
<!-- bin/cli&#45;&gt;lib/output -->
<g id="edge3" class="edge"><title>bin/cli&#45;&gt;lib/output</title>
<path fill="none" stroke="#757575" d="M301.088,-216.411C305.683,-208.163 311.341,-198.009 316.484,-188.777"/>
<polygon fill="#757575" stroke="#757575" points="319.589,-190.395 321.399,-179.956 313.474,-186.988 319.589,-190.395"/>
</g>
<!-- package -->
<g id="node5" class="node"><title>package</title>
<ellipse fill="none" stroke="#cfffac" cx="443.846" cy="-162" rx="46.2866" ry="18"/>
<text text-anchor="middle" x="443.846" y="-158.849" font-family="Arial" font-size="14.00" fill="#cfffac">package</text>
</g>
<!-- bin/cli&#45;&gt;package -->
<g id="edge4" class="edge"><title>bin/cli&#45;&gt;package</title>
<path fill="none" stroke="#757575" d="M316.945,-221.441C341.082,-210.325 377.896,-193.372 405.667,-180.582"/>
<polygon fill="#757575" stroke="#757575" points="407.458,-183.611 415.077,-176.249 404.53,-177.253 407.458,-183.611"/>
</g>
<!-- lib/cyclic -->
<g id="node6" class="node"><title>lib/cyclic</title>
<ellipse fill="none" stroke="#cfffac" cx="45.8457" cy="-18" rx="45.6919" ry="18"/>
<text text-anchor="middle" x="45.8457" y="-14.8493" font-family="Arial" font-size="14.00" fill="#cfffac">lib/cyclic</text>
</g>
<!-- lib/api&#45;&gt;lib/cyclic -->
<g id="edge5" class="edge"><title>lib/api&#45;&gt;lib/cyclic</title>
<path fill="none" stroke="#757575" d="M102.385,-154.737C76.9634,-147.941 43.2496,-134.323 26.8457,-108 14.9622,-88.931 22.1448,-63.5833 30.8778,-44.8173"/>
<polygon fill="#757575" stroke="#757575" points="34.1123,-46.1764 35.4932,-35.6719 27.863,-43.0226 34.1123,-46.1764"/>
</g>
<!-- lib/graph -->
<g id="node7" class="node"><title>lib/graph</title>
<ellipse fill="none" stroke="#c6c5fe" cx="82.8457" cy="-90" rx="46.8263" ry="18"/>
<text text-anchor="middle" x="82.8457" y="-86.8493" font-family="Arial" font-size="14.00" fill="#c6c5fe">lib/graph</text>
</g>
<!-- lib/api&#45;&gt;lib/graph -->
<g id="edge6" class="edge"><title>lib/api&#45;&gt;lib/graph</title>
<path fill="none" stroke="#757575" d="M122.785,-144.765C116.381,-136.143 108.374,-125.365 101.214,-115.727"/>
<polygon fill="#757575" stroke="#757575" points="103.975,-113.574 95.2019,-107.633 98.3556,-117.748 103.975,-113.574"/>
</g>
<!-- lib/tree -->
<g id="node8" class="node"><title>lib/tree</title>
<ellipse fill="none" stroke="#c6c5fe" cx="186.846" cy="-90" rx="39.1005" ry="18"/>
<text text-anchor="middle" x="186.846" y="-86.8493" font-family="Arial" font-size="14.00" fill="#c6c5fe">lib/tree</text>
</g>
<!-- lib/api&#45;&gt;lib/tree -->
<g id="edge7" class="edge"><title>lib/api&#45;&gt;lib/tree</title>
<path fill="none" stroke="#757575" d="M146.906,-144.765C153.404,-136.018 161.55,-125.052 168.788,-115.308"/>
<polygon fill="#757575" stroke="#757575" points="171.697,-117.262 174.851,-107.147 166.078,-113.088 171.697,-117.262"/>
</g>
<!-- lib/graph&#45;&gt;lib/cyclic -->
<g id="edge8" class="edge"><title>lib/graph&#45;&gt;lib/cyclic</title>
<path fill="none" stroke="#757575" d="M73.889,-72.055C69.5715,-63.8866 64.299,-53.9116 59.4957,-44.8244"/>
<polygon fill="#757575" stroke="#757575" points="62.4873,-42.9944 54.7199,-35.789 56.2987,-46.2656 62.4873,-42.9944"/>
</g>
<!-- lib/tree&#45;&gt;lib/log -->
<g id="edge9" class="edge"><title>lib/tree&#45;&gt;lib/log</title>
<path fill="none" stroke="#757575" d="M194.834,-72.055C198.644,-63.9726 203.288,-54.1214 207.536,-45.1117"/>
<polygon fill="#757575" stroke="#757575" points="210.832,-46.3268 211.931,-35.789 204.501,-43.3418 210.832,-46.3268"/>
</g>
</g>
</svg>
