<?xml version="1.0" encoding="UTF-8" standalone="no"?>
<!DOCTYPE svg PUBLIC "-//W3C//DTD SVG 1.1//EN"
 "http://www.w3.org/Graphics/SVG/1.1/DTD/svg11.dtd">
<!-- Generated by graphviz version 2.38.0 (20140413.2041)
 -->
<!-- Title: G Pages: 1 -->
<svg width="714pt" height="268pt"
 viewBox="0.00 0.00 713.97 267.98" xmlns="http://www.w3.org/2000/svg" xmlns:xlink="http://www.w3.org/1999/xlink">
<g id="graph0" class="graph" transform="scale(1 1) rotate(0) translate(7.992 259.992)">
<title>G</title>
<polygon fill="#000000" stroke="none" points="-7.992,7.992 -7.992,-259.992 705.976,-259.992 705.976,7.992 -7.992,7.992"/>
<!-- bin/cli.js -->
<g id="node1" class="node"><title>bin/cli.js</title>
<ellipse fill="none" stroke="#c6c5fe" cx="445.687" cy="-234" rx="44.0639" ry="18"/>
<text text-anchor="middle" x="445.687" y="-230.849" font-family="Arial" font-size="14.00" fill="#c6c5fe">bin/cli.js</text>
</g>
<!-- lib/api.js -->
<g id="node2" class="node"><title>lib/api.js</title>
<ellipse fill="none" stroke="#c6c5fe" cx="203.687" cy="-162" rx="44.6218" ry="18"/>
<text text-anchor="middle" x="203.687" y="-158.849" font-family="Arial" font-size="14.00" fill="#c6c5fe">lib/api.js</text>
</g>
<!-- bin/cli.js&#45;&gt;lib/api.js -->
<g id="edge1" class="edge"><title>bin/cli.js&#45;&gt;lib/api.js</title>
<path fill="none" stroke="#757575" d="M410.757,-222.896C368.076,-210.55 295.772,-189.636 248.888,-176.075"/>
<polygon fill="#757575" stroke="#757575" points="249.579,-172.631 239,-173.215 247.634,-179.355 249.579,-172.631"/>
</g>
<!-- lib/log.js -->
<g id="node3" class="node"><title>lib/log.js</title>
<ellipse fill="none" stroke="#cfffac" cx="326.687" cy="-18" rx="44.6218" ry="18"/>
<text text-anchor="middle" x="326.687" y="-14.8493" font-family="Arial" font-size="14.00" fill="#cfffac">lib/log.js</text>
</g>
<!-- bin/cli.js&#45;&gt;lib/log.js -->
<g id="edge2" class="edge"><title>bin/cli.js&#45;&gt;lib/log.js</title>
<path fill="none" stroke="#757575" d="M437.524,-215.977C432.692,-205.663 426.579,-192.186 421.687,-180 402.73,-132.779 411.574,-114.562 383.687,-72 376.09,-60.406 365.43,-49.5938 355.381,-40.7984"/>
<polygon fill="#757575" stroke="#757575" points="357.432,-37.9503 347.523,-34.2006 352.93,-43.3113 357.432,-37.9503"/>
</g>
<!-- lib/output.js -->
<g id="node4" class="node"><title>lib/output.js</title>
<ellipse fill="none" stroke="#cfffac" cx="488.687" cy="-162" rx="58.3674" ry="18"/>
<text text-anchor="middle" x="488.687" y="-158.849" font-family="Arial" font-size="14.00" fill="#cfffac">lib/output.js</text>
</g>
<!-- bin/cli.js&#45;&gt;lib/output.js -->
<g id="edge3" class="edge"><title>bin/cli.js&#45;&gt;lib/output.js</title>
<path fill="none" stroke="#757575" d="M455.877,-216.411C460.997,-208.077 467.312,-197.797 473.03,-188.488"/>
<polygon fill="#757575" stroke="#757575" points="476.019,-190.309 478.271,-179.956 470.055,-186.645 476.019,-190.309"/>
</g>
<!-- package.json -->
<g id="node5" class="node"><title>package.json</title>
<ellipse fill="none" stroke="#cfffac" cx="631.687" cy="-162" rx="66.0937" ry="18"/>
<text text-anchor="middle" x="631.687" y="-158.849" font-family="Arial" font-size="14.00" fill="#cfffac">package.json</text>
</g>
<!-- bin/cli.js&#45;&gt;package.json -->
<g id="edge4" class="edge"><title>bin/cli.js&#45;&gt;package.json</title>
<path fill="none" stroke="#757575" d="M477.239,-221.125C506.766,-210.013 551.25,-193.272 584.905,-180.606"/>
<polygon fill="#757575" stroke="#757575" points="586.404,-183.782 594.531,-176.984 583.939,-177.23 586.404,-183.782"/>
</g>
<!-- lib/api.js&#45;&gt;lib/log.js -->
<g id="edge7" class="edge"><title>lib/api.js&#45;&gt;lib/log.js</title>
<path fill="none" stroke="#757575" d="M160.645,-156.785C90.7325,-148.305 -35.3887,-125.238 9.68707,-72 42.6217,-33.1018 189.984,-22.7302 271.686,-19.98"/>
<polygon fill="#757575" stroke="#757575" points="271.908,-23.4749 281.795,-19.6673 271.691,-16.4782 271.908,-23.4749"/>
</g>
<!-- lib/cyclic.js -->
<g id="node6" class="node"><title>lib/cyclic.js</title>
<ellipse fill="none" stroke="#cfffac" cx="73.6871" cy="-90" rx="55.0375" ry="18"/>
<text text-anchor="middle" x="73.6871" y="-86.8493" font-family="Arial" font-size="14.00" fill="#cfffac">lib/cyclic.js</text>
</g>
<!-- lib/api.js&#45;&gt;lib/cyclic.js -->
<g id="edge5" class="edge"><title>lib/api.js&#45;&gt;lib/cyclic.js</title>
<path fill="none" stroke="#757575" d="M178.003,-147.17C158.579,-136.711 131.652,-122.212 110.022,-110.565"/>
<polygon fill="#757575" stroke="#757575" points="111.577,-107.427 101.113,-105.768 108.258,-113.59 111.577,-107.427"/>
</g>
<!-- lib/graph.js -->
<g id="node7" class="node"><title>lib/graph.js</title>
<ellipse fill="none" stroke="#cfffac" cx="203.687" cy="-90" rx="56.1718" ry="18"/>
<text text-anchor="middle" x="203.687" y="-86.8493" font-family="Arial" font-size="14.00" fill="#cfffac">lib/graph.js</text>
</g>
<!-- lib/api.js&#45;&gt;lib/graph.js -->
<g id="edge6" class="edge"><title>lib/api.js&#45;&gt;lib/graph.js</title>
<path fill="none" stroke="#757575" d="M203.687,-143.697C203.687,-135.983 203.687,-126.712 203.687,-118.112"/>
<polygon fill="#757575" stroke="#757575" points="207.187,-118.104 203.687,-108.104 200.187,-118.104 207.187,-118.104"/>
</g>
<!-- lib/tree.js -->
<g id="node8" class="node"><title>lib/tree.js</title>
<ellipse fill="none" stroke="#c6c5fe" cx="326.687" cy="-90" rx="48.4456" ry="18"/>
<text text-anchor="middle" x="326.687" y="-86.8493" font-family="Arial" font-size="14.00" fill="#c6c5fe">lib/tree.js</text>
</g>
<!-- lib/api.js&#45;&gt;lib/tree.js -->
<g id="edge8" class="edge"><title>lib/api.js&#45;&gt;lib/tree.js</title>
<path fill="none" stroke="#757575" d="M228.578,-146.834C246.962,-136.372 272.208,-122.004 292.486,-110.464"/>
<polygon fill="#757575" stroke="#757575" points="294.451,-113.373 301.411,-105.385 290.989,-107.289 294.451,-113.373"/>
</g>
<!-- lib/tree.js&#45;&gt;lib/log.js -->
<g id="edge9" class="edge"><title>lib/tree.js&#45;&gt;lib/log.js</title>
<path fill="none" stroke="#757575" d="M326.687,-71.6966C326.687,-63.9827 326.687,-54.7125 326.687,-46.1124"/>
<polygon fill="#757575" stroke="#757575" points="330.187,-46.1043 326.687,-36.1043 323.187,-46.1044 330.187,-46.1043"/>
</g>
</g>
</svg>
