<?xml version="1.0" encoding="UTF-8" standalone="no"?>
<!DOCTYPE svg PUBLIC "-//W3C//DTD SVG 1.1//EN"
 "http://www.w3.org/Graphics/SVG/1.1/DTD/svg11.dtd">
<!-- Generated by graphviz version 2.38.0 (20140413.2041)
 -->
<!-- Title: G Pages: 1 -->
<svg width="368pt" height="260pt"
 viewBox="0.00 0.00 367.78 260.00" xmlns="http://www.w3.org/2000/svg" xmlns:xlink="http://www.w3.org/1999/xlink">
<g id="graph0" class="graph" transform="scale(1 1) rotate(0) translate(4 256)">
<title>G</title>
<polygon fill="#ffffff" stroke="none" points="-4,4 -4,-256 363.781,-256 363.781,4 -4,4"/>
<!-- bin/cli -->
<g id="node1" class="node"><title>bin/cli</title>
<ellipse fill="none" stroke="#99a8fe" cx="149.388" cy="-234" rx="34.7182" ry="18"/>
<text text-anchor="middle" x="149.388" y="-230.849" font-family="Arial" font-size="14.00" fill="#99a8fe">bin/cli</text>
</g>
<!-- lib/api -->
<g id="node2" class="node"><title>lib/api</title>
<ellipse fill="none" stroke="#99a8fe" cx="98.3879" cy="-162" rx="35.2762" ry="18"/>
<text text-anchor="middle" x="98.3879" y="-158.849" font-family="Arial" font-size="14.00" fill="#99a8fe">lib/api</text>
</g>
<!-- bin/cli&#45;&gt;lib/api -->
<g id="edge1" class="edge"><title>bin/cli&#45;&gt;lib/api</title>
<path fill="none" stroke="#d2d2d2" d="M137.559,-216.765C131.187,-208.018 123.197,-197.052 116.098,-187.308"/>
<polygon fill="#d2d2d2" stroke="#d2d2d2" points="118.87,-185.169 110.152,-179.147 113.212,-189.291 118.87,-185.169"/>
</g>
<!-- lib/log -->
<g id="node3" class="node"><title>lib/log</title>
<ellipse fill="none" stroke="#2cc754" cx="35.3879" cy="-90" rx="35.2762" ry="18"/>
<text text-anchor="middle" x="35.3879" y="-86.8493" font-family="Arial" font-size="14.00" fill="#2cc754">lib/log</text>
</g>
<!-- bin/cli&#45;&gt;lib/log -->
<g id="edge2" class="edge"><title>bin/cli&#45;&gt;lib/log</title>
<path fill="none" stroke="#d2d2d2" d="M120.025,-224.005C98.5835,-215.912 70.5445,-201.877 54.3879,-180 41.2234,-162.175 36.7807,-137.167 35.4545,-118.198"/>
<polygon fill="#d2d2d2" stroke="#d2d2d2" points="38.9459,-117.927 34.9968,-108.096 31.9531,-118.244 38.9459,-117.927"/>
</g>
<!-- lib/output -->
<g id="node4" class="node"><title>lib/output</title>
<ellipse fill="none" stroke="#2cc754" cx="200.388" cy="-162" rx="49.0222" ry="18"/>
<text text-anchor="middle" x="200.388" y="-158.849" font-family="Arial" font-size="14.00" fill="#2cc754">lib/output</text>
</g>
<!-- bin/cli&#45;&gt;lib/output -->
<g id="edge3" class="edge"><title>bin/cli&#45;&gt;lib/output</title>
<path fill="none" stroke="#d2d2d2" d="M161.217,-216.765C167.498,-208.143 175.351,-197.365 182.373,-187.727"/>
<polygon fill="#d2d2d2" stroke="#d2d2d2" points="185.21,-189.777 188.269,-179.633 179.552,-185.655 185.21,-189.777"/>
</g>
<!-- package -->
<g id="node5" class="node"><title>package</title>
<ellipse fill="none" stroke="#2cc754" cx="313.388" cy="-162" rx="46.2866" ry="18"/>
<text text-anchor="middle" x="313.388" y="-158.849" font-family="Arial" font-size="14.00" fill="#2cc754">package</text>
</g>
<!-- bin/cli&#45;&gt;package -->
<g id="edge4" class="edge"><title>bin/cli&#45;&gt;package</title>
<path fill="none" stroke="#d2d2d2" d="M175.374,-221.908C201.861,-210.603 243.285,-192.922 273.844,-179.878"/>
<polygon fill="#d2d2d2" stroke="#d2d2d2" points="275.529,-182.965 283.352,-175.82 272.781,-176.527 275.529,-182.965"/>
</g>
<!-- lib/api&#45;&gt;lib/log -->
<g id="edge7" class="edge"><title>lib/api&#45;&gt;lib/log</title>
<path fill="none" stroke="#d2d2d2" d="M84.0922,-145.116C75.9567,-136.076 65.6127,-124.583 56.5518,-114.515"/>
<polygon fill="#d2d2d2" stroke="#d2d2d2" points="58.9182,-111.913 49.627,-106.821 53.7152,-116.596 58.9182,-111.913"/>
</g>
<!-- lib/cyclic -->
<g id="node6" class="node"><title>lib/cyclic</title>
<ellipse fill="none" stroke="#2cc754" cx="135.388" cy="-18" rx="45.6919" ry="18"/>
<text text-anchor="middle" x="135.388" y="-14.8493" font-family="Arial" font-size="14.00" fill="#2cc754">lib/cyclic</text>
</g>
<!-- lib/api&#45;&gt;lib/cyclic -->
<g id="edge5" class="edge"><title>lib/api&#45;&gt;lib/cyclic</title>
<path fill="none" stroke="#d2d2d2" d="M101.442,-143.794C104.786,-125.761 110.589,-96.6757 117.388,-72 119.774,-63.3415 122.783,-54.0269 125.654,-45.6586"/>
<polygon fill="#d2d2d2" stroke="#d2d2d2" points="129.025,-46.6228 129.038,-36.0279 122.421,-44.3026 129.025,-46.6228"/>
</g>
<!-- lib/graph -->
<g id="node7" class="node"><title>lib/graph</title>
<ellipse fill="none" stroke="#99a8fe" cx="173.388" cy="-90" rx="46.8263" ry="18"/>
<text text-anchor="middle" x="173.388" y="-86.8493" font-family="Arial" font-size="14.00" fill="#99a8fe">lib/graph</text>
</g>
<!-- lib/api&#45;&gt;lib/graph -->
<g id="edge6" class="edge"><title>lib/api&#45;&gt;lib/graph</title>
<path fill="none" stroke="#d2d2d2" d="M114.662,-145.811C124.673,-136.467 137.694,-124.315 148.93,-113.827"/>
<polygon fill="#d2d2d2" stroke="#d2d2d2" points="151.442,-116.27 156.365,-106.888 146.666,-111.153 151.442,-116.27"/>
</g>
<!-- lib/graph&#45;&gt;lib/cyclic -->
<g id="edge8" class="edge"><title>lib/graph&#45;&gt;lib/cyclic</title>
<path fill="none" stroke="#d2d2d2" d="M164.189,-72.055C159.755,-63.8866 154.34,-53.9116 149.407,-44.8244"/>
<polygon fill="#d2d2d2" stroke="#d2d2d2" points="152.349,-42.9077 144.502,-35.789 146.197,-46.2474 152.349,-42.9077"/>
</g>
</g>
</svg>
