<?xml version="1.0" encoding="UTF-8" standalone="no"?>
<!DOCTYPE svg PUBLIC "-//W3C//DTD SVG 1.1//EN"
 "http://www.w3.org/Graphics/SVG/1.1/DTD/svg11.dtd">
<!-- Generated by graphviz version 2.38.0 (20140413.2041)
 -->
<!-- Title: G Pages: 1 -->
<svg width="315pt" height="260pt"
 viewBox="0.00 0.00 315.24 260.00" xmlns="http://www.w3.org/2000/svg" xmlns:xlink="http://www.w3.org/1999/xlink">
<g id="graph0" class="graph" transform="scale(1 1) rotate(0) translate(4 256)">
<title>G</title>
<polygon fill="#ffffff" stroke="none" points="-4,4 -4,-256 311.239,-256 311.239,4 -4,4"/>
<!-- bin/cli -->
<g id="node1" class="node"><title>bin/cli</title>
<ellipse fill="none" stroke="#99a8fe" cx="147.846" cy="-234" rx="34.7182" ry="18"/>
<text text-anchor="middle" x="147.846" y="-230.849" font-family="Arial" font-size="14.00" fill="#99a8fe">bin/cli</text>
</g>
<!-- lib/api -->
<g id="node2" class="node"><title>lib/api</title>
<ellipse fill="none" stroke="#99a8fe" cx="45.8457" cy="-162" rx="35.2762" ry="18"/>
<text text-anchor="middle" x="45.8457" y="-158.849" font-family="Arial" font-size="14.00" fill="#99a8fe">lib/api</text>
</g>
<!-- bin/cli&#45;&gt;lib/api -->
<g id="edge1" class="edge"><title>bin/cli&#45;&gt;lib/api</title>
<path fill="none" stroke="#d2d2d2" d="M127.694,-219.17C112.565,-208.788 91.6351,-194.424 74.7277,-182.821"/>
<polygon fill="#d2d2d2" stroke="#d2d2d2" points="76.5305,-179.813 66.3049,-177.041 72.5696,-185.585 76.5305,-179.813"/>
</g>
<!-- lib/output -->
<g id="node3" class="node"><title>lib/output</title>
<ellipse fill="none" stroke="#2cc754" cx="147.846" cy="-162" rx="49.0222" ry="18"/>
<text text-anchor="middle" x="147.846" y="-158.849" font-family="Arial" font-size="14.00" fill="#2cc754">lib/output</text>
</g>
<!-- bin/cli&#45;&gt;lib/output -->
<g id="edge2" class="edge"><title>bin/cli&#45;&gt;lib/output</title>
<path fill="none" stroke="#d2d2d2" d="M147.846,-215.697C147.846,-207.983 147.846,-198.712 147.846,-190.112"/>
<polygon fill="#d2d2d2" stroke="#d2d2d2" points="151.346,-190.104 147.846,-180.104 144.346,-190.104 151.346,-190.104"/>
</g>
<!-- package -->
<g id="node4" class="node"><title>package</title>
<ellipse fill="none" stroke="#2cc754" cx="260.846" cy="-162" rx="46.2866" ry="18"/>
<text text-anchor="middle" x="260.846" y="-158.849" font-family="Arial" font-size="14.00" fill="#2cc754">package</text>
</g>
<!-- bin/cli&#45;&gt;package -->
<g id="edge3" class="edge"><title>bin/cli&#45;&gt;package</title>
<path fill="none" stroke="#d2d2d2" d="M169.366,-219.669C186.061,-209.327 209.473,-194.824 228.433,-183.079"/>
<polygon fill="#d2d2d2" stroke="#d2d2d2" points="230.403,-185.975 237.061,-177.734 226.717,-180.024 230.403,-185.975"/>
</g>
<!-- lib/cyclic -->
<g id="node5" class="node"><title>lib/cyclic</title>
<ellipse fill="none" stroke="#2cc754" cx="45.8457" cy="-18" rx="45.6919" ry="18"/>
<text text-anchor="middle" x="45.8457" y="-14.8493" font-family="Arial" font-size="14.00" fill="#2cc754">lib/cyclic</text>
</g>
<!-- lib/api&#45;&gt;lib/cyclic -->
<g id="edge4" class="edge"><title>lib/api&#45;&gt;lib/cyclic</title>
<path fill="none" stroke="#d2d2d2" d="M38.5528,-144.179C34.514,-133.937 29.9045,-120.464 27.8457,-108 25.2382,-92.2139 25.2382,-87.7861 27.8457,-72 29.3093,-63.1389 32.0623,-53.768 34.9827,-45.4104"/>
<polygon fill="#d2d2d2" stroke="#d2d2d2" points="38.3439,-46.4136 38.5528,-35.8208 31.7837,-43.9713 38.3439,-46.4136"/>
</g>
<!-- lib/graph -->
<g id="node6" class="node"><title>lib/graph</title>
<ellipse fill="none" stroke="#99a8fe" cx="83.8457" cy="-90" rx="46.8263" ry="18"/>
<text text-anchor="middle" x="83.8457" y="-86.8493" font-family="Arial" font-size="14.00" fill="#99a8fe">lib/graph</text>
</g>
<!-- lib/api&#45;&gt;lib/graph -->
<g id="edge5" class="edge"><title>lib/api&#45;&gt;lib/graph</title>
<path fill="none" stroke="#d2d2d2" d="M54.8512,-144.411C59.3284,-136.163 64.8408,-126.009 69.8527,-116.777"/>
<polygon fill="#d2d2d2" stroke="#d2d2d2" points="72.9459,-118.415 74.6409,-107.956 66.7939,-115.075 72.9459,-118.415"/>
</g>
<!-- lib/graph&#45;&gt;lib/cyclic -->
<g id="edge6" class="edge"><title>lib/graph&#45;&gt;lib/cyclic</title>
<path fill="none" stroke="#d2d2d2" d="M74.6469,-72.055C70.2127,-63.8866 64.7977,-53.9116 59.8647,-44.8244"/>
<polygon fill="#d2d2d2" stroke="#d2d2d2" points="62.8067,-42.9077 54.9597,-35.789 56.6547,-46.2474 62.8067,-42.9077"/>
</g>
</g>
</svg>
