<?xml version="1.0" encoding="UTF-8" standalone="no"?>
<!DOCTYPE svg PUBLIC "-//W3C//DTD SVG 1.1//EN"
 "http://www.w3.org/Graphics/SVG/1.1/DTD/svg11.dtd">
<!-- Generated by graphviz version 2.40.1 (20161225.0304)
 -->
<!-- Title: G Pages: 1 -->
<svg width="277pt" height="147pt"
 viewBox="0.00 0.00 277.20 147.30" xmlns="http://www.w3.org/2000/svg" xmlns:xlink="http://www.w3.org/1999/xlink">
<g id="graph0" class="graph" transform="scale(1 1) rotate(0) translate(21.6 125.6986)">
<title>G</title>
<polygon fill="#111111" stroke="transparent" points="-21.6,21.6 -21.6,-125.6986 255.6,-125.6986 255.6,21.6 -21.6,21.6"/>
<!-- a.js -->
<g id="node1" class="node">
<title>a.js</title>
<path fill="none" stroke="#ff6c60" d="M45.9341,-44.1482C45.9341,-44.1482 8.0659,-44.1482 8.0659,-44.1482 4.0329,-44.1482 0,-40.1152 0,-36.0823 0,-36.0823 0,-28.0164 0,-28.0164 0,-23.9834 4.0329,-19.9505 8.0659,-19.9505 8.0659,-19.9505 45.9341,-19.9505 45.9341,-19.9505 49.9671,-19.9505 54,-23.9834 54,-28.0164 54,-28.0164 54,-36.0823 54,-36.0823 54,-40.1152 49.9671,-44.1482 45.9341,-44.1482"/>
<text text-anchor="middle" x="27" y="-28.8986" font-family="Arial" font-size="14.00" fill="#ff6c60">a.js</text>
</g>
<!-- b.js -->
<g id="node2" class="node">
<title>b.js</title>
<path fill="none" stroke="#c6c5fe" d="M135.9341,-104.1482C135.9341,-104.1482 98.0659,-104.1482 98.0659,-104.1482 94.0329,-104.1482 90,-100.1152 90,-96.0823 90,-96.0823 90,-88.0164 90,-88.0164 90,-83.9834 94.0329,-79.9505 98.0659,-79.9505 98.0659,-79.9505 135.9341,-79.9505 135.9341,-79.9505 139.9671,-79.9505 144,-83.9834 144,-88.0164 144,-88.0164 144,-96.0823 144,-96.0823 144,-100.1152 139.9671,-104.1482 135.9341,-104.1482"/>
<text text-anchor="middle" x="117" y="-88.8986" font-family="Arial" font-size="14.00" fill="#c6c5fe">b.js</text>
</g>
<!-- a.js&#45;&gt;b.js -->
<g id="edge1" class="edge">
<title>a.js&#45;&gt;b.js</title>
<path fill="none" stroke="#757575" d="M45.2128,-44.1912C58.1437,-52.8118 75.7142,-64.5254 90.2355,-74.2063"/>
<polygon fill="#757575" stroke="#757575" points="88.5523,-77.2906 98.8142,-79.9255 92.4352,-71.4663 88.5523,-77.2906"/>
</g>
<!-- c.js -->
<g id="node3" class="node">
<title>c.js</title>
<path fill="none" stroke="#cfffac" d="M225.9341,-84.1482C225.9341,-84.1482 188.0659,-84.1482 188.0659,-84.1482 184.0329,-84.1482 180,-80.1152 180,-76.0823 180,-76.0823 180,-68.0164 180,-68.0164 180,-63.9834 184.0329,-59.9505 188.0659,-59.9505 188.0659,-59.9505 225.9341,-59.9505 225.9341,-59.9505 229.9671,-59.9505 234,-63.9834 234,-68.0164 234,-68.0164 234,-76.0823 234,-76.0823 234,-80.1152 229.9671,-84.1482 225.9341,-84.1482"/>
<text text-anchor="middle" x="207" y="-68.8986" font-family="Arial" font-size="14.00" fill="#cfffac">c.js</text>
</g>
<!-- a.js&#45;&gt;c.js -->
<g id="edge2" class="edge">
<title>a.js&#45;&gt;c.js</title>
<path fill="none" stroke="#757575" d="M54.3381,-38.1245C85.1765,-44.9774 135.5008,-56.1606 169.8771,-63.7998"/>
<polygon fill="#757575" stroke="#757575" points="169.4732,-67.2953 179.9944,-66.0481 170.9918,-60.462 169.4732,-67.2953"/>
</g>
<!-- d.js -->
<g id="node4" class="node">
<title>d.js</title>
<path fill="none" stroke="#ff6c60" d="M135.9341,-24.1482C135.9341,-24.1482 98.0659,-24.1482 98.0659,-24.1482 94.0329,-24.1482 90,-20.1152 90,-16.0823 90,-16.0823 90,-8.0164 90,-8.0164 90,-3.9834 94.0329,.0495 98.0659,.0495 98.0659,.0495 135.9341,.0495 135.9341,.0495 139.9671,.0495 144,-3.9834 144,-8.0164 144,-8.0164 144,-16.0823 144,-16.0823 144,-20.1152 139.9671,-24.1482 135.9341,-24.1482"/>
<text text-anchor="middle" x="117" y="-8.8986" font-family="Arial" font-size="14.00" fill="#ff6c60">d.js</text>
</g>
<!-- a.js&#45;&gt;d.js -->
<g id="edge3" class="edge">
<title>a.js&#45;&gt;d.js</title>
<path fill="none" stroke="#757575" d="M53.5162,-19.9408C61.7151,-17.618 70.9049,-15.4273 79.6915,-13.6785"/>
<polygon fill="#757575" stroke="#757575" points="80.5274,-17.0839 89.7375,-11.8471 79.2719,-10.1974 80.5274,-17.0839"/>
</g>
<!-- b.js&#45;&gt;c.js -->
<g id="edge4" class="edge">
<title>b.js&#45;&gt;c.js</title>
<path fill="none" stroke="#757575" d="M144.003,-86.0487C152.1158,-84.2458 161.1631,-82.2353 169.8131,-80.3131"/>
<polygon fill="#757575" stroke="#757575" points="170.7024,-83.7009 179.705,-78.1149 169.1839,-76.8676 170.7024,-83.7009"/>
</g>
<!-- d.js&#45;&gt;a.js -->
<g id="edge5" class="edge">
<title>d.js&#45;&gt;a.js</title>
<path fill="none" stroke="#757575" d="M90.6355,-24.1149C82.2607,-26.4927 72.8401,-28.7342 63.8659,-30.5079"/>
<polygon fill="#757575" stroke="#757575" points="63.2192,-27.068 54.003,-32.294 64.4666,-33.956 63.2192,-27.068"/>
</g>
</g>
</svg>
